<svg version="1.2" xmlns="http://www.w3.org/2000/svg" viewBox="0 0 1920 1080" width="1920" height="1080">
	<title>abstract_lines_3-ai</title>
	<style>
		.s0 { fill: #c9c9c9; opacity: .1 }
	</style>
	<g id="Layer 1">
		<g id="&lt;Clip Group&gt;">
			<path id="&lt;Compound Path&gt;" fill-rule="evenodd" class="s0" d="m1750 1080.2c-19.7-5.4-39.5-12.1-58.9-20.2 23.6 8.6 47.5 15.2 70.6 20.2h13.9c-33.6-6.5-69.2-16.3-103.7-30.7 46.1 16.8 93 25.9 133.7 30.7h28.8c-51.6-4.1-118.5-14.7-181.6-41.2 122.7 44.7 251.7 34.9 252.3 34.9h0.2l0.3-0.1c0.1-0.1 11.2-5 30-12.7v-3.1c-18.3 7.5-29.5 12.4-31 13.1-6.8 0.4-146.2 9.7-270.9-42.5 122.7 44.6 251.7 34.9 252.3 34.8h0.2l0.2-0.1c0.3-0.1 18.9-8.4 49.2-20.3v-3.1c-29.5 11.6-48.2 19.8-50.1 20.7-6.7 0.5-144.6 9.6-268.6-41.6l-0.4-0.2c122.1 43.9 249.8 34.2 250.4 34.2l0.2-0.1 0.2-0.1c0.3-0.1 26.9-11.9 68.3-27.7v-3.1c-40.3 15.5-66.9 27.1-69.2 28.1-6.6 0.5-136.7 9.1-257.9-37.3q-0.7-0.6-1.5-1.1c119.1 40 240.2 30.8 240.7 30.8h0.3l0.2-0.1c0.3-0.2 35.2-15.6 87.4-35v-3c-50.9 18.9-85.6 34.1-88.3 35.3-6.4 0.4-128.9 8.5-246.8-33.3q-1.1-0.9-2.3-1.9c115.7 36.2 229.9 27.6 230.4 27.5h0.3l0.2-0.1c0.4-0.2 43.9-19.4 106.5-42v-3c-61.2 22-104.4 41-107.4 42.3-6.2 0.4-121.2 8-235.4-29.4q-1.4-1.2-2.8-2.5c111.8 32.4 219 24.3 219.5 24.3l0.3-0.1 0.2-0.1c0.4-0.1 52.9-23.4 125.6-48.7v-3c-71.2 24.7-123.2 47.6-126.5 49-6 0.5-113.5 7.5-223.8-25.7q-1.6-1.5-3.1-3c107.6 28.7 207.7 21.1 208.2 21.1h0.3l0.2-0.1c0.4-0.2 62.3-27.6 144.7-55.3v-3c-80.8 27.1-142.1 54-145.6 55.6-5.8 0.4-105.9 7-211.9-22.3q-1.7-1.7-3.3-3.5c103 25.2 196 18.2 196.5 18.1h0.3l0.2-0.1c0.4-0.2 72-31.9 163.8-61.6v-2.9c-90.1 29-160.9 60.1-164.8 61.8-5.5 0.4-98.2 6.5-199.6-19q-1.8-2-3.5-3.9c98.2 21.8 184 15.3 184.5 15.3l0.2-0.1 0.3-0.1c0.5-0.2 82.2-36.3 182.9-67.6v-2.9c-99 30.6-179.7 66-183.9 67.8-5.2 0.4-90.8 6-187.1-16q-1.8-2.1-3.6-4.3c92.9 18.7 171.6 12.7 172.1 12.7h0.2l0.3-0.1c0.5-0.2 92.7-41.1 202-73.4v-2.9c-107.5 31.7-198.6 71.6-203 73.6-5 0.3-83.3 5.5-174.4-13.3q-1.8-2.3-3.5-4.6c87.2 15.7 158.8 10.3 159.3 10.2h0.2l0.2-0.1c0.6-0.2 103.7-45.9 221.2-78.9v-2.9c-115.7 32.4-217.4 77.1-222.1 79.1-4.8 0.4-76 5-161.3-10.7q-1.8-2.5-3.6-5c81.2 13 145.8 8.1 146.3 8.1h0.2l0.2-0.1c0.6-0.3 115.1-51 240.3-84.2v-2.9c-123.3 32.6-236.3 82.2-241.2 84.4-4.6 0.3-68.7 4.5-148-8.5q-1.8-2.6-3.5-5.2c74.8 10.4 132.5 6 132.8 6h0.3l0.2-0.1c0.6-0.3 127-56.2 259.4-89.1v-2.8c-130.5 32.2-255.1 86.9-260.3 89.2-4.3 0.3-61.5 4-134.4-6.4-1.1-1.8-2.3-3.7-3.4-5.5 68 8.1 118.8 4.3 119.1 4.2h0.3l0.2-0.1c0.7-0.3 139.4-61.7 278.5-93.6v-2.8c-137.2 31.3-274 91.3-279.4 93.7-4 0.3-54.3 3.6-120.5-4.5q-1.8-3-3.6-5.9c61 6.1 105.1 2.8 105.4 2.8h0.3l0.2-0.1c0.7-0.3 152.4-67.5 297.6-97.8v-2.9c-143.3 29.8-292.9 95.5-298.5 98-3.8 0.2-47.5 3.1-106.9-3q-2-3.2-4.1-6.3c54.1 4.5 92 1.6 92.3 1.6h0.3l0.2-0.1c0.7-0.3 166.1-73.5 316.7-101.6v-2.8c-148.8 27.6-311.7 99.1-317.6 101.7-3.5 0.2-41.2 2.7-93.9-1.8-1.5-2.2-3.1-4.4-4.6-6.5 47.3 3.1 79.5 0.7 79.8 0.6h0.3l0.2-0.1c0.7-0.3 180.4-79.8 335.8-104.9v-2.8c-153.7 24.7-330.6 102.3-336.8 105-3.1 0.3-35.4 2.4-81.6-0.8q-2.7-3.5-5.4-6.8c41 2 68.1 0 68.4 0h0.2l0.3-0.1c0.7-0.4 195.5-86.6 354.9-107.7v-2.8c-157.7 20.8-349.4 104.9-355.9 107.8-2.9 0.2-30.3 2-70.4-0.2-19.1-22.4-40.4-38.7-63.7-49.6q-9.3-5.9-19.1-10.4-9.3-5.9-19.1-10.5-9.3-5.9-19.1-10.5-9.3-5.8-19.1-10.4-9.3-5.9-19.1-10.5-9.3-5.9-19.1-10.5-9.3-5.8-19.1-10.4-9.4-5.9-19.1-10.5-9.4-5.9-19.2-10.4-9.3-5.9-19.1-10.5-9.3-5.9-19.1-10.5-9.3-5.8-19.1-10.4-9.3-5.9-19.1-10.5-9.3-5.9-19.1-10.5-9.3-5.8-19.1-10.4-9.3-5.9-19.1-10.5-9.4-5.9-19.2-10.5-9.3-5.8-19.1-10.4-9.4-6-19.3-10.6c-123.5-77.6-309.8 16.4-506.9 116-93.1 47.1-188.7 95.3-281.1 127.2-88.9 30.6-190.8 31.1-289.1 12.2q-5.8-8.3-10.7-16.6-1-1.8-2.4-4.2v5.8q4.2 7.1 9.1 14.2-4.5-0.9-9.1-1.9v5l1.2 1.5-1.2-0.3v2.9l4.2 1q1.5 1.8 3 3.6-3.6-0.9-7.2-1.8v4.6l0.7 0.7-0.7-0.2v3q2.4 0.7 4.7 1.3 1.3 1.3 2.6 2.6-1.8-0.5-3.6-1.1l-2.4-0.7-1.3-1.2v3.8l1.9 1.7-1.9-0.6v15.7q2.6 1.4 5.3 2.8 9.3 5.4 19.1 10.5 9.3 5.3 19.1 10.4 9.4 5.4 19.1 10.5 9.4 5.3 19.1 10.5 9.4 5.3 19.1 10.4 9.4 5.4 19.2 10.5 9.3 5.4 19 10.5 9.4 5.3 19.2 10.5c36.8 20.9 77.6 39.5 120.6 54.9h8.6q-19.4-6.7-38.1-14.3 19.8 7.4 40.3 13.8l1.4 0.5h9.8q-5.2-1.6-10.4-3.2c-20.5-6.4-40.7-13.7-60.2-21.5q19.8 7.4 40.3 13.8 18.8 5.9 38.1 10.9h11.6c-16.5-4.1-32.8-8.6-48.9-13.7-20.5-6.4-40.7-13.6-60.2-21.5q19.8 7.4 40.2 13.8c27.5 8.6 55.6 15.8 84.1 21.4h15.6c-33.5-5.9-66.7-14-98.8-24.1-20.6-6.5-40.7-13.7-60.3-21.6q19.9 7.4 40.3 13.8c50.5 15.9 103.5 27 156.4 31.9h115.7c36.1-3.6 71.3-10.9 104.6-22.4 92.6-31.9 188.3-80.2 281.5-127.3 116.8-59 229.7-116 327.8-136.4q5.5 4.8 11.1 9.2c-96.7 21.8-207.1 77.5-321.1 135.1-93.2 47.1-188.8 95.3-281.1 127.2-17.4 6-35.4 10.8-53.7 14.6h13.2c14.1-3.3 27.9-7.3 41.5-12 92.6-31.9 188.2-80.2 281.4-127.3 114.8-57.9 225.9-114 322.8-135.3q6.1 4.7 12.3 9c-95.8 22.4-204.8 77.4-317.3 134.3-93.1 47-188.7 95.3-281.1 127.1q-6.3 2.2-12.7 4.2h9.3q2.2-0.7 4.4-1.5c92.6-31.9 188.2-80.2 281.4-127.3 113.4-57.3 223.2-112.7 319.3-134.5q6.7 4.5 13.5 8.8c-95.2 22.6-203.3 77.3-314.9 133.6-87.3 44.1-176.6 89.2-263.4 120.9h8.2c84.7-31.6 171.6-75.5 256.5-118.3 112.5-56.9 221.6-112 317.2-134.1q7.4 4.4 14.9 8.5c-95.1 22.7-203 77.2-314.3 133.5-78.1 39.4-157.8 79.6-235.8 110.4h7.7c76.1-30.5 153.5-69.6 229.4-107.9 112.4-56.8 221.4-111.8 316.9-134q1.5 0.8 2.9 1.5 9.5 5.6 19.2 10.5 9.4 5.5 19.1 10.5 9.4 5.5 19.1 10.4 9.4 5.6 19.1 10.5 9.4 5.5 19.1 10.5 9.4 5.5 19.1 10.4 9.5 5.6 19.1 10.5 9.5 5.5 19.2 10.5 9.4 5.5 19.1 10.4 9.4 5.6 19.1 10.5 9.4 5.5 19.1 10.5 9.4 5.5 19.1 10.4 9.4 5.6 19.1 10.5 9.5 5.5 19.1 10.5 9.5 5.5 19.2 10.4 9.4 5.5 19 10.5 9.5 5.5 19.1 10.4 9.5 5.6 19.2 10.5 9.4 5.5 19.1 10.5c31.1 18.3 64.6 31.7 97.8 41.5zm-1699.2-129.5q-1.4-1.3-2.7-2.5c119.2 34.8 250.7 43.2 361.9 4.9 92.6-31.9 188.2-80.2 281.5-127.3 160.8-81.2 314.5-158.8 432.1-141.8q2.5 2.8 4.9 5.8c-116.3-9.1-264.4 65.8-419.2 143.9-93.2 47.1-188.8 95.4-281.1 127.2-115.3 39.7-252.4 28.9-375-9.5zm1080.1-274.6q-1.4-0.4-2.8-0.8-1-0.9-2-1.8 1.3 0.5 2.7 1 1 0.8 2.1 1.6zm0.3 6.1q-3.1-0.5-6.2-1-2.1-2.4-4.2-4.6 3 0.7 6 1.5 2.2 2 4.4 4.1zm9.9 2q-2.4-0.5-4.8-1-1.7-1.7-3.5-3.4 2.4 0.7 4.7 1.4 1.8 1.5 3.6 3zm8.9 2.3q-1.4-0.4-2.8-0.7-1-1-2-1.9 1.3 0.6 2.7 1.1 1 0.7 2.1 1.5zm173 143.7q3.9-0.5 7.8-0.8c9.5 14.6 20.2 27.9 31.7 40q-3.2-1-6.5-1.9c-11.9-11.3-23-23.7-33-37.3zm-183.3-139.1q-3.6-0.5-7.2-0.8-2.2-2.8-4.5-5.6 3.5 0.6 7 1.3 2.4 2.5 4.7 5.1zm10.6 1.6q-3.1-0.6-6.2-1-2.1-2.4-4.1-4.6 3 0.7 5.9 1.4 2.2 2.1 4.4 4.2zm9.9 2q-2.4-0.5-4.8-1-1.7-1.8-3.4-3.4 2.3 0.6 4.6 1.4 1.8 1.5 3.6 3zm8.9 2.3q-1.4-0.4-2.8-0.8-1-0.9-2-1.8 1.4 0.5 2.7 1.1 1 0.7 2.1 1.5zm164.9 132.1q4.5-0.3 8.9-0.5c9.5 16.2 20.4 30.9 32.3 44.2q-3.6-0.9-7.3-1.9c-12.3-12.5-23.7-26.4-33.9-41.8zm12.1-0.7q4.7-0.2 9.4-0.2 3.2 5 6.2 10.3c7.9 13.6 16.8 26 26.3 37.6q-3.9-1-7.8-2c-12.6-13.7-24.1-28.8-34.1-45.7zm-198.4-128q-3.9-0.3-7.9-0.5-2.4-3.2-4.7-6.4 3.8 0.5 7.6 1 2.5 2.9 5 5.9zm11.1 1.1q-3.5-0.4-7.1-0.8-2.3-2.8-4.5-5.5 3.4 0.6 6.9 1.3 2.4 2.5 4.7 5zm10.6 1.6q-3.1-0.5-6.2-1-2-2.3-4.1-4.6 3 0.7 5.9 1.5 2.2 2 4.4 4.1zm9.9 2.1q-2.4-0.6-4.8-1.1-1.7-1.7-3.4-3.4 2.3 0.7 4.6 1.5 1.8 1.4 3.6 3zm8.9 2.2q-1.4-0.3-2.8-0.7-1-0.9-2-1.8 1.4 0.5 2.7 1 1.1 0.8 2.1 1.5zm168.6 164.7q-2.3-0.8-4.6-1.6-1.1-1-2.2-1.9 2.3 0.7 4.6 1.4 1.1 1.1 2.2 2.1zm6.7 6q-1.6-0.6-3.3-1.2-0.8-0.6-1.5-1.2 1.7 0.5 3.3 1.1 0.8 0.6 1.5 1.3zm6.7 5.6l-1.6-0.6-0.4-0.3 1.6 0.6zm-215-173.5q-4.2-0.2-8.5-0.2-2.4-3.6-4.8-7 4.2 0.2 8.4 0.6 2.5 3.2 4.9 6.6zm11.6 0.6q-4-0.3-7.9-0.5-2.4-3.2-4.7-6.3 3.8 0.4 7.6 0.9 2.5 2.9 5 5.9zm11.1 1.2q-3.6-0.5-7.2-0.9-2.2-2.8-4.5-5.5 3.5 0.6 7 1.3 2.4 2.5 4.7 5.1zm10.6 1.5q-3.1-0.5-6.2-1-2.1-2.3-4.1-4.6 3 0.7 5.9 1.5 2.2 2 4.4 4.1zm9.9 2.1q-2.4-0.6-4.8-1-1.7-1.8-3.4-3.5 2.3 0.7 4.6 1.5 1.8 1.4 3.6 3zm8.9 2.3q-1.4-0.4-2.8-0.8-1-0.9-2-1.8 1.4 0.5 2.7 1 1 0.8 2.1 1.6zm151.5 110.3q4.5 0 8.9 0.2 6.8 9.6 13.1 20.5v0.1c6.2 10.6 13 20.6 20.3 29.9q-4.2-0.9-8.5-1.8c-10.4-12.2-20-25.5-28.4-40q-2.7-4.6-5.4-8.9zm17.1 54.3q-2.3-0.8-4.6-1.6c-0.8-0.6-1.5-1.3-2.3-1.9q2.3 0.7 4.6 1.4 1.2 1.1 2.3 2.1zm6.7 6q-1.6-0.6-3.3-1.2-0.8-0.6-1.5-1.2 1.6 0.5 3.3 1.1 0.8 0.7 1.5 1.3zm6.7 5.6l-1.7-0.6-0.3-0.3 1.6 0.6zm-226.9-173.6q-4.5 0.1-9.1 0.3-2.3-4-4.7-7.8 4.4 0 8.8 0.2 2.5 3.6 5 7.3zm11.9 0.1q-4.2-0.2-8.5-0.2-2.4-3.6-4.8-7 4.2 0.2 8.3 0.6 2.6 3.2 5 6.6zm11.6 0.6q-4-0.3-7.9-0.5-2.4-3.2-4.7-6.3 3.8 0.4 7.6 0.9 2.5 2.9 5 5.9zm11.1 1.2q-3.6-0.5-7.2-0.8-2.2-2.9-4.5-5.6 3.5 0.6 7 1.3 2.4 2.5 4.7 5.1zm10.6 1.6q-3.1-0.6-6.2-1.1-2.1-2.3-4.2-4.5 3 0.6 6 1.4 2.2 2 4.4 4.2zm9.9 2q-2.4-0.6-4.8-1-1.7-1.8-3.4-3.5 2.3 0.7 4.6 1.5 1.8 1.4 3.6 3zm8.9 2.3q-1.4-0.4-2.8-0.8-1-0.9-2-1.8 1.3 0.5 2.7 1 1 0.8 2.1 1.6zm144.9 100.2q4.1 0.2 8.3 0.6 10.7 13.7 20.3 30.3c4.5 7.7 9.4 15.1 14.5 22.2q-4.5-0.9-9-1.8c-8-10.1-15.4-20.8-22.1-32.3q-5.8-10.1-12-19zm17 58q-2.9-0.9-5.7-1.8c-0.9-0.8-1.8-1.7-2.8-2.5q2.9 0.8 5.7 1.6 1.4 1.4 2.8 2.7zm6.7 6.4q-2.3-0.8-4.7-1.6-1.1-1-2.2-1.9 2.3 0.7 4.6 1.4 1.1 1.1 2.3 2.1zm6.7 6q-1.7-0.6-3.3-1.2-0.8-0.6-1.5-1.2 1.6 0.6 3.3 1.1 0.8 0.7 1.5 1.3zm6.7 5.6l-1.7-0.6-0.3-0.3 1.6 0.6zm-239.2-173.2q-4.5 0.3-9.1 0.7-2.6-4.1-5.1-8.4 4.7-0.2 9.3-0.2 2.5 3.9 4.9 7.9zm12.3-0.4q-4.5 0.1-9.1 0.3-2.3-4-4.7-7.8 4.4 0 8.8 0.2 2.5 3.6 5 7.3zm11.9 0.1q-4.2-0.2-8.5-0.1-2.4-3.7-4.8-7.1 4.2 0.2 8.3 0.6 2.6 3.2 5 6.6zm11.6 0.6q-4-0.3-8-0.5-2.3-3.2-4.6-6.3 3.8 0.4 7.6 0.9 2.5 2.9 5 5.9zm11.1 1.2q-3.6-0.5-7.2-0.8-2.2-2.8-4.5-5.5 3.5 0.5 7 1.2 2.3 2.5 4.7 5.1zm10.6 1.6q-3.1-0.6-6.2-1-2.1-2.4-4.2-4.6 3 0.7 6 1.4 2.2 2.1 4.4 4.2zm9.9 2q-2.4-0.5-4.8-1-1.7-1.8-3.5-3.4 2.4 0.6 4.7 1.4 1.8 1.5 3.6 3zm8.9 2.3q-1.4-0.4-2.8-0.8-1-0.9-2-1.8 1.3 0.5 2.7 1.1 1 0.7 2.1 1.5zm138 90.7q3.8 0.4 7.6 1c10 11.4 19.3 24.5 27.9 39.4 2.9 4.9 5.9 9.6 8.9 14.2q-4.7-0.8-9.5-1.7c-5.7-7.7-11-15.9-16-24.4q-9-15.5-18.9-28.5zm17.2 60.8q-3.2-0.9-6.5-1.9-1.5-1.5-3.1-3 3.3 0.8 6.6 1.7 1.5 1.6 3 3.2zm6.7 6.7q-2.9-0.9-5.7-1.8-1.4-1.2-2.8-2.5 2.9 0.8 5.7 1.6 1.4 1.4 2.8 2.7zm6.7 6.4q-2.3-0.8-4.7-1.6-1.1-0.9-2.2-1.9 2.3 0.7 4.6 1.4 1.1 1.1 2.3 2.1zm6.7 6q-1.7-0.6-3.3-1.2-0.8-0.6-1.5-1.2 1.6 0.6 3.3 1.1 0.7 0.7 1.5 1.3zm6.7 5.7l-1.7-0.7-0.3-0.3 1.5 0.6zm-251.4-172.2q-4 0.3-8 0.8-3.1-4.3-6.1-8.8 4.5-0.3 8.9-0.5 2.6 4.3 5.2 8.5zm12.2-1q-4.4 0.3-9 0.7-2.6-4.1-5.1-8.4 4.6-0.2 9.3-0.2 2.4 3.9 4.8 7.9zm12.4-0.4q-4.6 0.1-9.1 0.3-2.4-4-4.8-7.8 4.5 0 8.9 0.2 2.5 3.6 5 7.3zm11.9 0.1q-4.3-0.1-8.6-0.1-2.3-3.7-4.7-7.1 4.2 0.2 8.3 0.6 2.5 3.2 5 6.6zm11.6 0.6q-4-0.3-8-0.5-2.3-3.2-4.7-6.3 3.9 0.4 7.7 0.9 2.5 2.9 5 5.9zm11.1 1.2q-3.6-0.5-7.2-0.8-2.2-2.8-4.5-5.5 3.5 0.5 6.9 1.2 2.4 2.5 4.8 5.1zm10.5 1.6q-3-0.6-6.1-1-2.1-2.4-4.2-4.6 3 0.7 6 1.4 2.2 2.1 4.3 4.2zm9.9 2q-2.3-0.5-4.7-1-1.7-1.8-3.5-3.4 2.4 0.7 4.7 1.4 1.8 1.5 3.5 3zm8.9 2.3q-1.3-0.4-2.7-0.8-1-0.9-2-1.8 1.3 0.5 2.7 1.1 1 0.7 2 1.5zm142.6 137.2q-3.9-0.9-7.9-1.9-1.7-1.9-3.4-3.8 4 0.8 7.9 1.7c1.1 1.4 2.3 2.7 3.4 4zm6.3 7.3q-3.6-0.9-7.3-1.9-1.6-1.7-3.3-3.5 3.7 0.9 7.3 1.7 1.6 1.9 3.3 3.7zm6.4 7q-3.2-0.9-6.5-1.9-1.5-1.5-3.1-3 3.3 0.9 6.6 1.7 1.5 1.6 3 3.2zm6.6 6.7q-2.8-0.9-5.6-1.8-1.4-1.2-2.8-2.5 2.9 0.8 5.7 1.6 1.4 1.4 2.7 2.7zm6.8 6.4q-2.4-0.8-4.7-1.6-1.1-0.9-2.2-1.9 2.3 0.7 4.6 1.4 1.1 1.1 2.3 2.1zm6.7 6.1q-1.7-0.7-3.3-1.3-0.8-0.6-1.5-1.2 1.6 0.6 3.3 1.1 0.7 0.7 1.5 1.4zm6.7 5.6l-1.7-0.7-0.3-0.2 1.5 0.5zm-262.6-171q-3.5 0.5-7 1-3.5-4.5-6.9-9.1 3.9-0.5 7.8-0.8 2.9 4.5 6.1 8.9zm11.2-1.2q-4 0.3-8 0.8-3.1-4.3-6.1-8.8 4.5-0.3 8.9-0.5 2.6 4.3 5.2 8.5zm12.2-1q-4.5 0.3-9 0.7-2.6-4.1-5.1-8.4 4.6-0.2 9.3-0.2 2.4 3.9 4.8 7.9zm12.4-0.4q-4.6 0.1-9.1 0.3-2.4-4-4.8-7.8 4.5 0 8.9 0.2 2.5 3.6 5 7.3zm11.9 0.1q-4.3-0.1-8.6-0.1-2.3-3.6-4.7-7.1 4.2 0.2 8.3 0.6 2.5 3.2 5 6.6zm11.5 0.6q-3.9-0.3-7.9-0.4-2.3-3.3-4.7-6.4 3.9 0.4 7.7 1 2.5 2.8 4.9 5.8zm11.2 1.2q-3.6-0.5-7.2-0.8-2.2-2.8-4.5-5.5 3.5 0.6 6.9 1.2 2.4 2.5 4.8 5.1zm10.5 1.6q-3-0.6-6.1-1-2.1-2.4-4.2-4.6 3 0.7 6 1.5 2.2 2 4.3 4.1zm9.9 2q-2.4-0.5-4.8-1-1.7-1.7-3.4-3.4 2.3 0.7 4.7 1.4 1.8 1.5 3.5 3zm8.9 2.3q-1.3-0.4-2.7-0.8-1-0.9-2-1.8 1.3 0.5 2.7 1.1 1 0.7 2 1.5zm136.6 129.7q-4.3-0.9-8.5-1.8-1.8-2.1-3.5-4.3 4.3 0.9 8.5 1.7c1.2 1.5 2.3 3 3.5 4.4zm6 7.6q-3.9-1-7.9-2-1.7-1.9-3.5-3.9 4 0.9 8 1.8 1.7 2 3.4 4.1zm6.3 7.2q-3.7-0.9-7.3-1.9-1.7-1.7-3.3-3.5 3.6 0.9 7.3 1.7 1.6 1.9 3.3 3.7zm6.4 7q-3.2-0.9-6.5-1.9-1.6-1.5-3.1-3 3.3 0.9 6.5 1.7 1.6 1.6 3.1 3.2zm6.6 6.7q-2.8-0.8-5.6-1.8-1.4-1.2-2.8-2.5 2.8 0.8 5.7 1.6 1.3 1.4 2.7 2.7zm6.7 6.4q-2.3-0.8-4.6-1.6-1.1-0.9-2.2-1.9 2.3 0.7 4.6 1.4 1.1 1.1 2.2 2.1zm6.8 6.1q-1.7-0.7-3.4-1.3-0.7-0.6-1.5-1.2 1.7 0.6 3.4 1.1 0.7 0.7 1.5 1.4zm6.6 5.6l-1.6-0.7-0.3-0.2 1.5 0.5zm-1358 56.7q19.8 7.4 40.3 13.8c123 38.6 260.8 49.4 376.7 9.5 92.6-32 188.2-80.3 281.5-127.4 129.9-65.6 255.2-128.9 360.6-141.8q3.4 4.7 7 9.2c-103.3 16.1-224.4 77.2-349.8 140.6-93.2 47-188.8 95.3-281.1 127.1-115.3 39.7-252.4 29-375-9.4-20.5-6.5-40.7-13.7-60.2-21.6zm1085.2-226.2q-2.9 0.4-5.8 0.9-4-4.5-7.9-9.2 3.3-0.5 6.7-0.9 3.4 4.7 7 9.2zm10.1-1.5q-3.4 0.5-6.9 1-3.5-4.5-7-9.1 4-0.4 7.9-0.8 2.9 4.6 6 8.9zm11.3-1.2q-4 0.4-8 0.8-3.1-4.3-6.1-8.7 4.5-0.4 8.9-0.6 2.5 4.3 5.2 8.5zm12.2-1q-4.5 0.3-9 0.7-2.7-4.1-5.2-8.4 4.7-0.2 9.3-0.2 2.5 3.9 4.9 7.9zm12.3-0.4q-4.5 0.1-9.1 0.3-2.3-4-4.7-7.8 4.5 0.1 8.9 0.2 2.5 3.6 4.9 7.3zm12 0.1q-4.3-0.1-8.6-0.1-2.3-3.6-4.7-7.1 4.2 0.3 8.3 0.6 2.5 3.2 5 6.6zm11.5 0.7q-3.9-0.4-7.9-0.5-2.3-3.3-4.7-6.4 3.9 0.4 7.7 1 2.5 2.8 4.9 5.9zm11.2 1.1q-3.6-0.5-7.2-0.8-2.2-2.8-4.5-5.5 3.5 0.6 6.9 1.3 2.4 2.4 4.8 5zm10.5 1.6q-3.1-0.6-6.2-1-2-2.4-4.1-4.6 3 0.7 6 1.5 2.2 2 4.3 4.1zm9.9 2q-2.4-0.5-4.8-1-1.7-1.7-3.4-3.4 2.3 0.7 4.6 1.4 1.8 1.5 3.6 3zm8.9 2.3q-1.3-0.4-2.7-0.8-1-0.9-2-1.8 1.3 0.5 2.7 1.1 1 0.7 2 1.5zm130.7 122q-4.4-0.9-9-1.8-1.8-2.3-3.5-4.6 4.6 0.8 9.1 1.6c1.1 1.6 2.3 3.2 3.4 4.8zm5.9 7.8q-4.3-0.9-8.5-1.9-1.8-2.1-3.6-4.3 4.3 0.9 8.6 1.7c1.1 1.5 2.3 3 3.5 4.5zm6 7.5q-3.9-1-7.9-2-1.8-1.9-3.5-3.8 4 0.8 8 1.7c1.1 1.4 2.3 2.7 3.4 4.1zm6.2 7.2q-3.6-0.9-7.2-1.9-1.7-1.7-3.3-3.5 3.6 0.9 7.3 1.7 1.6 1.9 3.2 3.7zm6.5 7q-3.2-0.9-6.5-1.9-1.6-1.5-3.1-3 3.3 0.9 6.5 1.7 1.6 1.6 3.1 3.2zm6.6 6.8q-2.8-0.9-5.6-1.9-1.4-1.2-2.8-2.5 2.8 0.8 5.7 1.6 1.3 1.4 2.7 2.8zm6.7 6.3q-2.3-0.7-4.6-1.6-1.1-0.9-2.2-1.9 2.3 0.7 4.6 1.4 1.1 1.1 2.2 2.1zm6.8 6.1q-1.7-0.6-3.4-1.3-0.7-0.6-1.5-1.2 1.7 0.6 3.3 1.1 0.8 0.7 1.6 1.4zm6.6 5.6l-1.6-0.7-0.4-0.2 1.6 0.5zm-1358 56.7q19.8 7.4 40.3 13.8c123 38.6 260.8 49.4 376.7 9.5 92.6-31.9 188.2-80.2 281.5-127.3 125.9-63.6 247.3-125 350.6-140.5q3.9 4.8 7.9 9.3c-101.3 18.1-218.9 77.6-340.7 139.1-93.2 47.1-188.8 95.3-281.1 127.2-115.3 39.7-252.4 28.9-375-9.5-20.5-6.5-40.6-13.7-60.2-21.6zm1076.1-224.7q-2.2 0.4-4.5 0.8-4.5-4.5-8.9-9.3 2.7-0.4 5.5-0.8 3.9 4.7 7.9 9.3zm9.1-1.5q-2.9 0.4-5.8 0.9-4-4.5-7.9-9.2 3.3-0.5 6.7-0.9 3.4 4.7 7 9.2zm10.1-1.4q-3.4 0.4-6.9 0.9-3.5-4.4-7-9.1 4-0.4 7.9-0.8 2.9 4.6 6 9zm11.3-1.3q-4 0.4-8.1 0.8-3-4.3-6-8.7 4.5-0.4 8.9-0.6 2.5 4.3 5.2 8.5zm12.2-0.9q-4.5 0.2-9 0.6-2.7-4.1-5.2-8.4 4.7-0.1 9.3-0.2 2.5 3.9 4.9 8zm12.3-0.5q-4.5 0.1-9.1 0.3-2.3-4-4.7-7.8 4.5 0.1 8.9 0.3 2.5 3.5 4.9 7.2zm12 0.1q-4.3-0.1-8.6-0.1-2.3-3.6-4.7-7.1 4.2 0.3 8.3 0.6 2.5 3.3 5 6.6zm11.5 0.7q-3.9-0.3-7.9-0.5-2.3-3.3-4.7-6.4 3.9 0.4 7.7 1 2.5 2.8 4.9 5.9zm11.1 1.1q-3.5-0.4-7.1-0.8-2.3-2.8-4.5-5.5 3.5 0.6 6.9 1.3 2.4 2.4 4.7 5zm10.6 1.6q-3.1-0.5-6.2-1-2-2.3-4.1-4.6 3 0.7 6 1.5 2.2 2 4.3 4.1zm9.9 2q-2.4-0.5-4.8-1-1.7-1.7-3.4-3.4 2.3 0.7 4.6 1.4 1.8 1.5 3.6 3zm8.9 2.3q-1.4-0.4-2.7-0.7-1-1-2.1-1.9 1.4 0.6 2.7 1.1 1.1 0.8 2.1 1.5zm125.2 114q-4.7-0.8-9.5-1.7-1.8-2.4-3.5-4.9 4.8 0.7 9.6 1.4c1.1 1.8 2.2 3.4 3.4 5.2zm5.5 8q-4.4-0.9-9-1.8-1.8-2.3-3.5-4.6 4.6 0.8 9.1 1.6c1.1 1.6 2.3 3.2 3.4 4.8zm5.8 7.8q-4.2-0.9-8.4-1.9-1.8-2.1-3.6-4.3 4.3 0.9 8.6 1.7c1.1 1.5 2.3 3 3.4 4.5zm6.1 7.5q-3.9-0.9-7.9-1.9-1.8-2-3.5-3.9 4 0.9 8 1.7 1.7 2.1 3.4 4.1zm6.2 7.2q-3.6-0.9-7.2-1.9-1.7-1.7-3.3-3.5 3.6 0.9 7.3 1.8 1.6 1.8 3.2 3.6zm6.5 7q-3.2-0.9-6.5-1.9-1.6-1.5-3.1-3 3.3 0.9 6.5 1.7 1.6 1.6 3.1 3.2zm6.6 6.8q-2.8-0.9-5.6-1.8-1.4-1.3-2.8-2.6 2.8 0.9 5.7 1.6 1.3 1.4 2.7 2.8zm6.7 6.4q-2.3-0.8-4.6-1.7-1.1-0.9-2.3-1.9 2.4 0.8 4.7 1.5 1.1 1 2.2 2.1zm6.8 6q-1.7-0.6-3.4-1.3-0.7-0.6-1.5-1.1 1.7 0.5 3.3 1 0.8 0.7 1.6 1.4zm6.6 5.6l-1.6-0.7-0.4-0.2 1.6 0.5zm-1358 56.7q19.8 7.4 40.3 13.8c123 38.6 260.8 49.4 376.7 9.5 92.6-31.9 188.2-80.2 281.5-127.3 122.3-61.8 240.4-121.5 341.7-139q4.4 4.8 9 9.3c-99.5 19.7-214.3 77.7-332.9 137.6-93.2 47.1-188.8 95.4-281.1 127.2-115.3 39.7-252.5 28.9-375-9.5-20.5-6.4-40.7-13.7-60.2-21.6zm-150.1-82.6l0.2 0.1-1.8-0.7-0.1-0.1zm1218.4-140.5l-3.2 0.6q-5.1-4.5-10-9.3 2.1-0.3 4.2-0.7 4.4 4.8 9 9.4zm7.8-1.5q-2.2 0.4-4.5 0.8-4.6-4.5-9-9.3 2.8-0.4 5.6-0.8 3.8 4.7 7.9 9.3zm9-1.5q-2.8 0.4-5.7 0.9-4.1-4.5-8-9.2 3.4-0.5 6.7-0.9 3.5 4.7 7 9.2zm10.2-1.5q-3.4 0.5-6.9 1-3.6-4.5-7-9.1 3.9-0.5 7.8-0.8 3 4.5 6.1 8.9zm11.2-1.2q-4 0.3-8 0.8-3.1-4.3-6-8.8 4.4-0.3 8.9-0.5 2.5 4.3 5.1 8.5zm12.3-1q-4.5 0.3-9.1 0.7-2.6-4.1-5.1-8.4 4.7-0.2 9.3-0.2 2.5 3.9 4.9 7.9zm12.3-0.4q-4.5 0.1-9.1 0.3-2.3-4-4.7-7.8 4.4 0 8.8 0.2 2.5 3.6 5 7.3zm11.9 0.1q-4.2-0.1-8.5-0.1-2.4-3.6-4.8-7.1 4.2 0.2 8.4 0.6 2.5 3.2 4.9 6.6zm11.6 0.6q-4-0.3-7.9-0.4-2.4-3.3-4.7-6.4 3.8 0.4 7.6 1 2.5 2.8 5 5.8zm11.1 1.2q-3.6-0.5-7.2-0.8-2.2-2.8-4.5-5.5 3.5 0.6 7 1.2 2.4 2.5 4.7 5.1zm10.6 1.6q-3.1-0.6-6.2-1-2.1-2.4-4.1-4.6 3 0.7 5.9 1.5 2.2 2 4.4 4.1zm9.9 2q-2.4-0.5-4.8-1-1.7-1.8-3.4-3.4 2.3 0.7 4.6 1.4 1.8 1.5 3.6 3zm8.9 2.3q-1.4-0.4-2.8-0.8-1-0.9-2-1.8 1.4 0.5 2.7 1.1 1 0.7 2.1 1.5zm119.8 105.7q-4.9-0.8-9.9-1.6-1.8-2.6-3.5-5.2 5.1 0.7 10.1 1.3 1.6 2.7 3.3 5.5zm5.3 8.2q-4.7-0.8-9.5-1.6-1.8-2.5-3.5-5 4.9 0.8 9.6 1.5c1.1 1.7 2.3 3.4 3.4 5.1zm5.6 8.1q-4.5-0.9-9-1.8-1.8-2.3-3.6-4.6 4.6 0.8 9.2 1.5 1.7 2.5 3.4 4.9zm5.8 7.7q-4.2-0.9-8.5-1.8-1.8-2.1-3.5-4.3 4.3 0.9 8.6 1.7 1.7 2.2 3.4 4.4zm6 7.6q-3.9-1-7.8-2-1.8-1.9-3.5-3.9 4 0.9 8 1.8 1.6 2 3.3 4.1zm6.3 7.2q-3.6-0.9-7.2-1.9-1.7-1.7-3.4-3.5 3.7 0.9 7.3 1.7 1.7 1.9 3.3 3.7zm6.5 7q-3.3-0.9-6.5-1.9-1.6-1.5-3.2-3 3.3 0.9 6.6 1.7 1.5 1.6 3.1 3.2zm6.6 6.7q-2.9-0.9-5.7-1.8-1.4-1.2-2.7-2.5 2.8 0.8 5.6 1.6 1.4 1.4 2.8 2.7zm6.7 6.4q-2.3-0.8-4.6-1.6-1.2-0.9-2.3-1.9 2.3 0.7 4.6 1.4 1.2 1.1 2.3 2.1zm6.7 6.1q-1.6-0.7-3.3-1.3-0.8-0.6-1.5-1.2 1.6 0.6 3.3 1.1 0.8 0.7 1.5 1.4zm6.7 5.6l-1.7-0.7-0.3-0.2 1.6 0.5zm-1358.1 56.7q19.9 7.4 40.3 13.8c123.1 38.6 260.9 49.4 376.7 9.5 92.6-32 188.3-80.3 281.5-127.4 119.3-60.2 234.6-118.4 334.2-137.6q4.9 4.8 10 9.3c-98 20.9-210.3 77.7-326.4 136.3-93.2 47-188.8 95.3-281.1 127.1-115.2 39.7-252.4 29-374.9-9.4-20.6-6.5-40.7-13.7-60.3-21.6zm-150-82.7l0.2 0.2-1.9-0.7-0.1-0.1zm-7.8-6.4l0.9 0.8-2.8-1.1-0.9-0.7zm-7.7-6.5l1.6 1.3-3.9-1.4-1.5-1.2zm17.6-13.3q-1.7-2-3.3-4.1c101.7 21.1 208.2 21.6 300.7-10.3 92.6-31.9 188.2-80.2 281.5-127.3 185-93.5 360.6-182.1 482.6-127.4-121.7-38-289 46.5-464.8 135.3-93.2 47.1-188.8 95.4-281.1 127.2-97 33.4-209.4 31.1-315.6 6.6zm-0.8 23.7l-1.5-1.2 3.8 1.2m1208.2-136.7q-0.8 0.2-1.7 0.3-5.7-4.4-11.2-9.1 1.5-0.3 2.9-0.5 4.9 4.7 10 9.3zm6.6-1.4l-3.1 0.7q-5.2-4.5-10.1-9.3 2.1-0.4 4.2-0.7 4.4 4.8 9 9.3zm7.8-1.4q-2.2 0.4-4.5 0.8-4.5-4.6-8.9-9.3 2.7-0.5 5.5-0.9 3.9 4.8 7.9 9.4zm9-1.5q-2.8 0.4-5.7 0.9-4.1-4.5-8-9.3 3.4-0.4 6.8-0.8 3.4 4.7 6.9 9.2zm10.2-1.5q-3.4 0.4-6.9 1-3.6-4.5-7-9.1 3.9-0.5 7.8-0.8 3 4.5 6.1 8.9zm11.2-1.3q-3.9 0.4-8 0.9-3.1-4.3-6-8.8 4.5-0.3 8.9-0.5 2.5 4.3 5.1 8.4zm12.3-0.9q-4.5 0.3-9.1 0.7-2.6-4.2-5.1-8.4 4.7-0.2 9.3-0.2 2.5 3.9 4.9 7.9zm12.3-0.4q-4.5 0.1-9.1 0.3-2.3-4-4.7-7.8 4.4 0 8.8 0.2 2.6 3.6 5 7.3zm11.9 0.1q-4.2-0.2-8.5-0.1-2.4-3.7-4.7-7.1 4.1 0.2 8.3 0.6 2.5 3.2 4.9 6.6zm11.6 0.6q-3.9-0.3-7.9-0.5-2.3-3.2-4.7-6.3 3.8 0.4 7.6 0.9 2.5 2.9 5 5.9zm11.1 1.2q-3.5-0.5-7.2-0.8-2.2-2.9-4.5-5.6 3.5 0.6 7 1.3 2.4 2.5 4.7 5.1zm10.6 1.6q-3.1-0.6-6.2-1-2.1-2.4-4.1-4.6 3 0.7 5.9 1.4 2.2 2.1 4.4 4.2zm9.9 2q-2.4-0.6-4.8-1-1.7-1.8-3.4-3.4 2.3 0.6 4.6 1.4 1.8 1.5 3.6 3zm8.9 2.3q-1.4-0.4-2.8-0.8-1-0.9-2-1.8 1.4 0.5 2.7 1.1 1.1 0.7 2.1 1.5zm114.7 97.1q-5.1-0.6-10.3-1.4c-1.2-1.8-2.3-3.7-3.4-5.6q5.1 0.7 10.1 1.2c1.2 1.9 2.4 3.8 3.6 5.8zm5.1 8.5q-4.9-0.7-9.9-1.5-1.8-2.6-3.5-5.3 5.1 0.7 10.1 1.4 1.6 2.7 3.3 5.4zm5.3 8.3q-4.7-0.8-9.5-1.7-1.7-2.4-3.5-4.9 4.9 0.8 9.6 1.5c1.1 1.7 2.3 3.4 3.4 5.1zm5.6 8q-4.5-0.8-9-1.7-1.8-2.3-3.6-4.7 4.6 0.9 9.2 1.6c1.1 1.7 2.2 3.2 3.4 4.8zm5.8 7.8q-4.2-0.9-8.5-1.9-1.8-2.1-3.5-4.2 4.3 0.8 8.6 1.6 1.7 2.3 3.4 4.5zm6 7.5q-3.9-0.9-7.8-1.9-1.8-1.9-3.5-3.9 4 0.9 8 1.7 1.6 2.1 3.3 4.1zm6.3 7.3q-3.6-0.9-7.2-1.9-1.7-1.8-3.4-3.5 3.7 0.9 7.3 1.7 1.7 1.9 3.3 3.7zm6.5 7q-3.3-0.9-6.5-1.9-1.6-1.5-3.2-3 3.3 0.8 6.6 1.7 1.5 1.6 3.1 3.2zm6.6 6.7q-2.8-0.9-5.7-1.8c-0.9-0.8-1.8-1.7-2.7-2.5q2.8 0.8 5.6 1.6 1.4 1.4 2.8 2.7zm6.7 6.4q-2.3-0.8-4.6-1.6c-0.8-0.6-1.5-1.3-2.3-1.9q2.3 0.7 4.6 1.4 1.2 1.1 2.3 2.1zm6.7 6q-1.6-0.6-3.3-1.2-0.8-0.6-1.5-1.2 1.7 0.6 3.3 1.1 0.8 0.7 1.5 1.3zm6.7 5.7l-1.7-0.7-0.3-0.2 1.6 0.5zm-1518.9-55.2q-1.6-1.9-3.2-3.8c105.6 23.7 217.1 25.6 313.5-7.6 92.6-31.9 188.2-80.2 281.5-127.3 181.4-91.6 353.6-178.6 475.4-130.4q1 0.7 2.1 1.5c-121.3-34.1-286.4 49.3-459.7 136.9-93.2 47-188.8 95.3-281.1 127.1-100.9 34.8-218.5 30.8-328.5 3.6zm3 22.8l0.9 0.8-2.9-1.1-0.9-0.7zm-15.1-13.2l2 1.8q-2.3-0.8-4.6-1.6l-2-1.7q2.3 0.8 4.6 1.5zm-7.2-6.8q1.2 1.1 2.3 2.3-2.7-0.9-5.3-1.8-1.2-1.1-2.4-2.1 2.7 0.8 5.4 1.6zm1236.7-111.7l-0.1 0.1q-6.3-4.3-12.4-9l1.4-0.3q5.5 4.8 11.1 9.2zm5.2-1.1q-0.8 0.2-1.6 0.3-5.7-4.4-11.2-9.1 1.4-0.3 2.8-0.5 4.9 4.8 10 9.3zm6.6-1.4l-3.1 0.7q-5.1-4.5-10-9.3 2.1-0.4 4.2-0.7 4.4 4.8 8.9 9.3zm7.9-1.4q-2.3 0.4-4.5 0.8-4.6-4.5-9-9.3 2.8-0.4 5.5-0.9 3.9 4.8 8 9.4zm9-1.5q-2.9 0.4-5.8 0.9-4-4.5-7.9-9.2 3.4-0.5 6.7-0.9 3.4 4.7 7 9.2zm10.2-1.5q-3.5 0.5-7 1-3.5-4.5-6.9-9.1 3.9-0.5 7.8-0.8 2.9 4.5 6.1 8.9zm11.2-1.2q-4 0.3-8 0.8-3.1-4.3-6.1-8.8 4.5-0.3 8.9-0.5 2.5 4.3 5.2 8.5zm12.2-1q-4.5 0.3-9 0.7-2.6-4.1-5.2-8.4 4.7-0.2 9.4-0.2 2.4 3.9 4.8 7.9zm12.4-0.4q-4.6 0.1-9.1 0.3-2.4-4-4.8-7.8 4.5 0 8.9 0.2 2.5 3.6 5 7.3zm11.9 0.1q-4.3-0.2-8.6-0.1-2.3-3.7-4.7-7.1 4.2 0.2 8.3 0.6 2.5 3.2 5 6.6zm11.5 0.6q-3.9-0.3-7.9-0.5-2.3-3.2-4.7-6.3 3.9 0.4 7.7 0.9 2.5 2.9 4.9 5.9zm11.2 1.2q-3.6-0.5-7.2-0.8-2.2-2.8-4.5-5.5 3.5 0.5 6.9 1.2 2.4 2.5 4.8 5.1zm10.5 1.6q-3-0.6-6.2-1-2-2.4-4.1-4.6 3 0.7 6 1.4 2.2 2.1 4.3 4.2zm9.9 2q-2.4-0.5-4.8-1-1.7-1.8-3.4-3.4 2.3 0.7 4.7 1.4 1.8 1.5 3.5 3zm8.9 2.3q-1.3-0.4-2.7-0.8-1-0.9-2-1.8 1.3 0.5 2.7 1.1 1 0.7 2 1.5zm109.2 88.2q-4.9-0.5-10-1.1-1.8-3-3.6-5.9 4.9 0.5 9.6 0.9c1.3 2 2.7 4.1 4 6.1zm5.5 8.9q-5.1-0.6-10.3-1.4c-1.1-1.8-2.2-3.7-3.4-5.6q5.2 0.7 10.2 1.2c1.2 1.9 2.3 3.8 3.5 5.8zm5.2 8.5q-5-0.7-10-1.5-1.7-2.6-3.5-5.3 5.2 0.7 10.2 1.4 1.6 2.7 3.3 5.4zm5.3 8.3q-4.7-0.8-9.5-1.7-1.8-2.4-3.5-4.9 4.8 0.8 9.6 1.5c1.1 1.7 2.2 3.4 3.4 5.1zm5.6 8.1q-4.5-0.9-9-1.8-1.9-2.3-3.6-4.6 4.6 0.8 9.1 1.5 1.7 2.5 3.5 4.9zm5.8 7.7q-4.3-0.9-8.5-1.8-1.8-2.2-3.6-4.3 4.3 0.9 8.6 1.7 1.7 2.2 3.5 4.4zm6 7.5q-3.9-0.9-7.9-1.9-1.7-1.9-3.5-3.9 4 0.9 8 1.7 1.7 2.1 3.4 4.1zm6.2 7.3q-3.6-0.9-7.2-1.9-1.7-1.8-3.3-3.5 3.6 0.9 7.3 1.7 1.6 1.9 3.2 3.7zm6.5 7q-3.2-0.9-6.5-1.9-1.6-1.5-3.1-3 3.3 0.8 6.5 1.7 1.6 1.6 3.1 3.2zm6.6 6.7q-2.8-0.9-5.6-1.8-1.4-1.2-2.8-2.5 2.8 0.8 5.7 1.6 1.3 1.4 2.7 2.7zm6.7 6.4q-2.3-0.8-4.6-1.6c-0.7-0.6-1.5-1.3-2.2-1.9q2.3 0.7 4.6 1.4 1.1 1.1 2.2 2.1zm6.8 6.1q-1.7-0.7-3.4-1.3-0.7-0.6-1.5-1.2 1.7 0.6 3.4 1.1 0.7 0.7 1.5 1.4zm6.6 5.6l-1.6-0.7-0.3-0.2 1.5 0.5zm-1531.4-58.4q-1.6-1.8-3.2-3.5c109.3 26.4 225.8 29.9 326-4.7 92.6-31.9 188.3-80.2 281.5-127.3 176.3-89 344-173.7 465-134.2q1.8 1.5 3.6 3c-120.4-27.7-281.6 53.7-450.8 139.2-93.2 47-188.8 95.3-281.1 127.1-104.7 36.1-227.5 30.5-341 0.4zm13.8 14q-1.5-1.4-2.9-2.9c116 32.1 242.5 38.8 350.2 1.7 92.6-31.9 188.2-80.2 281.4-127.3 166.1-83.9 324.5-163.9 443.5-139.9q2.3 2.5 4.7 5.1c-117.9-15.1-270.6 62-430.4 142.7-93.1 47.1-188.7 95.3-281.1 127.2-112.2 38.6-245.4 29.4-365.4-6.6zm-7-7q-1.6-1.5-3.1-3.1c112.7 29.2 234.3 34.2 338.2-1.6 92.6-31.9 188.3-80.2 281.5-127.3 171.2-86.5 334.3-168.8 454.4-137.4q2.2 2.1 4.3 4.2c-119.2-21.3-276.3 58-440.9 141.1-93.2 47.1-188.8 95.4-281.1 127.2-108.5 37.4-236.5 30-353.3-3.1zm-6.4 5.8l2 1.8q-2.3-0.8-4.6-1.6l-2-1.6q2.3 0.7 4.6 1.4zm-7.2-6.8q1.1 1.2 2.3 2.3-2.7-0.9-5.3-1.8-1.2-1-2.4-2.1 2.7 0.8 5.4 1.6zm-7-6.9q1.3 1.3 2.6 2.6-1.8-0.5-3.6-1.1l-2.5-0.8q-1.3-1.2-2.6-2.4 3 0.8 6.1 1.7zm-6.8-7.1q1.4 1.5 2.8 3-3.3-1-6.7-2-1.4-1.4-2.9-2.8 3.4 0.9 6.8 1.8zm-6.6-7.2q1.5 1.7 3 3.3-3.6-1-7.3-2-1.5-1.6-3-3.2 3.6 1 7.3 1.9zm1257.1-90.4h-0.1q-6.3-4.3-12.4-9l1.4-0.2q5.5 4.7 11.1 9.2zm5.2-1.2q-0.8 0.2-1.6 0.4-5.7-4.5-11.2-9.2 1.4-0.2 2.8-0.5 4.9 4.8 10 9.3zm6.6-1.3l-3.1 0.6q-5.1-4.5-10.1-9.3 2.2-0.3 4.3-0.7 4.4 4.8 8.9 9.4zm7.8-1.5q-2.2 0.4-4.4 0.8-4.6-4.5-9-9.3 2.7-0.4 5.5-0.8 3.9 4.7 7.9 9.3zm9.1-1.5q-2.9 0.4-5.8 0.9-4-4.5-7.9-9.2 3.3-0.5 6.7-0.9 3.4 4.7 7 9.2zm10.1-1.5q-3.4 0.5-6.9 1-3.5-4.5-7-9.1 4-0.4 7.9-0.8 2.9 4.6 6 8.9zm11.3-1.2q-4 0.3-8 0.8-3.1-4.3-6.1-8.7 4.5-0.4 8.9-0.6 2.5 4.3 5.2 8.5zm12.2-1q-4.5 0.3-9 0.7-2.6-4.1-5.2-8.4 4.7-0.2 9.3-0.2 2.5 3.9 4.9 7.9zm12.3-0.4q-4.5 0.1-9 0.3-2.4-4-4.8-7.8 4.5 0.1 8.9 0.2 2.5 3.6 4.9 7.3zm12 0.1q-4.3-0.1-8.6-0.1-2.3-3.6-4.7-7.1 4.2 0.2 8.3 0.6 2.5 3.2 5 6.6zm11.5 0.6q-3.9-0.3-7.9-0.4-2.3-3.3-4.7-6.4 3.9 0.4 7.7 1 2.5 2.8 4.9 5.8zm11.2 1.2q-3.6-0.5-7.2-0.8-2.2-2.8-4.5-5.5 3.5 0.6 6.9 1.2 2.4 2.5 4.8 5.1zm10.5 1.6q-3-0.6-6.2-1-2-2.4-4.1-4.6 3 0.7 6 1.5 2.2 2 4.3 4.1zm9.9 2q-2.4-0.5-4.8-1-1.7-1.7-3.4-3.4 2.3 0.7 4.6 1.4 1.8 1.5 3.6 3zm8.9 2.3q-1.4-0.4-2.7-0.8-1-0.9-2-1.8 1.3 0.5 2.6 1.1 1.1 0.7 2.1 1.5zm103 79.1q-4.6-0.4-9.2-0.9-2.1-3.2-4.1-6.3 4.3 0.4 8.6 0.7 2.4 3.2 4.7 6.5zm6.2 9.2q-4.9-0.6-10-1.2-1.8-3-3.6-5.9 4.8 0.5 9.5 0.9c1.4 2 2.8 4.1 4.1 6.2zm5.5 8.8q-5.1-0.6-10.3-1.4c-1.1-1.8-2.2-3.7-3.4-5.5q5.2 0.6 10.2 1.1c1.2 1.9 2.3 3.9 3.5 5.8zm5.2 8.6q-5-0.8-10-1.6-1.7-2.6-3.5-5.2 5.1 0.7 10.1 1.3 1.7 2.8 3.4 5.5zm5.3 8.2q-4.7-0.8-9.5-1.6-1.8-2.5-3.6-5 4.9 0.8 9.7 1.5c1.1 1.7 2.2 3.4 3.4 5.1zm5.5 8.1q-4.4-0.9-9-1.8-1.8-2.3-3.5-4.6 4.6 0.8 9.1 1.5c1.1 1.7 2.3 3.3 3.4 4.9zm5.8 7.7q-4.2-0.9-8.4-1.8-1.8-2.1-3.6-4.3 4.3 0.9 8.6 1.7 1.7 2.2 3.4 4.4zm6.1 7.6q-3.9-1-7.9-2-1.7-1.9-3.5-3.8 4 0.8 8 1.7 1.7 2 3.4 4.1zm6.2 7.2q-3.6-0.9-7.2-1.9-1.7-1.7-3.3-3.5 3.6 0.9 7.3 1.7 1.6 1.9 3.2 3.7zm6.5 7q-3.2-0.9-6.5-1.9-1.6-1.5-3.1-3 3.3 0.9 6.5 1.7 1.6 1.6 3.1 3.2zm6.6 6.7q-2.8-0.8-5.6-1.8c-1-0.8-1.9-1.6-2.8-2.5q2.8 0.8 5.7 1.6 1.3 1.4 2.7 2.7zm6.7 6.4q-2.3-0.8-4.6-1.6c-0.8-0.6-1.5-1.2-2.2-1.9q2.3 0.7 4.6 1.4 1.1 1.1 2.2 2.1zm6.8 6.1q-1.7-0.7-3.4-1.3-0.7-0.6-1.5-1.2 1.7 0.6 3.4 1.1 0.7 0.7 1.5 1.4zm6.6 5.6l-1.6-0.7-0.3-0.2 1.5 0.5zm-86.1-106.7q-4.1-0.3-8.3-0.6c-12.2-17.6-25.4-32.2-39.6-44.1 17.3 11.3 33.3 26 47.9 44.7zm104.8 116.8l0.4 0.4-1.6-0.7-0.3-0.2zm-7.8-6.6q0.7 0.7 1.5 1.3-1.7-0.6-3.3-1.2-0.8-0.6-1.5-1.2 1.6 0.6 3.3 1.1zm-7.5-6.8q1.1 1.1 2.3 2.1-2.4-0.8-4.7-1.6-1.1-1-2.2-1.9 2.3 0.7 4.6 1.4zm-7.2-7q1.4 1.4 2.8 2.7-2.9-0.9-5.7-1.8-1.4-1.2-2.8-2.5 2.9 0.8 5.7 1.6zm-6.9-7.2q1.5 1.6 3 3.2-3.2-0.9-6.5-1.9-1.5-1.5-3.1-3 3.3 0.8 6.6 1.7zm-6.7-7.5q1.6 1.9 3.3 3.7-3.6-0.9-7.2-1.9-1.7-1.8-3.4-3.5 3.7 0.9 7.3 1.7zm-6.4-7.7q1.7 2.1 3.4 4.1-3.9-0.9-7.9-1.9-1.7-1.9-3.4-3.9 4 0.9 7.9 1.7zm-6.1-7.9q1.7 2.3 3.5 4.5-4.2-0.9-8.5-1.9-1.8-2.1-3.5-4.2 4.3 0.8 8.5 1.6zm-5.8-8.1c1.2 1.6 2.3 3.2 3.5 4.8q-4.5-0.8-9-1.8-1.8-2.2-3.6-4.6 4.6 0.9 9.1 1.6zm-5.5-8.4c1.1 1.8 2.3 3.5 3.4 5.2q-4.7-0.8-9.5-1.7-1.8-2.4-3.5-4.9 4.8 0.8 9.6 1.4zm-5.2-8.6q1.6 2.8 3.3 5.5-4.9-0.7-10-1.5-1.7-2.6-3.4-5.3 5.1 0.7 10.1 1.3zm-5.4-8.8c1.2 1.9 2.4 3.8 3.5 5.8q-5.1-0.7-10.2-1.4c-1.2-1.8-2.3-3.7-3.4-5.6q5.1 0.6 10.1 1.2zm-6-9.3c1.3 2.1 2.7 4.1 4 6.2q-4.9-0.5-10-1.1-1.8-3-3.6-5.9 4.9 0.4 9.6 0.8zm-6.9-9.5q2.4 3.2 4.7 6.5-4.5-0.4-9.2-0.9-2-3.1-4.1-6.2 4.4 0.3 8.6 0.6zm-7.8-9.7c1.8 2.2 3.7 4.4 5.5 6.8q-4.1-0.3-8.4-0.7c-1.5-2.2-3-4.4-4.6-6.6q3.8 0.3 7.5 0.5zm-42.5-38c14.2 9.2 27.6 20.8 40 35q-3.6-0.2-7.3-0.5c-10.2-13.4-21.2-24.8-32.7-34.5zm-33.6-17q1.3 0.6 2.7 1.1c17.3 12.5 33.2 28.7 47.7 49.2q-4.6-0.4-9.3-0.9c-12.5-19.8-26.2-36.1-41.1-49.4zm-12.4-4.1q2.4 0.7 4.7 1.4c16.4 13.5 31.5 30.6 45.2 51.7q-5-0.5-10-1.2c-12.1-20.6-25.4-37.8-39.9-51.9zm-12-3.2q3 0.7 6 1.5c15.4 14.2 29.5 31.8 42.3 53.2q-5.1-0.7-10.3-1.4-2.5-3.9-4.8-7.9c-10.2-17.5-21.3-32.6-33.2-45.4zm-11.9-2.3q3.5 0.6 7 1.3c12.8 13.2 24.7 29.1 35.6 47.8 1.2 2 2.4 4 3.6 6q-4.9-0.8-9.9-1.6-5.4-7.9-10.3-16.3c-8.1-13.9-16.8-26.3-26-37.2zm-1.2 52.1q-3.6-0.9-7.2-1.9-1.7-1.7-3.4-3.5 3.7 0.9 7.3 1.7 1.6 1.9 3.3 3.7zm-12.7-3.5q-3.2-0.9-6.5-1.9-1.5-1.4-3.1-3 3.3 0.9 6.6 1.7 1.5 1.7 3 3.2zm-12.5-3.7q-2.8-0.9-5.6-1.8-1.4-1.2-2.8-2.5 2.9 0.8 5.7 1.6 1.4 1.4 2.7 2.7zm-18.1-2.9l-1.6-0.7-0.4-0.2 1.6 0.5zm-6.7-5.6q-1.6-0.6-3.3-1.2-0.7-0.6-1.4-1.2 1.6 0.6 3.3 1.1zm-31.5-36.1q3.4-0.5 6.7-0.9c9.3 12.7 19.5 24.3 30.4 35q-2.9-0.9-5.7-1.8c-11.2-9.8-21.7-20.6-31.4-32.3zm19 31.3q-0.8-0.4-1.6-0.7l-0.3-0.2 1.6 0.6zm-27.8-30q2.7-0.4 5.5-0.9c8.7 10.7 18 20.5 27.9 29.6q-2.3-0.8-4.7-1.6c-10.1-8.3-19.7-17.3-28.7-27.1zm-7.6 1.3q2.1-0.4 4.2-0.7c7.7 8.4 15.9 16.3 24.4 23.7q-1.7-0.6-3.4-1.3c-8.7-6.7-17.1-13.9-25.2-21.7zm-6.2 1.2q1.4-0.3 2.8-0.5 9.4 9.2 19.5 17.4-0.8-0.3-1.7-0.7-10.6-7.6-20.6-16.2zm-4.9 1l1.4-0.3q5.9 5.1 12 9.9-6.8-4.6-13.4-9.6zm-1227.2 121.1l-2.4-2.1c122.1 37.7 258.5 47.9 373.2 8.4 92.6-32 188.3-80.3 281.5-127.4 155.6-78.6 304.5-153.7 420.5-143.1q2.6 3.2 5 6.5c-114.5-3.5-258 69-407.7 144.6-93.2 47-188.7 95.3-281.1 127.1-115.2 39.7-252.4 29-374.9-9.4q-7.1-2.3-14.1-4.6zm6.2 9l0.9 0.8-2.9-1.1-0.9-0.7zm-7.6-6.5l1.5 1.3-3.8-1.4-1.5-1.2zm-7.4-6.6l1.9 1.8q-2.3-0.8-4.6-1.6l-2-1.7q2.3 0.7 4.7 1.5zm-7.3-6.8q1.2 1.1 2.3 2.2-2.6-0.9-5.3-1.8-1.2-1-2.4-2.1 2.7 0.9 5.4 1.7zm-7-7q1.3 1.3 2.6 2.7-1.8-0.6-3.6-1.2l-2.4-0.7q-1.4-1.3-2.7-2.5 3 0.9 6.1 1.7zm-6.8-7q1.4 1.4 2.8 2.9-3.3-0.9-6.6-1.9-1.5-1.4-2.9-2.9 3.3 1 6.7 1.9zm-17.3-24.8q-1.7-2.2-3.3-4.4c97.8 18.5 199.1 17.6 287.6-12.9 92.6-31.9 188.3-80.2 281.5-127.3 185.1-93.5 360.6-182.1 482.6-127.4-121.7-38-289 46.5-464.8 135.3-93.2 47.1-188.8 95.4-281.1 127.2-93 32-200.2 31.2-302.5 9.5zm4.4 10.1q1.5 1.9 3.1 3.7-3.9-1-7.8-2-1.6-1.8-3.2-3.5 4 0.9 7.9 1.8zm-6-7.5q1.5 1.9 3.1 3.9-4.2-1-8.3-2-1.7-1.9-3.3-3.8 4.2 1 8.5 1.9zm-5.8-7.8q1.6 2.2 3.1 4.3-4.4-1-8.8-2-1.7-2-3.3-4.1 4.5 0.9 9 1.8zm18.1 22.7q1.5 1.7 3 3.3-3.6-0.9-7.2-2-1.6-1.5-3.1-3.1 3.7 0.9 7.3 1.8zm-1.6 15.1l-3.8-1.4m17.7 13l0.2 0.2-1.8-0.7-0.1-0.1zm19.1 10.5l0.2 0.1-1.8-0.7-0.1-0.1zm1058.5-296.8q-1.4-0.4-2.8-0.8-1-0.9-2-1.8 1.3 0.5 2.7 1.1 1.1 0.7 2.1 1.5zm-1066.4 290.4l1 0.8-2.9-1.1-0.9-0.7zm1076.6-282.2q-2.4-0.6-4.9-1-1.7-1.8-3.4-3.5 2.4 0.7 4.7 1.5 1.8 1.4 3.6 3zm-1056.1 290.1l-2-1.6q3.8 1.2 7.7 2.4c123 38.6 260.8 49.4 376.7 9.4 92.6-31.9 188.2-80.2 281.5-127.3 150.3-75.9 294.4-148.6 408.6-143.9q2.5 3.5 4.9 7.2c-112.4 1.6-251.2 71.6-395.7 144.7-93.2 47-188.8 95.3-281.1 127.1-115.3 39.7-252.4 28.9-375-9.4q-12.9-4.1-25.6-8.6zm6.4 9l0.3 0.1-1.9-0.7-0.1-0.1zm1.4-2.5l-1.6-1.2q9.2 3.1 18.6 6c123 38.6 260.8 49.4 376.7 9.5 92.6-31.9 188.2-80.3 281.4-127.3 145.1-73.3 284.2-143.6 396.4-144.2q2.5 3.8 4.9 7.9c-110.2 6.2-244.1 73.8-383.4 144.2-93.2 47.1-188.8 95.3-281.2 127.1-115.2 39.8-252.4 29-374.9-9.4q-18.7-5.9-36.9-12.6zm7.9 6.3l-0.9-0.7q14.4 5.1 29.1 9.7c123 38.5 260.8 49.4 376.7 9.4 92.6-31.9 188.2-80.2 281.5-127.3 139.6-70.5 273.9-138.3 383.8-143.8q2.5 4.3 5.2 8.5c-107.8 10.2-237 75.5-371.2 143.2-93.2 47.1-188.8 95.4-281.1 127.2-115.3 39.7-252.4 28.9-375-9.5-16.3-5.1-32.4-10.7-48.1-16.7zm8.2 6.1h-0.1q19.3 7.1 39.2 13.4c123 38.5 260.8 49.3 376.7 9.4 92.6-31.9 188.2-80.2 281.5-127.3 134.5-68 264.1-133.4 371.7-143q2.9 4.5 6 8.9c-105.4 13.5-230.4 76.6-359.9 142-93.2 47.1-188.8 95.4-281.1 127.2-115.3 39.7-252.4 28.9-375-9.5-20.1-6.3-39.8-13.4-59-21.1zm1189.1-147.9h-0.1q-6.3-4.3-12.4-9l1.4-0.2q5.4 4.7 11.1 9.2zm5.2-1.2q-0.8 0.2-1.6 0.4-5.7-4.5-11.2-9.2 1.4-0.2 2.8-0.5 4.9 4.8 10 9.3zm6.6-1.3l-3.1 0.6q-5.2-4.5-10.1-9.3 2.1-0.3 4.2-0.7 4.4 4.8 9 9.4zm7.8-1.5q-2.2 0.4-4.5 0.8-4.5-4.5-8.9-9.3 2.7-0.4 5.5-0.8 3.9 4.7 7.9 9.3zm9.1-1.5q-2.9 0.4-5.8 0.9-4.1-4.5-7.9-9.2 3.3-0.5 6.7-0.9 3.4 4.7 7 9.2zm10.1-1.5q-3.4 0.5-6.9 1-3.6-4.5-7-9.1 4-0.4 7.9-0.8 2.9 4.6 6 8.9zm11.3-1.2q-4 0.3-8.1 0.8-3.1-4.3-6-8.7 4.5-0.4 8.9-0.6 2.5 4.3 5.2 8.5zm12.2-1q-4.5 0.3-9 0.7-2.7-4.1-5.2-8.4 4.7-0.2 9.3-0.2 2.5 3.9 4.9 7.9zm12.3-0.4q-4.5 0.1-9.1 0.3-2.3-4-4.7-7.8 4.5 0.1 8.9 0.2 2.5 3.6 4.9 7.3zm12 0.1q-4.3-0.1-8.6-0.1-2.3-3.6-4.7-7.1 4.2 0.2 8.3 0.6 2.5 3.2 5 6.6zm11.5 0.6q-3.9-0.3-7.9-0.4-2.3-3.3-4.7-6.4 3.9 0.4 7.7 1 2.5 2.8 4.9 5.8zm11.1 1.2q-3.5-0.5-7.1-0.8-2.3-2.8-4.5-5.5 3.4 0.6 6.9 1.2 2.4 2.5 4.7 5.1zm10.6 1.6q-3.1-0.6-6.2-1-2-2.4-4.1-4.6 3 0.7 5.9 1.5 2.2 2 4.4 4.1zm9.9 2q-2.4-0.5-4.8-1-1.7-1.7-3.4-3.4 2.3 0.7 4.6 1.4 1.8 1.5 3.6 3zm8.9 2.3q-1.4-0.4-2.8-0.8-1-0.9-2-1.8 1.4 0.5 2.7 1.1 1.1 0.7 2.1 1.5zm516.7 247.2l1.5-0.6v-3.1q-5.7 2.4-8.8 3.7zm-1896.4-130.8q0.8 0.7 1.5 1.4l-3.8-1.4-1.5-1.2z"/>
			<path id="&lt;Compound Path&gt;" fill-rule="evenodd" class="s0" d="m1935.6 635.9q-7.1 2.7-14.3 5.6l-0.3 0.3q7.3-2.7 14.6-5v2.9q-11.3 3.7-22.6 8-0.8 0.6-1.5 1.2 12.1-4.1 24.1-7.5v2.9c-10.2 2.9-20.4 6.2-30.7 9.8q-1.1 1-2.2 1.9c11-3.4 22-6.5 32.9-9.2v2.9c-12.7 3.2-25.5 6.8-38.4 11q-1.4 1.2-2.8 2.5c13.9-4 27.7-7.4 41.2-10.3v2.9c-15 3.2-30.4 7.1-45.9 11.7q-1.5 1.5-3.1 3c16.7-4.4 33.1-8 49-10.8v2.8c-17.2 3.1-35 7.1-53 12q-1.7 1.8-3.4 3.5c19.4-4.7 38.3-8.3 56.4-11v2.8c-19.2 2.9-39.4 6.8-60 12q-1.7 1.9-3.4 3.9c22-4.9 43.4-8.4 63.4-10.8v2.8c-20.9 2.6-43.4 6.3-66.6 11.6q-1.8 2.1-3.5 4.2c24.8-5 48.6-8.2 70.1-10.2v2.8c-22.3 2.1-47.1 5.5-72.9 10.9q-1.8 2.2-3.6 4.6c27.7-5 53.8-7.9 76.5-9.4v2.8c-23.4 1.6-50.4 4.6-79 9.9q-1.8 2.4-3.5 4.9c30.7-4.9 59.1-7.2 82.5-8.3v2.9c-23.9 1-53.1 3.5-84.8 8.6q-1.7 2.6-3.4 5.3c34.3-4.8 65-6.5 88.2-6.9v2.9c-23.6 0.4-55.1 2.1-90.2 7.1-1.2 1.8-2.3 3.7-3.4 5.6 38.9-4.7 72.2-5.4 93.6-5.2v2.9c-21.7-0.3-55.7 0.5-95.5 5.3q-1.8 3-3.6 5.9c47.6-4.7 84.8-3.8 99.1-3.1v2.9c-14.3-0.7-52.4-1.7-100.9 3.3q-2 3.1-4.1 6.2c54.1-4.4 91.9-1.6 92.3-1.6l0.2 0.1 0.2 0.1c0.1 0 4.5 1.9 12.3 5.2v3.1c-7.6-3.2-12.3-5.2-13.2-5.6-3.5-0.3-41.2-2.8-93.8 1.7-1.6 2.2-3.1 4.4-4.7 6.6 47.4-3.1 79.6-0.7 79.8-0.7h0.3l0.2 0.1c0.2 0.1 11.8 5.2 31.4 13.2v3.1c-19.1-7.8-30.8-12.9-32.3-13.6-3.2-0.2-35.5-2.3-81.7 0.8q-2.7 3.5-5.4 6.9c41.1-2.1 68.2-0.1 68.4 0h0.3l0.2 0.1c0.3 0.1 19.4 8.6 50.5 20.8v3.1c-30.2-11.9-49.5-20.4-51.4-21.2-2.9-0.2-30.3-2-70.5 0.1-19.1 22.5-40.4 38.7-63.7 49.6q-9.3 5.9-19.1 10.5-9.3 5.9-19.1 10.4-9.3 5.9-19.1 10.5-9.3 5.9-19.1 10.5-9.3 5.8-19.1 10.4-9.3 5.9-19.1 10.5-9.3 5.9-19.1 10.5-9.3 5.8-19.1 10.4-9.3 5.9-19.1 10.5-9.3 5.9-19.1 10.5-9.3 5.8-19.1 10.4-9.4 5.9-19.1 10.5-9.4 5.9-19.2 10.5-9.3 5.8-19.1 10.4-9.3 5.9-19.1 10.5-9.3 5.9-19.1 10.4-9.3 5.9-19.1 10.5-9.3 5.9-19.1 10.5-9.5 5.9-19.3 10.5c-123.5 77.7-309.8-16.4-506.9-115.9-93.2-47.1-188.8-95.4-281.1-127.2-88.9-30.6-190.9-31.2-289.1-12.2q-5.9 8.2-10.7 16.5c-2.4 4.1-6 10.8-10.4 19.3-27.2 51.6-89.8 170.5-159.2 200.3-6.3 4.2-12.7 7.7-19.2 10.5-6.3 4.1-12.6 7.7-19.1 10.4-6.3 4.2-12.6 7.7-19.1 10.5-6.3 4.2-12.7 7.7-19.1 10.5-6.3 4.1-12.7 7.7-19.1 10.4-6.3 4.2-12.7 7.7-19.1 10.5-6.3 4.2-12.7 7.7-19.1 10.5q-1.7 1.1-3.5 2.2v-9.2q1.4-0.2 2.8-0.5 3.6-3.2 7.1-6.6-2.4 0-4.8-0.2-2.5 2.8-5.1 5.4v-4.1l1.6-1.7q-0.8-0.1-1.6-0.2v-2.9q2 0.3 4 0.5 4.2-4.6 8.3-9.5-2.8-0.8-5.6-1.8-3.3 4.3-6.7 8.4v-4.5q2-2.4 4-5-2-0.8-4-1.7v-3.2q2.9 1.5 5.7 2.6 4.6-6 9.1-12.1-3-1.7-5.9-3.7-4.4 6.5-8.9 12.9v-5q3.3-4.7 6.5-9.5-2.9-2.1-5.9-4.5l-0.6 0.9v-5.3q5-7.9 9.6-15.7-3-3.1-5.9-6.5-1.8 3.1-3.7 6.3v-5.7l1.7-3q-0.8-1-1.7-2.1v-4.5q1.6 2.1 3.2 4c3.5-6.2 6.8-12.3 9.9-18q-2.9-4.1-5.7-8.5c-2.3 4.2-4.7 8.9-7.4 13.8v-6q3-5.7 5.6-10.6-2.7-4.4-5.4-9.1l-0.2 0.3v-6.3l0.2 0.3q5.5-9 12.1-17.9-1.4-2.7-2.7-5.4-5 5.7-9.6 11.5v-4.6q4-4.9 8.2-9.7-0.9-2-1.8-3.9-3.3 3.2-6.4 6.5v-4.1q2.5-2.6 5.1-5.2-0.6-1.3-1.2-2.6-1.9 1.8-3.9 3.6v-3.9q1.4-1.2 2.7-2.4l-0.6-1.5-2.1 1.7v-3.7l0.9-0.7-0.9-2v-7.3q1.6 3.8 3.2 7.5c27.9-22.3 60.5-43.4 96.2-62.2q9.5-5.4 19.2-10.5 9.4-5.4 19.1-10.5 9.4-5.3 19.1-10.5 9.4-5.3 19.1-10.4 9.4-5.3 19.1-10.5 9.4-5.3 19.2-10.5 9.3-5.3 19-10.4 9.4-5.3 19.2-10.5 9.4-5.3 19.1-10.5 9.4-5.3 19.1-10.4 9.4-5.3 19.1-10.5 9.4-5.3 19.1-10.4 9.4-5.4 19.1-10.5 9.4-5.3 19.1-10.5 9.4-5.3 19.1-10.4 9.4-5.4 19.2-10.5 9.4-5.3 19.1-10.5 9.4-5.3 19.1-10.4 9.4-5.4 19.1-10.5c45.3-25.7 96.5-48 150.5-64.9 123.1-38.6 260.9-49.4 376.7-9.5 92.6 31.9 188.3 80.2 281.5 127.3 112.5 56.8 221.4 111.9 317 134q1.4-0.7 2.8-1.5 9.5-5.5 19.3-10.5 9.4-5.5 19-10.4 9.5-5.6 19.1-10.5 9.5-5.5 19.2-10.5 9.4-5.5 19-10.4 9.5-5.5 19.2-10.5 9.4-5.5 19.1-10.5 9.4-5.5 19.1-10.4 9.4-5.5 19.1-10.5 9.4-5.5 19.1-10.5 9.5-5.5 19.2-10.4 9.4-5.5 19-10.5 9.5-5.5 19.2-10.5 9.4-5.5 19.1-10.4 9.4-5.5 19.1-10.5 9.4-5.5 19.1-10.4 9.4-5.6 19.1-10.5 9.4-5.5 19.1-10.5 4.1-2.4 8.3-4.7zm-1580.4 74q-1.4 1.2-2.7 2.5c119.2-34.9 250.6-43.3 361.9-5 92.6 31.9 188.2 80.2 281.5 127.3 160.8 81.3 314.5 158.9 432.1 141.9q2.5-2.9 4.9-5.9c-116.3 9.1-264.4-65.7-419.2-143.9-93.2-47.1-188.8-95.4-281.1-127.2-115.3-39.7-252.4-28.9-375 9.5zm1080 274.7q-1.3 0.4-2.7 0.7-1 1-2 1.9 1.3-0.6 2.7-1.1 1-0.8 2-1.5zm0.3-6.2q-3 0.6-6.2 1-2 2.4-4.1 4.6 3-0.7 6-1.5 2.2-2 4.3-4.1zm9.9-2q-2.3 0.5-4.7 1-1.7 1.8-3.5 3.4 2.4-0.7 4.7-1.4 1.8-1.5 3.5-3zm9-2.3q-1.4 0.4-2.8 0.8-1 0.9-2 1.8 1.3-0.5 2.7-1.1 1-0.7 2.1-1.5zm172.9-143.7q4 0.5 7.9 0.8c9.5-14.6 20.1-27.8 31.7-40q-3.2 1-6.5 2c-11.9 11.2-23 23.6-33.1 37.2zm-183.2 139.1q-3.6 0.5-7.2 0.8-2.2 2.9-4.5 5.6 3.5-0.6 6.9-1.3 2.4-2.5 4.8-5.1zm10.6-1.6q-3.1 0.6-6.2 1.1-2.1 2.3-4.2 4.5 3-0.6 6-1.4 2.2-2 4.4-4.2zm9.9-2q-2.4 0.6-4.8 1-1.7 1.8-3.5 3.5 2.4-0.7 4.7-1.5 1.8-1.4 3.6-3zm8.9-2.3q-1.4 0.4-2.8 0.8-1 0.9-2 1.8 1.3-0.5 2.7-1 1-0.8 2.1-1.6zm164.9-132.1q4.5 0.3 8.9 0.6c9.5-16.3 20.4-31 32.3-44.3q-3.6 0.9-7.3 1.9c-12.4 12.6-23.8 26.4-33.9 41.8zm12.1 0.7q4.7 0.2 9.3 0.2 3.2-5 6.3-10.3c7.9-13.6 16.7-26 26.3-37.5q-3.9 0.9-7.9 1.9c-12.6 13.7-24 28.9-34 45.7zm-198.4 128q-4 0.3-7.9 0.5-2.4 3.3-4.7 6.4 3.8-0.4 7.6-1 2.5-2.9 5-5.9zm11.1-1.1q-3.6 0.4-7.2 0.8-2.2 2.8-4.5 5.5 3.5-0.6 7-1.3 2.3-2.4 4.7-5zm10.6-1.6q-3.1 0.5-6.2 1-2.1 2.3-4.1 4.6 3-0.7 5.9-1.5 2.2-2 4.4-4.1zm9.9-2q-2.4 0.5-4.8 1-1.7 1.7-3.4 3.4 2.3-0.7 4.6-1.4 1.8-1.5 3.6-3zm8.9-2.3q-1.4 0.4-2.8 0.7-1 1-2 1.9 1.4-0.6 2.7-1.1 1-0.8 2.1-1.5zm168.6-164.7q-2.3 0.8-4.7 1.7-1.1 0.9-2.2 1.8 2.4-0.7 4.7-1.4 1.1-1 2.2-2.1zm6.7-6q-1.7 0.6-3.3 1.3-0.8 0.5-1.5 1.1 1.6-0.5 3.3-1.1 0.8-0.6 1.5-1.3zm6.7-5.6l-1.7 0.7-0.3 0.2 1.6-0.5zm-215 173.5q-4.2 0.1-8.5 0.1-2.4 3.6-4.8 7.1 4.2-0.3 8.3-0.7 2.5-3.2 5-6.5zm11.6-0.7q-4 0.3-8 0.5-2.3 3.3-4.6 6.4 3.8-0.4 7.6-1 2.5-2.9 5-5.9zm11.1-1.1q-3.6 0.4-7.2 0.8-2.2 2.8-4.5 5.5 3.5-0.6 7-1.3 2.3-2.4 4.7-5zm10.6-1.6q-3.1 0.5-6.2 1-2.1 2.3-4.2 4.6 3-0.7 6-1.5 2.2-2 4.4-4.1zm9.9-2q-2.4 0.5-4.8 1-1.7 1.7-3.5 3.4 2.4-0.7 4.7-1.4 1.8-1.5 3.6-3zm8.9-2.3q-1.4 0.4-2.8 0.7-1 0.9-2 1.8 1.3-0.5 2.7-1 1-0.8 2.1-1.5zm151.5-110.3q4.5-0.1 8.8-0.2 6.9-9.7 13.2-20.6c6.2-10.7 13-20.6 20.3-30q-4.2 0.9-8.5 1.9c-10.4 12.1-20 25.4-28.4 40q-2.7 4.5-5.4 8.9zm17.1-54.4q-2.3 0.8-4.7 1.6c-0.7 0.7-1.5 1.3-2.2 1.9q2.3-0.7 4.6-1.4 1.1-1 2.3-2.1zm6.7-6q-1.7 0.6-3.3 1.3-0.8 0.5-1.5 1.1 1.6-0.5 3.3-1.1 0.7-0.6 1.5-1.3zm6.7-5.6l-1.7 0.7-0.3 0.2 1.5-0.6zm-1549.6 219.5c62.1-38.9 117.1-143.4 142-190.7 4.6-8.6 8.1-15.3 10.5-19.4q4.2-7.2 9.2-14.3-4.7 0.9-9.4 1.9c-6.2 8.1-11.7 16.2-16.4 24.3-2.4 4.1-6 10.8-10.4 19.3-22.7 43-70.1 133-125.5 178.9zm1322.8-45.9q-4.6 0-9.1-0.2-2.4 3.9-4.7 7.7 4.4 0 8.8-0.2 2.5-3.5 5-7.3zm11.9 0q-4.3 0.1-8.6 0.1-2.3 3.6-4.7 7 4.2-0.2 8.3-0.6 2.5-3.2 5-6.5zm11.6-0.7q-4 0.3-8 0.5-2.3 3.2-4.7 6.4 3.9-0.5 7.7-1 2.5-2.9 5-5.9zm11.1-1.1q-3.6 0.4-7.2 0.8-2.2 2.8-4.5 5.5 3.5-0.6 6.9-1.3 2.4-2.5 4.8-5zm10.6-1.6q-3.1 0.5-6.2 1-2.1 2.3-4.2 4.6 3-0.7 6-1.5 2.2-2 4.4-4.1zm9.8-2.1q-2.3 0.6-4.7 1.1-1.7 1.7-3.5 3.4 2.4-0.7 4.7-1.5 1.8-1.4 3.5-3zm8.9-2.2q-1.3 0.3-2.7 0.7-1 0.9-2 1.8 1.3-0.5 2.7-1 1-0.8 2-1.5zm144.9-100.3q4.2-0.2 8.3-0.6 10.8-13.6 20.4-30.2c4.5-7.8 9.4-15.2 14.5-22.3q-4.5 0.9-9 1.8c-8 10.1-15.4 20.8-22.1 32.4v-0.1q-5.9 10.1-12.1 19zm17-58q-2.8 0.9-5.6 1.8c-0.9 0.8-1.8 1.7-2.8 2.5q2.9-0.8 5.7-1.6 1.4-1.3 2.7-2.7zm6.8-6.4q-2.4 0.8-4.7 1.6-1.1 1-2.2 1.9 2.3-0.7 4.6-1.4 1.1-1 2.3-2.1zm6.7-6q-1.7 0.6-3.3 1.2-0.8 0.6-1.5 1.2 1.6-0.5 3.3-1.1 0.7-0.6 1.5-1.3zm6.7-5.6l-1.7 0.6-0.3 0.3 1.5-0.6zm-1586.1 238.9q0.8-0.3 1.5-0.6c60.8-40.4 114.3-142.1 138.8-188.6 4.5-8.6 8.1-15.3 10.5-19.4 4.3-7.3 9.2-14.7 14.6-21.9q-4.4 0.9-8.8 1.9c-8.7 10.6-16.2 21.2-22.5 31.9-2.4 4.1-5.9 10.8-10.4 19.3-22.4 42.6-69 131.1-123.7 177.4zm-11.6 3.9q1.9-0.5 3.8-1.1c56.7-44.2 105.8-137.5 129-181.5 4.5-8.6 8.1-15.3 10.5-19.4 5.7-9.9 12.6-19.7 20.4-29.4q-4.2 1-8.4 2c-11.3 12.9-20.9 26.1-28.7 39.3-2.4 4.1-5.9 10.8-10.4 19.3-21.4 40.6-64.8 123-116.2 170.8zm-10.2 1.8q2.4-0.3 4.8-0.7c52.5-46.7 97.3-131.8 119.1-173.3 4.5-8.5 8-15.2 10.5-19.3 7.2-12.3 16-24.6 26.3-36.7q-3.9 1-7.7 2c-14.2 15.3-26.1 30.9-35.3 46.5-2.4 4.2-5.9 10.8-10.4 19.3-20.1 38.3-59.8 113.7-107.3 162.2zm-9.6 0.3q2.6 0.1 5.3 0c48.1-48 88.7-125.1 109.1-163.8 4.5-8.6 8-15.3 10.4-19.4 8.7-14.7 19.6-29.3 32.6-43.7q-3.6 1-7.2 2c-17.2 17.5-31.4 35.5-42 53.6-2.4 4.1-5.9 10.8-10.4 19.3-18.8 35.7-54.6 103.6-97.8 152zm1378.3-71.7q-4.5-0.2-9-0.6-2.6 4.1-5.1 8.3 4.6 0.2 9.3 0.2 2.4-3.8 4.8-7.9zm12.4 0.4q-4.6 0-9.1-0.2-2.4 3.9-4.8 7.7 4.5 0 8.9-0.2 2.5-3.5 5-7.3zm11.9-0.1q-4.3 0.2-8.6 0.2-2.3 3.6-4.7 7 4.2-0.2 8.3-0.6 2.5-3.2 5-6.6zm11.5-0.6q-3.9 0.3-7.9 0.5-2.3 3.2-4.7 6.3 3.9-0.4 7.7-0.9 2.5-2.9 4.9-5.9zm11.2-1.2q-3.6 0.5-7.2 0.9-2.2 2.8-4.5 5.5 3.5-0.6 6.9-1.3 2.4-2.5 4.8-5.1zm10.5-1.6q-3 0.6-6.1 1.1-2.1 2.3-4.2 4.5 3-0.6 6-1.4 2.2-2 4.3-4.2zm9.9-2q-2.3 0.6-4.8 1-1.7 1.8-3.4 3.5 2.4-0.7 4.7-1.5 1.8-1.4 3.5-3zm8.9-2.3q-1.3 0.4-2.7 0.8-1 0.9-2 1.8 1.3-0.5 2.7-1 1-0.8 2-1.6zm138-90.7q3.9-0.4 7.7-1c9.9-11.4 19.2-24.5 27.9-39.3v-0.1c2.8-4.8 5.8-9.5 8.9-14.2q-4.7 0.8-9.5 1.7c-5.7 7.8-11.1 15.9-16 24.4q-9 15.5-19 28.5zm17.3-60.8q-3.2 0.9-6.5 1.9-1.5 1.5-3.1 3.1 3.3-0.9 6.6-1.8 1.5-1.6 3-3.2zm6.6-6.7q-2.8 0.9-5.6 1.8-1.4 1.3-2.8 2.5 2.9-0.8 5.7-1.6 1.4-1.4 2.7-2.7zm6.8-6.4q-2.4 0.8-4.7 1.6-1.1 1-2.2 1.9 2.3-0.7 4.6-1.4 1.1-1.1 2.3-2.1zm6.7-6q-1.7 0.6-3.4 1.2-0.7 0.6-1.4 1.2 1.6-0.5 3.3-1.1 0.7-0.7 1.5-1.3zm6.7-5.6l-1.7 0.6-0.3 0.3 1.5-0.6zm-1508.1 26l0.2-0.2-1.8 0.8h-0.1zm-7.8 6.4l0.9-0.7-2.9 1.1-0.9 0.7zm1264.5 139.8q-4-0.4-8-0.8-3.1 4.3-6.1 8.7 4.5 0.4 8.9 0.6 2.6-4.3 5.2-8.5zm12.2 0.9q-4.4-0.2-9-0.6-2.6 4.1-5.1 8.4 4.6 0.1 9.3 0.2 2.4-3.9 4.8-8zm12.4 0.5q-4.6-0.1-9.1-0.3-2.4 4-4.8 7.8 4.5-0.1 8.9-0.2 2.5-3.6 5-7.3zm11.9-0.1q-4.3 0.1-8.6 0.1-2.3 3.6-4.7 7.1 4.2-0.3 8.3-0.6 2.5-3.3 5-6.6zm11.6-0.7q-4 0.3-8 0.5-2.3 3.3-4.7 6.4 3.9-0.4 7.7-1 2.5-2.8 5-5.9zm11.1-1.1q-3.6 0.4-7.2 0.8-2.2 2.8-4.5 5.5 3.5-0.6 6.9-1.3 2.4-2.4 4.8-5zm10.5-1.6q-3 0.5-6.1 1-2.1 2.3-4.2 4.6 3-0.7 6-1.5 2.2-2 4.3-4.1zm9.9-2q-2.3 0.5-4.7 1-1.7 1.7-3.5 3.4 2.4-0.7 4.7-1.4 1.8-1.5 3.5-3zm8.9-2.3q-1.3 0.4-2.7 0.7-1 1-2 1.9 1.3-0.6 2.7-1.1 1-0.7 2-1.5zm142.6-137.3q-3.9 0.9-7.9 1.9-1.7 2-3.4 3.9 4-0.9 7.9-1.7c1.1-1.4 2.3-2.7 3.4-4.1zm6.3-7.2q-3.6 0.9-7.3 1.9-1.6 1.7-3.3 3.5 3.7-0.9 7.3-1.8 1.6-1.8 3.3-3.6zm6.4-7q-3.2 0.9-6.5 1.9-1.5 1.5-3.1 3 3.3-0.9 6.6-1.7 1.5-1.6 3-3.2zm6.6-6.8q-2.8 0.9-5.6 1.8-1.4 1.3-2.8 2.6 2.9-0.9 5.7-1.6 1.4-1.4 2.7-2.8zm6.8-6.4q-2.4 0.8-4.7 1.7-1.1 0.9-2.2 1.9 2.3-0.8 4.6-1.5 1.1-1 2.3-2.1zm6.7-6q-1.7 0.6-3.3 1.3-0.8 0.6-1.5 1.1 1.6-0.5 3.3-1 0.7-0.7 1.5-1.4zm6.7-5.6l-1.7 0.7-0.3 0.2 1.5-0.5zm-1508.1 25.9l0.2-0.1-1.8 0.7-0.1 0.1zm-7.8 6.4l0.9-0.8-2.9 1.1-0.9 0.7zm-7.6 6.5l1.5-1.3-3.8 1.4-1.5 1.2zm-141.4 225.7q2.8 0.6 5.6 0.9c43.6-48.1 79.9-117.1 98.9-153 4.5-8.6 8-15.3 10.4-19.4 10-17.1 23.2-34.1 39-50.6q-3.3 0.9-6.6 1.9c-20.4 19.7-37 40.1-49 60.6-2.4 4.1-5.9 10.7-10.4 19.2-17.3 33-49.1 93.3-87.9 140.4zm1402.3-93.6q-3.5-0.5-7-1-3.5 4.5-6.9 9.1 3.9 0.5 7.8 0.8 3-4.5 6.1-8.9zm11.2 1.2q-4-0.3-8-0.8-3.1 4.3-6.1 8.7 4.5 0.4 8.9 0.6 2.6-4.3 5.2-8.5zm12.2 1q-4.4-0.3-9-0.7-2.6 4.1-5.1 8.4 4.6 0.2 9.3 0.2 2.4-3.9 4.8-7.9zm12.4 0.4q-4.6-0.1-9.1-0.3-2.4 4-4.8 7.8 4.5 0 8.9-0.2 2.5-3.6 5-7.3zm11.9-0.1q-4.3 0.1-8.6 0.1-2.3 3.6-4.7 7.1 4.2-0.2 8.3-0.6 2.5-3.2 5-6.6zm11.6-0.6q-4 0.3-8 0.4-2.3 3.3-4.7 6.4 3.9-0.4 7.7-1 2.5-2.8 5-5.8zm11.1-1.2q-3.6 0.5-7.2 0.8-2.2 2.8-4.5 5.5 3.5-0.6 6.9-1.2 2.4-2.5 4.8-5.1zm10.5-1.6q-3 0.6-6.1 1-2.1 2.4-4.2 4.6 3-0.7 6-1.5 2.2-2 4.3-4.1zm9.9-2q-2.3 0.5-4.7 1-1.7 1.7-3.5 3.4 2.4-0.7 4.7-1.4 1.8-1.5 3.5-3zm8.9-2.3q-1.3 0.4-2.7 0.8-1 0.9-2 1.8 1.3-0.5 2.7-1.1 1-0.7 2-1.5zm136.6-129.7q-4.2 0.9-8.5 1.8-1.8 2.1-3.5 4.3 4.3-0.9 8.5-1.7c1.2-1.5 2.3-3 3.5-4.4zm6-7.6q-3.9 1-7.9 2-1.7 1.9-3.5 3.9 4-0.9 8-1.8 1.7-2 3.4-4.1zm6.3-7.2q-3.6 0.9-7.3 1.9-1.7 1.7-3.3 3.5 3.7-0.9 7.3-1.7 1.6-1.9 3.3-3.7zm6.4-7q-3.2 0.9-6.5 1.9-1.5 1.5-3.1 3 3.3-0.9 6.6-1.7 1.5-1.6 3-3.2zm6.6-6.7q-2.8 0.8-5.6 1.8-1.4 1.2-2.8 2.5 2.9-0.8 5.7-1.6 1.4-1.4 2.7-2.7zm6.8-6.4q-2.4 0.8-4.7 1.6-1.1 0.9-2.2 1.9 2.3-0.7 4.6-1.4 1.1-1.1 2.3-2.1zm6.7-6.1q-1.7 0.7-3.3 1.3-0.8 0.6-1.5 1.2 1.6-0.6 3.3-1.1 0.7-0.7 1.5-1.4zm6.7-5.6l-1.7 0.7-0.3 0.2 1.5-0.5zm-1358-56.7q19.8-7.4 40.3-13.8c123-38.6 260.8-49.4 376.7-9.5 92.6 31.9 188.2 80.3 281.5 127.4 130 65.6 255.2 128.9 360.6 141.8q3.4-4.7 7-9.2c-103.3-16.1-224.4-77.2-349.8-140.6-93.2-47-188.8-95.3-281.1-127.1-115.3-39.7-252.4-29-374.9 9.4-20.6 6.5-40.7 13.7-60.3 21.6zm-150.1 82.7l0.3-0.2-1.9 0.7-0.1 0.1zm-7.8 6.4l0.9-0.8-2.9 1.1-0.9 0.7zm-7.6 6.5q0.8-0.6 1.5-1.3l-3.8 1.4-1.5 1.2zm-7.4 6.7l1.9-1.8q-2.3 0.8-4.6 1.6l-2 1.7q2.3-0.8 4.7-1.5zm-7.3 6.8q1.2-1.1 2.3-2.2-2.6 0.8-5.3 1.7l-2.4 2.1q2.7-0.8 5.4-1.6zm-233.8 288q-0.9 0.2-1.9 0.4-1.7 1.4-3.3 2.8 0.8-0.3 1.5-0.6 1.9-1.3 3.7-2.6zm1499.2-170.9q-2.9-0.4-5.7-0.9-4.1 4.5-8 9.3 3.4 0.4 6.7 0.8 3.4-4.7 7-9.2zm10.2 1.5q-3.5-0.4-6.9-1-3.6 4.5-7 9.1 3.9 0.5 7.8 0.8 3-4.5 6.1-8.9zm11.2 1.3q-4-0.4-8-0.9-3.1 4.3-6 8.8 4.4 0.3 8.8 0.5 2.6-4.3 5.2-8.4zm12.2 0.9q-4.4-0.3-9-0.7-2.6 4.2-5.1 8.4 4.6 0.2 9.3 0.2 2.4-3.9 4.8-7.9zm12.4 0.4q-4.6-0.1-9.1-0.3-2.4 4-4.7 7.8 4.4 0 8.8-0.2 2.5-3.6 5-7.3zm11.9-0.1q-4.3 0.2-8.6 0.1-2.3 3.7-4.7 7.1 4.2-0.2 8.3-0.6 2.5-3.2 5-6.6zm11.6-0.6q-4 0.3-8 0.5-2.3 3.2-4.7 6.3 3.9-0.4 7.7-0.9 2.5-2.9 5-5.9zm11.1-1.2q-3.6 0.5-7.2 0.8-2.2 2.9-4.5 5.6 3.5-0.6 6.9-1.3 2.4-2.5 4.8-5.1zm10.5-1.6q-3 0.6-6.1 1-2.1 2.4-4.2 4.6 3-0.7 6-1.4 2.2-2.1 4.3-4.2zm9.9-2q-2.3 0.6-4.7 1-1.7 1.8-3.5 3.5 2.4-0.7 4.7-1.5 1.8-1.5 3.5-3zm9-2.3q-1.4 0.4-2.8 0.8-1 0.9-2 1.8 1.3-0.5 2.7-1.1 1-0.7 2.1-1.5zm130.7-121.9q-4.5 0.8-9 1.7-1.8 2.3-3.6 4.6 4.6-0.8 9.1-1.5c1.2-1.7 2.3-3.2 3.5-4.8zm5.8-7.8q-4.2 0.9-8.5 1.8-1.8 2.2-3.6 4.3 4.4-0.8 8.6-1.6c1.2-1.6 2.3-3 3.5-4.5zm6-7.5q-3.9 0.9-7.9 1.9-1.7 1.9-3.5 3.9 4.1-0.9 8-1.7c1.1-1.4 2.3-2.8 3.4-4.1zm6.3-7.3q-3.6 0.9-7.3 1.9-1.6 1.8-3.3 3.5 3.7-0.9 7.3-1.7 1.6-1.9 3.3-3.7zm6.4-7q-3.2 0.9-6.5 1.9-1.5 1.5-3.1 3 3.3-0.8 6.6-1.7 1.5-1.6 3-3.2zm6.6-6.7q-2.8 0.9-5.6 1.8-1.4 1.2-2.8 2.5 2.9-0.8 5.7-1.6 1.4-1.4 2.7-2.7zm6.8-6.4q-2.4 0.8-4.7 1.6-1.1 0.9-2.2 1.9 2.3-0.7 4.6-1.4 1.1-1.1 2.3-2.1zm6.7-6q-1.7 0.6-3.3 1.2-0.8 0.6-1.5 1.2 1.6-0.6 3.3-1.1 0.7-0.7 1.5-1.3zm6.7-5.7l-1.7 0.7-0.3 0.3 1.5-0.6zm-1358-56.7q19.9-7.4 40.3-13.8c123-38.6 260.8-49.4 376.7-9.4 92.6 31.9 188.2 80.2 281.5 127.3 125.9 63.6 247.4 124.9 350.6 140.4q3.9-4.8 8-9.3c-101.3-18.1-219-77.5-340.8-139.1-93.2-47-188.8-95.3-281.1-127.1-115.3-39.7-252.4-28.9-374.9 9.4-20.6 6.5-40.7 13.7-60.3 21.6zm-150.1 82.7l0.3-0.2-1.9 0.7-0.1 0.1zm-7.8 6.4l0.9-0.8-2.9 1.1-0.9 0.7zm-7.6 6.6q0.8-0.7 1.5-1.4l-3.8 1.4-1.5 1.2zm-7.4 6.7l1.9-1.8q-2.3 0.8-4.6 1.6l-2 1.7q2.3-0.8 4.7-1.5zm-7.3 6.8q1.2-1.1 2.3-2.2-2.6 0.8-5.3 1.7l-2.4 2.1q2.7-0.8 5.4-1.6zm-7 6.9q1.3-1.3 2.6-2.6-1.8 0.6-3.6 1.1l-2.4 0.8q-1.4 1.2-2.7 2.5 3-0.9 6.1-1.8zm-233.9 282.2q-2 0.2-3.9 0.3-2.9 2.9-5.8 5.6 1.9-0.5 3.8-1 3-2.4 5.9-4.9zm7.2-1.1q-1 0.2-2 0.4-1.7 1.4-3.3 2.8 0.8-0.3 1.5-0.6 1.9-1.3 3.8-2.6zm1490.1-172.3q-2.3-0.4-4.5-0.9-4.6 4.6-9 9.3 2.8 0.5 5.5 0.9 3.9-4.8 8-9.3zm9 1.5q-2.8-0.5-5.7-1-4.1 4.5-8 9.3 3.4 0.4 6.7 0.8 3.4-4.6 7-9.1zm10.2 1.4q-3.5-0.4-6.9-0.9-3.6 4.4-7 9 3.9 0.5 7.8 0.8 3-4.5 6.1-8.9zm11.2 1.3q-4-0.4-8-0.9-3.1 4.3-6 8.8 4.4 0.3 8.8 0.6 2.6-4.4 5.2-8.5zm12.3 0.9q-4.5-0.2-9.1-0.6-2.6 4.1-5.1 8.3 4.7 0.2 9.3 0.2 2.4-3.8 4.9-7.9zm12.3 0.4q-4.5 0-9.1-0.3-2.4 4-4.7 7.8 4.4 0 8.8-0.2 2.5-3.5 5-7.3zm11.9-0.1q-4.2 0.2-8.6 0.2-2.3 3.6-4.7 7 4.2-0.2 8.3-0.6 2.5-3.2 5-6.6zm11.6-0.6q-4 0.3-8 0.5-2.3 3.2-4.7 6.3 3.9-0.4 7.7-0.9 2.5-2.9 5-5.9zm11.1-1.2q-3.6 0.5-7.2 0.9-2.2 2.8-4.5 5.5 3.5-0.6 6.9-1.3 2.4-2.5 4.8-5.1zm10.5-1.6q-3 0.6-6.1 1.1-2.1 2.3-4.2 4.5 3-0.6 6-1.4 2.2-2 4.3-4.2zm10-2q-2.4 0.6-4.8 1-1.7 1.8-3.5 3.5 2.4-0.7 4.7-1.5 1.8-1.4 3.6-3zm8.9-2.3q-1.4 0.4-2.8 0.8-1 0.9-2 1.8 1.3-0.5 2.7-1 1-0.8 2.1-1.6zm125.1-113.9q-4.7 0.8-9.5 1.7-1.8 2.4-3.5 4.9 4.8-0.8 9.6-1.5c1.1-1.7 2.3-3.4 3.4-5.1zm5.6-8q-4.5 0.8-9 1.8-1.8 2.2-3.6 4.6 4.6-0.9 9.1-1.6c1.2-1.6 2.3-3.2 3.5-4.8zm5.8-7.8q-4.2 0.9-8.5 1.9-1.8 2.1-3.5 4.2 4.3-0.8 8.5-1.6c1.2-1.5 2.3-3 3.5-4.5zm6-7.5q-3.9 0.9-7.9 1.9-1.7 1.9-3.5 3.9 4.1-0.9 8-1.7c1.1-1.4 2.3-2.8 3.4-4.1zm6.3-7.3q-3.6 1-7.3 1.9-1.6 1.8-3.3 3.5 3.7-0.9 7.3-1.7 1.6-1.9 3.3-3.7zm6.4-7q-3.2 0.9-6.5 1.9-1.5 1.5-3.1 3.1 3.3-0.9 6.6-1.7 1.5-1.7 3-3.3zm6.6-6.7q-2.8 0.9-5.6 1.8-1.4 1.3-2.8 2.5 2.9-0.8 5.7-1.6 1.4-1.4 2.7-2.7zm6.8-6.4q-2.4 0.8-4.7 1.6-1.1 1-2.2 1.9 2.3-0.7 4.6-1.4 1.1-1.1 2.3-2.1zm6.7-6q-1.7 0.6-3.3 1.2-0.8 0.6-1.5 1.2 1.6-0.5 3.3-1.1 0.7-0.7 1.5-1.3zm6.7-5.6l-1.7 0.6-0.3 0.3 1.5-0.6zm-1358-56.7q19.8-7.4 40.3-13.8c123-38.5 260.8-49.3 376.7-9.4 92.6 31.9 188.3 80.2 281.5 127.3 122.3 61.8 240.5 121.4 341.8 139q4.4-4.8 8.9-9.4c-99.5-19.7-214.2-77.6-332.9-137.5-93.2-47.1-188.8-95.4-281.1-127.2-115.2-39.7-252.4-28.9-374.9 9.5-20.6 6.4-40.7 13.6-60.3 21.5zm-150.1 82.7l0.3-0.2-1.9 0.8h-0.1zm-7.8 6.4l0.9-0.8-2.9 1.2-0.9 0.6zm-7.6 6.6l1.5-1.4-3.8 1.4-1.5 1.3zm-7.4 6.6l1.9-1.8q-2.3 0.8-4.6 1.6l-2 1.7q2.3-0.7 4.7-1.5zm-7.3 6.8q1.2-1.1 2.4-2.2-2.7 0.9-5.4 1.7l-2.4 2.2q2.7-0.9 5.4-1.7zm-7 6.9q1.3-1.3 2.6-2.6-1.8 0.6-3.6 1.1l-2.4 0.8q-1.4 1.3-2.7 2.5 3.1-0.9 6.1-1.8zm-6.8 7.1q1.4-1.5 2.8-3-3.3 1-6.6 2-1.5 1.4-2.9 2.8 3.3-0.9 6.7-1.8zm-243.4 275q-2.7-0.4-5.4-1-3.9 4.7-7.8 9.1 2.6 0.1 5.3 0 4-3.9 7.9-8.1zm8.3 0.6q-2.4-0.1-4.9-0.2-3.5 3.8-7 7.4 2.4-0.2 4.8-0.6 3.6-3.2 7.1-6.6zm8-0.5q-1.9 0.3-3.9 0.4-2.9 2.8-5.8 5.5 1.9-0.5 3.8-1 3-2.3 5.9-4.9zm7.2-1.1q-1 0.2-2 0.4-1.6 1.4-3.3 2.8 0.8-0.3 1.5-0.6 1.9-1.3 3.8-2.6zm1482.3-173.8l-3.2-0.6q-5.1 4.5-10 9.2 2.1 0.4 4.2 0.8 4.4-4.8 9-9.4zm7.8 1.5q-2.2-0.4-4.5-0.8-4.6 4.5-9 9.2 2.8 0.5 5.5 0.9 3.9-4.8 8-9.3zm9 1.5q-2.8-0.5-5.7-0.9-4.1 4.5-8 9.2 3.4 0.5 6.7 0.9 3.4-4.7 7-9.2zm10.2 1.4q-3.5-0.4-6.9-0.9-3.6 4.4-7 9 3.9 0.5 7.8 0.9 3-4.6 6.1-9zm11.2 1.3q-4-0.4-8-0.9-3.1 4.3-6 8.8 4.4 0.3 8.9 0.6 2.5-4.3 5.1-8.5zm12.3 0.9q-4.5-0.2-9.1-0.6-2.6 4.1-5.1 8.3 4.7 0.2 9.3 0.2 2.5-3.8 4.9-7.9zm12.3 0.4q-4.5 0-9.1-0.2-2.3 3.9-4.7 7.7 4.4 0 8.8-0.2 2.5-3.5 5-7.3zm11.9 0q-4.2 0.1-8.5 0.1-2.4 3.6-4.8 7 4.2-0.2 8.3-0.6 2.6-3.2 5-6.5zm11.6-0.7q-4 0.3-7.9 0.5-2.4 3.2-4.7 6.4 3.8-0.5 7.6-1 2.5-2.9 5-5.9zm11.1-1.1q-3.6 0.4-7.2 0.8-2.2 2.8-4.5 5.5 3.5-0.6 7-1.3 2.3-2.5 4.7-5zm10.6-1.6q-3.1 0.5-6.2 1-2.1 2.3-4.2 4.6 3-0.7 6-1.5 2.2-2 4.4-4.1zm9.9-2.1q-2.4 0.6-4.8 1.1-1.7 1.7-3.5 3.4 2.4-0.7 4.7-1.5 1.8-1.4 3.6-3zm8.9-2.2q-1.4 0.3-2.8 0.7-1 0.9-2 1.8 1.3-0.5 2.7-1 1-0.8 2.1-1.5zm119.8-105.7q-4.9 0.7-9.9 1.5-1.8 2.6-3.5 5.3 5.1-0.7 10.1-1.3 1.6-2.8 3.3-5.5zm5.3-8.3q-4.7 0.8-9.5 1.7-1.8 2.4-3.5 4.9 4.8-0.7 9.6-1.4c1.1-1.8 2.3-3.5 3.4-5.2zm5.6-8q-4.5 0.8-9 1.8-1.8 2.3-3.6 4.6 4.6-0.8 9.1-1.6 1.7-2.4 3.5-4.8zm5.8-7.8q-4.2 0.9-8.5 1.9-1.8 2.1-3.5 4.2 4.3-0.8 8.5-1.6 1.7-2.3 3.5-4.5zm6-7.5q-3.9 0.9-7.9 1.9-1.7 1.9-3.4 3.9 4-0.9 7.9-1.7 1.7-2.1 3.4-4.1zm6.3-7.3q-3.6 1-7.2 2-1.7 1.7-3.4 3.5 3.7-0.9 7.3-1.8 1.6-1.8 3.3-3.7zm6.4-7q-3.2 1-6.5 1.9-1.5 1.5-3.1 3.1 3.3-0.9 6.6-1.7 1.5-1.7 3-3.3zm6.7-6.7q-2.9 0.9-5.7 1.8-1.4 1.3-2.8 2.5 2.9-0.8 5.7-1.6 1.4-1.3 2.8-2.7zm6.7-6.4q-2.3 0.8-4.7 1.6-1.1 1-2.2 1.9 2.3-0.7 4.6-1.4 1.1-1 2.3-2.1zm6.7-6q-1.7 0.6-3.3 1.2-0.8 0.6-1.5 1.2 1.6-0.5 3.3-1.1 0.7-0.6 1.5-1.3zm6.7-5.6l-1.7 0.6-0.3 0.3 1.6-0.6zm-1358.1-56.7q19.9-7.4 40.3-13.8c123-38.5 260.8-49.3 376.7-9.4 92.6 31.9 188.3 80.2 281.5 127.3 119.2 60.2 234.5 118.5 334.1 137.6q4.9-4.8 10-9.3c-97.9-20.9-210.2-77.6-326.3-136.2-93.2-47.1-188.8-95.4-281.1-127.2-115.2-39.7-252.4-28.9-374.9 9.5-20.6 6.4-40.7 13.6-60.3 21.5zm-150 82.7l0.2-0.2-1.9 0.8h-0.1zm-7.8 6.5l0.9-0.8-2.9 1.1-0.9 0.7zm-7.6 6.5l1.5-1.3-3.8 1.4-1.5 1.2zm-7.4 6.6l2-1.8q-2.4 0.8-4.7 1.6l-2 1.7q2.3-0.7 4.7-1.5zm-7.3 6.8q1.2-1.1 2.4-2.2-2.7 0.9-5.4 1.8-1.2 1-2.4 2.1 2.7-0.9 5.4-1.7zm-7 7q1.3-1.3 2.6-2.7-1.8 0.6-3.6 1.2l-2.4 0.7q-1.4 1.3-2.7 2.5 3.1-0.9 6.1-1.7zm-6.8 7q1.4-1.5 2.8-2.9-3.3 0.9-6.6 1.9-1.5 1.4-2.9 2.9 3.3-1 6.7-1.9zm-6.5 7.3q1.4-1.7 2.9-3.3-3.6 0.9-7.2 2-1.6 1.5-3.1 3.1 3.7-0.9 7.4-1.8zm-253.7 263.2q-2.9-1.2-5.8-2.7-4.3 6-8.7 11.8 2.9 1 5.8 1.7 4.4-5.3 8.7-10.8zm8.4 2.8q-2.8-0.8-5.6-1.8-4.2 5.4-8.4 10.5 2.8 0.6 5.6 0.9 4.3-4.7 8.4-9.6zm8.4 1.7q-2.7-0.4-5.4-1-3.8 4.7-7.8 9.1 2.7 0.2 5.3 0.1 4-4 7.9-8.2zm8.3 0.6q-2.4 0-4.9-0.2-3.5 3.8-7 7.4 2.4-0.2 4.8-0.6 3.6-3.2 7.1-6.6zm8-0.4q-1.9 0.2-3.9 0.3-2.9 2.8-5.8 5.5 1.9-0.4 3.8-1 3-2.3 5.9-4.8zm7.2-1.2q-1 0.2-2 0.4-1.6 1.4-3.3 2.8 0.8-0.3 1.5-0.6 1.9-1.3 3.8-2.6zm266-288.2q-1.7 2.1-3.3 4.1c101.7-21.1 208.2-21.5 300.7 10.3 92.6 31.9 188.2 80.2 281.5 127.3 185 93.5 360.5 182.1 482.6 127.4-121.7 38-289-46.5-464.8-135.3-93.2-47.1-188.8-95.3-281.1-127.2-97-33.4-209.4-31-315.6-6.6zm-0.8-23.6l-1.5 1.2 3.8-1.3m1208.2 136.8q-0.9-0.2-1.7-0.4-5.7 4.4-11.2 9.1 1.4 0.3 2.9 0.6 4.9-4.8 10-9.3zm6.6 1.3l-3.1-0.6q-5.2 4.5-10.1 9.2 2.1 0.4 4.2 0.8 4.4-4.8 9-9.4zm7.8 1.5q-2.2-0.4-4.5-0.8-4.6 4.5-9 9.3 2.8 0.4 5.6 0.8 3.8-4.8 7.9-9.3zm9 1.5q-2.8-0.4-5.7-0.9-4.1 4.5-8 9.2 3.4 0.5 6.7 0.9 3.5-4.7 7-9.2zm10.2 1.4q-3.5-0.4-6.9-0.9-3.6 4.4-7 9.1 3.9 0.4 7.8 0.8 3-4.6 6.1-9zm11.2 1.3q-4-0.4-8-0.9-3.1 4.4-6 8.8 4.4 0.4 8.9 0.6 2.5-4.3 5.1-8.5zm12.3 0.9q-4.5-0.2-9.1-0.6-2.6 4.1-5.1 8.3 4.7 0.2 9.3 0.3 2.5-3.9 4.9-8zm12.3 0.4q-4.5 0-9.1-0.2-2.3 4-4.7 7.8 4.4-0.1 8.8-0.3 2.5-3.5 5-7.3zm11.9 0q-4.2 0.1-8.5 0.1-2.4 3.6-4.8 7.1 4.2-0.3 8.3-0.7 2.6-3.2 5-6.5zm11.6-0.7q-4 0.3-7.9 0.5-2.4 3.3-4.7 6.4 3.8-0.4 7.6-1 2.5-2.9 5-5.9zm11.1-1.1q-3.6 0.4-7.2 0.8-2.2 2.8-4.5 5.5 3.5-0.6 7-1.3 2.4-2.4 4.7-5zm10.6-1.6q-3.1 0.5-6.2 1-2.1 2.3-4.2 4.6 3-0.7 6-1.5 2.2-2 4.4-4.1zm9.9-2q-2.4 0.5-4.8 1-1.7 1.7-3.4 3.4 2.3-0.7 4.6-1.4 1.8-1.5 3.6-3zm8.9-2.3q-1.4 0.4-2.8 0.7-1 0.9-2 1.8 1.4-0.5 2.7-1 1-0.8 2.1-1.5zm114.6-97.2q-5 0.7-10.2 1.4c-1.2 1.9-2.3 3.7-3.4 5.6q5.1-0.6 10.1-1.1c1.2-1.9 2.4-3.9 3.5-5.9zm5.2-8.5q-4.9 0.7-9.9 1.6-1.8 2.6-3.5 5.2 5.1-0.7 10.1-1.3 1.6-2.8 3.3-5.5zm5.3-8.3q-4.7 0.8-9.5 1.7-1.8 2.5-3.5 5 4.8-0.8 9.6-1.5c1.1-1.8 2.3-3.5 3.4-5.2zm5.6-8q-4.5 0.9-9 1.8-1.8 2.3-3.6 4.6 4.6-0.8 9.1-1.6c1.2-1.6 2.3-3.2 3.5-4.8zm5.8-7.8q-4.2 0.9-8.5 1.9-1.8 2.1-3.5 4.3 4.3-0.9 8.6-1.7 1.7-2.3 3.4-4.5zm6-7.5q-3.9 0.9-7.8 1.9-1.8 2-3.5 3.9 4-0.9 7.9-1.7 1.7-2.1 3.4-4.1zm6.3-7.3q-3.6 1-7.2 2-1.7 1.7-3.4 3.5 3.7-0.9 7.3-1.8 1.6-1.8 3.3-3.7zm6.4-7q-3.2 1-6.4 1.9-1.6 1.6-3.2 3.1 3.3-0.9 6.6-1.7 1.5-1.7 3-3.3zm6.7-6.7q-2.9 0.9-5.7 1.8c-0.9 0.9-1.8 1.7-2.8 2.5q2.9-0.8 5.7-1.6 1.4-1.3 2.8-2.7zm6.7-6.4q-2.3 0.8-4.7 1.6c-0.7 0.7-1.4 1.3-2.2 2q2.3-0.8 4.6-1.5 1.1-1 2.3-2.1zm6.7-6q-1.7 0.6-3.3 1.3-0.8 0.5-1.5 1.1 1.6-0.5 3.3-1.1 0.8-0.6 1.5-1.3zm6.7-5.6l-1.7 0.7-0.3 0.2 1.6-0.6zm-1358.1-56.7q19.9-7.3 40.3-13.8c123.1-38.5 260.9-49.3 376.7-9.4 92.6 31.9 188.3 80.2 281.5 127.3 116.7 59 229.7 116 327.8 136.4q5.5-4.8 11.1-9.2c-96.7-21.8-207.1-77.5-321.1-135.1-93.2-47.1-188.8-95.4-281.1-127.2-115.2-39.7-252.4-28.9-374.9 9.5-20.6 6.4-40.7 13.7-60.3 21.5zm-160.8 112q-1.6 1.9-3.3 3.8c105.7-23.8 217.2-25.7 313.6 7.5 92.6 31.9 188.2 80.2 281.5 127.3 181.4 91.7 353.6 178.6 475.3 130.5q1.1-0.8 2.1-1.6c-121.2 34.1-286.3-49.2-459.6-136.8-93.2-47.1-188.8-95.4-281.1-127.2-100.9-34.7-218.5-30.8-328.5-3.5zm2.9-22.9l1-0.8-2.9 1.1-0.9 0.7zm-15.1 13.2l2-1.8q-2.3 0.8-4.6 1.6l-2 1.7q2.3-0.7 4.6-1.5zm-7.2 6.8q1.1-1.1 2.3-2.2-2.7 0.9-5.4 1.8-1.2 1-2.3 2.1 2.7-0.9 5.4-1.7zm-7 6.9q1.3-1.3 2.6-2.6-1.8 0.6-3.6 1.1l-2.5 0.8q-1.3 1.3-2.6 2.5 3-0.9 6.1-1.8zm-6.8 7.1q1.4-1.5 2.8-2.9-3.4 0.9-6.7 1.9-1.4 1.4-2.9 2.9 3.4-1 6.8-1.9zm-6.6 7.3q1.5-1.7 3-3.3-3.7 0.9-7.3 2-1.5 1.5-3 3.1 3.6-0.9 7.3-1.8zm-6.3 7.4q1.5-1.9 3-3.7-3.9 1-7.7 2-1.7 1.8-3.2 3.5 3.9-0.9 7.9-1.8zm-272 240.1q-2.9-2.6-5.9-5.6-4.6 7.7-9.5 15.5 3 2.5 6 4.6 4.8-7.3 9.4-14.5zm8.1 6.4q-2.9-2.1-5.9-4.6-4.5 7.2-9.3 14.3 3 2 6 3.7 4.7-6.7 9.2-13.4zm8.3 5.2q-3-1.6-5.9-3.6-4.5 6.6-9.1 13.1 3 1.5 5.9 2.7 4.6-6 9.1-12.2zm8.3 4.1q-2.9-1.2-5.8-2.7-4.3 6-8.8 11.8 2.9 1 5.9 1.7 4.4-5.3 8.7-10.8zm8.3 2.8q-2.8-0.8-5.6-1.8-4.1 5.4-8.4 10.5 2.9 0.6 5.7 0.8 4.2-4.6 8.3-9.5zm8.4 1.7q-2.6-0.4-5.3-1-3.9 4.7-7.9 9.1 2.7 0.1 5.4 0 3.9-3.9 7.8-8.1zm8.3 0.6q-2.4 0-4.8-0.2-3.5 3.8-7.1 7.4 2.4-0.2 4.8-0.6 3.6-3.2 7.1-6.6zm8.1-0.4q-2 0.2-4 0.3-2.8 2.8-5.7 5.5 1.8-0.4 3.7-1 3-2.3 6-4.8zm7.1-1.2q-1 0.2-2 0.4-1.6 1.4-3.2 2.8 0.7-0.3 1.5-0.6 1.8-1.3 3.7-2.6zm1470.5-176.3h-0.1q-6.3 4.3-12.4 8.9l1.4 0.3q5.4-4.7 11.1-9.2zm5.2 1.2q-0.8-0.2-1.6-0.4-5.7 4.4-11.2 9.1 1.4 0.3 2.8 0.6 4.9-4.8 10-9.3zm6.6 1.3l-3.1-0.6q-5.1 4.5-10.1 9.2 2.1 0.4 4.3 0.8 4.3-4.8 8.9-9.4zm7.8 1.5q-2.2-0.4-4.4-0.8-4.6 4.5-9 9.2 2.7 0.5 5.5 0.9 3.9-4.8 7.9-9.3zm9.1 1.5q-2.9-0.5-5.8-0.9-4 4.5-7.9 9.2 3.3 0.5 6.7 0.9 3.4-4.7 7-9.2zm10.1 1.4q-3.4-0.4-6.9-0.9-3.6 4.4-7 9.1 4 0.4 7.9 0.8 2.9-4.6 6-9zm11.3 1.3q-4-0.4-8.1-0.9-3 4.3-6 8.8 4.5 0.4 8.9 0.6 2.5-4.3 5.2-8.5zm12.2 0.9q-4.5-0.2-9-0.6-2.7 4.1-5.2 8.3 4.7 0.2 9.3 0.3 2.5-3.9 4.9-8zm12.3 0.4q-4.5 0-9.1-0.2-2.3 3.9-4.7 7.7 4.5 0 8.9-0.2 2.5-3.5 4.9-7.3zm12 0q-4.3 0.1-8.6 0.1-2.3 3.6-4.7 7.1 4.2-0.3 8.3-0.7 2.5-3.2 5-6.5zm11.5-0.7q-3.9 0.3-7.9 0.5-2.3 3.3-4.7 6.4 3.9-0.4 7.7-1 2.5-2.9 4.9-5.9zm11.1-1.1q-3.5 0.4-7.1 0.8-2.3 2.8-4.5 5.5 3.5-0.6 6.9-1.3 2.4-2.4 4.7-5zm10.6-1.6q-3.1 0.5-6.2 1-2 2.3-4.1 4.6 3-0.7 6-1.5 2.1-2 4.3-4.1zm9.9-2q-2.4 0.5-4.8 1-1.7 1.7-3.4 3.4 2.3-0.7 4.6-1.5 1.8-1.4 3.6-2.9zm8.9-2.3q-1.4 0.3-2.7 0.7-1.1 0.9-2.1 1.8 1.4-0.5 2.7-1 1.1-0.8 2.1-1.5zm109.2-88.3q-4.9 0.5-10 1.2-1.8 3-3.6 5.9 4.8-0.5 9.5-0.9c1.4-2 2.7-4.1 4.1-6.2zm5.5-8.9q-5.1 0.7-10.3 1.4c-1.1 1.9-2.3 3.7-3.4 5.6q5.2-0.6 10.2-1.1c1.2-1.9 2.3-3.9 3.5-5.9zm5.2-8.5q-5 0.7-10 1.5-1.8 2.6-3.5 5.3 5.1-0.7 10.1-1.3 1.7-2.8 3.4-5.5zm5.3-8.3q-4.7 0.8-9.5 1.7-1.8 2.4-3.6 4.9 4.9-0.7 9.7-1.4c1.1-1.8 2.2-3.5 3.4-5.2zm5.5-8q-4.4 0.8-9 1.8-1.8 2.3-3.5 4.6 4.6-0.8 9.1-1.6 1.7-2.4 3.4-4.8zm5.8-7.8q-4.2 0.9-8.4 1.9-1.8 2.1-3.6 4.3 4.3-0.9 8.6-1.7 1.7-2.3 3.4-4.5zm6.1-7.5q-4 0.9-7.9 1.9-1.8 1.9-3.5 3.9 4-0.9 8-1.7 1.7-2.1 3.4-4.1zm6.2-7.3q-3.6 1-7.2 2-1.7 1.7-3.3 3.5 3.6-0.9 7.3-1.8 1.6-1.8 3.2-3.7zm6.5-7q-3.3 1-6.5 1.9-1.6 1.5-3.1 3.1 3.3-0.9 6.5-1.7 1.5-1.7 3.1-3.3zm6.6-6.7q-2.8 0.9-5.6 1.8-1.4 1.3-2.8 2.5 2.8-0.8 5.7-1.6 1.3-1.3 2.7-2.7zm6.7-6.4q-2.3 0.8-4.6 1.6c-0.8 0.7-1.5 1.3-2.3 1.9q2.4-0.7 4.7-1.4 1.1-1 2.2-2.1zm6.8-6q-1.7 0.6-3.4 1.2-0.7 0.6-1.5 1.2 1.7-0.5 3.3-1.1 0.8-0.6 1.6-1.3zm6.6-5.6l-1.6 0.7-0.4 0.2 1.6-0.6zm-1358-56.7q19.8-7.4 40.3-13.8c123-38.5 260.8-49.3 376.7-9.4 92.6 31.9 188.2 80.2 281.5 127.3 114.7 58 225.8 114.1 322.7 135.3q6.1-4.7 12.3-9c-95.8-22.4-204.8-77.4-317.2-134.2-93.2-47.1-188.8-95.4-281.1-127.2-115.3-39.7-252.5-28.9-375 9.5-20.5 6.4-40.7 13.6-60.2 21.5zm-173.4 115.2q-1.6 1.7-3.2 3.5c109.2-26.5 225.8-29.9 326 4.6 92.6 31.9 188.3 80.2 281.5 127.3 176.3 89.1 344 173.7 465 134.2q1.8-1.4 3.6-3c-120.4 27.8-281.6-53.7-450.8-139.1-93.2-47.1-188.8-95.4-281.1-127.2-104.7-36.1-227.5-30.4-341-0.3zm13.7-14q-1.4 1.4-2.9 2.8c116.1-32 242.6-38.7 350.2-1.6 92.6 31.9 188.3 80.2 281.5 127.3 166.1 83.9 324.5 163.8 443.4 139.8q2.4-2.4 4.8-5c-117.9 15.1-270.6-62-430.4-142.7-93.2-47.1-188.8-95.4-281.1-127.2-112.3-38.7-245.4-29.4-365.5 6.6zm-7 6.9q-1.5 1.6-3 3.2c112.7-29.3 234.3-34.3 338.2 1.5 92.6 31.9 188.3 80.3 281.5 127.3 171.2 86.5 334.3 168.9 454.4 137.4q2.2-2 4.3-4.1c-119.2 21.3-276.3-58-440.9-141.2-93.2-47-188.8-95.3-281.1-127.1-108.5-37.4-236.5-30-353.4 3zm-6.3-5.8l2-1.8q-2.3 0.8-4.6 1.6l-2 1.7q2.3-0.8 4.6-1.5zm-7.2 6.8q1.1-1.1 2.3-2.2-2.7 0.8-5.4 1.7-1.2 1.1-2.3 2.2 2.7-0.9 5.4-1.7zm-7 6.9q1.2-1.3 2.6-2.6-1.8 0.6-3.6 1.1l-2.5 0.8q-1.3 1.2-2.6 2.5 3-0.9 6.1-1.8zm-6.8 7.1q1.4-1.5 2.8-3-3.4 1-6.7 2-1.4 1.4-2.9 2.8 3.4-0.9 6.8-1.8zm-6.6 7.2q1.5-1.6 3-3.3-3.7 1-7.3 2-1.5 1.6-3 3.2 3.6-0.9 7.3-1.9zm-6.3 7.4q1.5-1.8 3-3.6-3.9 1-7.7 2-1.7 1.8-3.2 3.5 3.9-0.9 7.9-1.9zm-6.1 7.6q1.6-2 3.1-3.9-4.1 0.9-8.3 2-1.6 1.9-3.2 3.8 4.2-1 8.4-1.9zm-281.7 215.9q-2.9-3.6-5.9-7.5c-3 5.6-6.3 11.6-9.8 17.8q2.9 3.5 5.9 6.7c3.4-5.8 6.7-11.5 9.8-17zm7.8 9q-2.9-3.1-5.9-6.6-4.6 8.1-9.6 16.7 2.9 3 5.9 5.6 5-7.9 9.6-15.7zm8 7.6q-2.9-2.6-5.9-5.5-4.6 7.7-9.5 15.5 3 2.5 6 4.6 4.8-7.3 9.4-14.6zm8.1 6.5q-2.9-2.1-5.9-4.6-4.5 7.2-9.3 14.3 3 2 6 3.7 4.7-6.7 9.2-13.4zm8.3 5.2q-3-1.6-5.9-3.6-4.5 6.6-9.1 13.1 3 1.5 5.9 2.7 4.6-6 9.1-12.2zm8.3 4q-2.9-1.2-5.8-2.6-4.3 6-8.8 11.8 2.9 1 5.8 1.7 4.5-5.3 8.8-10.9zm8.3 2.9q-2.8-0.8-5.6-1.8-4.1 5.3-8.4 10.5 2.9 0.5 5.7 0.8 4.2-4.6 8.3-9.5zm8.4 1.7q-2.7-0.4-5.3-1-3.9 4.7-7.9 9.1 2.7 0.1 5.4 0 3.9-3.9 7.8-8.1zm8.3 0.6q-2.4-0.1-4.8-0.3-3.5 3.9-7.1 7.5 2.4-0.2 4.8-0.6 3.6-3.2 7.1-6.6zm8.1-0.5q-2 0.2-4 0.4-2.8 2.8-5.8 5.5 1.9-0.5 3.8-1 3-2.4 6-4.9zm7.1-1.1q-1 0.2-2 0.4-1.6 1.4-3.2 2.8 0.7-0.3 1.5-0.6 1.8-1.3 3.7-2.6zm1470.5-176.3h-0.1q-6.3 4.3-12.4 8.9l1.4 0.3q5.4-4.8 11.1-9.2zm5.2 1.1q-0.8-0.1-1.6-0.3-5.7 4.4-11.2 9.1 1.4 0.3 2.8 0.6 4.9-4.8 10-9.4zm6.6 1.4l-3.1-0.6q-5.1 4.4-10.1 9.2 2.1 0.4 4.2 0.8 4.4-4.8 9-9.4zm7.8 1.5q-2.2-0.4-4.5-0.8-4.5 4.5-8.9 9.2 2.7 0.5 5.5 0.9 3.9-4.8 7.9-9.3zm9.1 1.5q-2.9-0.5-5.8-1-4 4.6-7.9 9.3 3.3 0.5 6.7 0.9 3.4-4.7 7-9.2zm10.1 1.4q-3.4-0.4-6.9-0.9-3.6 4.4-7 9 4 0.5 7.9 0.8 2.9-4.5 6-8.9zm11.3 1.3q-4-0.4-8.1-0.9-3 4.3-6 8.8 4.5 0.3 8.9 0.6 2.5-4.4 5.2-8.5zm12.2 0.9q-4.5-0.2-9-0.6-2.7 4.1-5.2 8.3 4.7 0.2 9.3 0.2 2.5-3.8 4.9-7.9zm12.3 0.4q-4.5 0-9.1-0.2-2.3 3.9-4.7 7.7 4.5 0 8.9-0.2 2.5-3.5 4.9-7.3zm12-0.1q-4.3 0.2-8.6 0.2-2.3 3.6-4.7 7 4.2-0.2 8.3-0.6 2.5-3.2 5-6.6zm11.5-0.6q-3.9 0.3-7.9 0.5-2.3 3.2-4.7 6.3 3.9-0.4 7.7-0.9 2.5-2.9 4.9-5.9zm11.1-1.2q-3.5 0.5-7.1 0.9-2.3 2.8-4.5 5.5 3.5-0.6 6.9-1.3 2.4-2.5 4.7-5.1zm10.6-1.5q-3.1 0.5-6.2 1-2 2.3-4.1 4.6 3-0.7 6-1.5 2.1-2 4.3-4.1zm9.9-2.1q-2.4 0.6-4.8 1.1-1.7 1.7-3.4 3.4 2.3-0.7 4.6-1.5 1.8-1.4 3.6-3zm8.9-2.3q-1.4 0.4-2.7 0.8-1.1 0.9-2.1 1.8 1.4-0.5 2.7-1 1.1-0.8 2.1-1.6zm103-79q-4.6 0.4-9.3 0.9-2 3.2-4 6.2 4.3-0.3 8.6-0.6 2.3-3.2 4.7-6.5zm6.2-9.2q-5 0.5-10 1.1-1.8 3-3.6 6 4.8-0.5 9.5-0.9c1.4-2 2.7-4.1 4.1-6.2zm5.5-8.9q-5.1 0.7-10.3 1.4c-1.1 1.8-2.3 3.7-3.4 5.6q5.2-0.6 10.2-1.1c1.1-1.9 2.3-3.9 3.5-5.9zm5.2-8.5q-5 0.7-10 1.5-1.8 2.6-3.5 5.3 5.1-0.7 10.1-1.3 1.7-2.8 3.4-5.5zm5.3-8.3q-4.7 0.8-9.5 1.7-1.8 2.4-3.6 4.9 4.9-0.7 9.7-1.4c1.1-1.8 2.2-3.5 3.4-5.2zm5.5-8q-4.4 0.8-9 1.8-1.8 2.2-3.5 4.6 4.6-0.8 9.1-1.6c1.1-1.6 2.3-3.2 3.4-4.8zm5.8-7.8q-4.2 0.9-8.4 1.9-1.8 2.1-3.6 4.2 4.3-0.8 8.6-1.6 1.7-2.3 3.4-4.5zm6.1-7.5q-4 0.9-7.9 1.9-1.8 1.9-3.5 3.9 4-0.9 8-1.7 1.7-2.1 3.4-4.1zm6.2-7.3q-3.6 1-7.2 2-1.7 1.7-3.3 3.4 3.6-0.9 7.3-1.7 1.6-1.9 3.2-3.7zm6.5-7q-3.3 0.9-6.5 1.9-1.6 1.5-3.1 3.1 3.3-0.9 6.5-1.7 1.5-1.7 3.1-3.3zm6.6-6.7q-2.8 0.9-5.6 1.8c-1 0.8-1.9 1.7-2.8 2.5q2.8-0.8 5.7-1.6 1.3-1.4 2.7-2.7zm6.7-6.4q-2.3 0.8-4.6 1.6c-0.8 0.6-1.5 1.3-2.3 1.9q2.4-0.7 4.7-1.4 1.1-1.1 2.2-2.1zm6.8-6q-1.7 0.6-3.4 1.2-0.7 0.6-1.5 1.2 1.7-0.5 3.3-1.1 0.8-0.7 1.6-1.3zm6.6-5.6l-1.6 0.6-0.4 0.3 1.6-0.6zm-1358-56.7q19.8-7.4 40.3-13.8c123-38.5 260.8-49.3 376.7-9.4 92.6 31.9 188.2 80.2 281.4 127.3 113.4 57.2 223.2 112.7 319.3 134.5q6.7-4.6 13.6-8.8c-95.3-22.7-203.4-77.3-315-133.6-93.2-47.1-188.8-95.4-281.2-127.2-115.2-39.7-252.4-28.9-374.9 9.5-20.5 6.4-40.7 13.6-60.2 21.5zm1271.9 163.4q-4.1 0.3-8.3 0.7c-12.2 17.6-25.4 32.1-39.6 44 17.3-11.2 33.3-26 47.9-44.7zm104.8-116.8l0.4-0.3-1.6 0.6-0.4 0.3zm-7.7 6.6q0.7-0.7 1.5-1.4-1.7 0.6-3.4 1.3-0.7 0.6-1.4 1.1 1.6-0.5 3.3-1zm-7.5 6.7q1.1-1 2.2-2.1-2.3 0.8-4.6 1.7-1.1 0.9-2.2 1.9 2.3-0.8 4.6-1.5zm-7.2 7.1q1.4-1.4 2.7-2.8-2.8 0.9-5.6 1.8-1.4 1.3-2.8 2.6 2.9-0.9 5.7-1.6zm-6.9 7.2q1.5-1.6 3-3.2-3.2 0.9-6.5 1.9-1.5 1.5-3.1 3 3.3-0.9 6.6-1.7zm-6.7 7.4q1.6-1.8 3.3-3.6-3.6 0.9-7.3 1.9-1.7 1.7-3.3 3.5 3.6-0.9 7.3-1.8zm-6.4 7.7q1.7-2 3.4-4.1-3.9 1-7.9 1.9-1.7 2-3.5 3.9 4-0.9 8-1.7zm-6.1 7.9q1.7-2.2 3.5-4.5-4.3 0.9-8.5 1.9-1.8 2.1-3.6 4.3 4.4-0.9 8.6-1.7zm-5.8 8.1c1.1-1.6 2.3-3.2 3.5-4.8q-4.5 0.9-9 1.8-1.9 2.3-3.6 4.6 4.6-0.8 9.1-1.6zm-5.5 8.4c1.1-1.7 2.2-3.4 3.4-5.2q-4.7 0.8-9.5 1.7-1.8 2.5-3.5 5 4.8-0.8 9.6-1.5zm-5.2 8.6q1.6-2.8 3.3-5.5-4.9 0.7-10 1.6-1.7 2.6-3.5 5.2 5.2-0.7 10.2-1.3zm-5.4 8.9c1.2-1.9 2.3-3.9 3.5-5.8q-5.1 0.6-10.3 1.4c-1.1 1.8-2.2 3.7-3.3 5.5q5.1-0.6 10.1-1.1zm-6 9.2c1.3-2 2.7-4.1 4-6.2q-4.9 0.6-10 1.2-1.8 3-3.6 5.9 4.9-0.5 9.6-0.9zm-6.9 9.5q2.4-3.2 4.7-6.5-4.5 0.4-9.2 0.9-2.1 3.2-4.1 6.3 4.3-0.4 8.6-0.7zm-7.8 9.8c1.8-2.3 3.7-4.5 5.5-6.8q-4.1 0.3-8.4 0.7c-1.5 2.2-3 4.4-4.6 6.5q3.8-0.2 7.5-0.4zm-42.5 37.9c14.2-9.2 27.6-20.8 40-35q-3.6 0.3-7.3 0.5c-10.2 13.4-21.2 24.9-32.7 34.5zm-33.6 17q1.3-0.5 2.7-1.1c17.3-12.5 33.2-28.7 47.7-49.1q-4.6 0.4-9.3 0.9c-12.5 19.7-26.3 36.1-41.1 49.3zm-12.4 4.2q2.3-0.7 4.7-1.5c16.4-13.4 31.5-30.5 45.2-51.6q-5 0.5-10.1 1.1c-12 20.7-25.3 37.9-39.8 52zm-12 3.1q3-0.7 6-1.4c15.4-14.2 29.5-31.8 42.2-53.2q-5 0.6-10.2 1.3-2.5 3.9-4.8 7.9c-10.2 17.6-21.3 32.6-33.2 45.4zm-11.9 2.3q3.5-0.5 6.9-1.2c12.9-13.3 24.8-29.2 35.7-47.9 1.2-2 2.4-4 3.6-5.9q-4.9 0.7-10 1.5-5.3 7.9-10.2 16.3c-8.1 13.9-16.8 26.3-26 37.2zm-1.2-52.1q-3.6 1-7.3 2-1.6 1.7-3.3 3.4 3.7-0.9 7.3-1.7 1.6-1.8 3.3-3.7zm-12.7 3.5q-3.2 0.9-6.5 1.9-1.5 1.5-3.1 3 3.3-0.9 6.6-1.7 1.5-1.6 3-3.2zm-12.5 3.8q-2.8 0.8-5.6 1.8-1.4 1.2-2.8 2.4 2.9-0.8 5.7-1.6 1.3-1.3 2.7-2.6zm-18.1 2.9l-1.6 0.6-0.4 0.3 1.6-0.6zm-6.7 5.6q-1.7 0.6-3.3 1.3-0.7 0.5-1.5 1.1 1.7-0.6 3.3-1.1zm-31.4 36.2q3.4 0.5 6.7 0.9c9.3-12.7 19.5-24.4 30.3-35.1q-2.8 0.9-5.6 1.8c-11.2 9.9-21.7 20.6-31.4 32.4zm19-31.3q-0.8 0.3-1.7 0.6l-0.2 0.2 1.5-0.5zm-27.7 29.9q2.7 0.5 5.5 0.9c8.7-10.7 18-20.5 27.9-29.6q-2.3 0.8-4.7 1.6c-10.1 8.3-19.7 17.4-28.7 27.1zm-7.6-1.3q2.1 0.4 4.2 0.8c7.7-8.5 15.9-16.4 24.4-23.7q-1.7 0.6-3.4 1.2c-8.7 6.8-17.2 14-25.2 21.7zm-6.2-1.2q1.4 0.3 2.8 0.6 9.4-9.2 19.5-17.5-0.8 0.4-1.7 0.7-10.6 7.6-20.6 16.2zm-4.9-1l1.4 0.3q5.9-5.1 12-9.9-6.8 4.6-13.4 9.6zm-1227.3-121l-2.3 2.1c122.1-37.7 258.4-48 373.2-8.4 92.6 31.9 188.3 80.2 281.5 127.3 155.6 78.6 304.5 153.8 420.5 143.2q2.5-3.2 5-6.6c-114.5 3.6-258-68.9-407.7-144.5-93.2-47.1-188.8-95.4-281.1-127.2-115.2-39.7-252.4-28.9-374.9 9.5q-7.1 2.2-14.2 4.6zm6.3-9.1l0.9-0.8-2.9 1.1-0.9 0.7zm-7.6 6.5l1.5-1.3-3.8 1.4-1.5 1.2zm-7.5 6.7l2-1.8q-2.3 0.8-4.6 1.6l-2 1.7q2.3-0.8 4.6-1.5zm-7.2 6.8q1.2-1.1 2.3-2.3-2.7 0.9-5.3 1.8-1.2 1.1-2.4 2.1 2.7-0.8 5.4-1.6zm-7 6.9q1.3-1.3 2.6-2.6-1.8 0.5-3.6 1.1l-2.4 0.8q-1.4 1.2-2.7 2.5 3-0.9 6.1-1.8zm-6.8 7.1q1.4-1.5 2.8-3-3.3 1-6.7 2-1.4 1.4-2.9 2.8 3.4-0.9 6.8-1.8zm-17.3 24.7q-1.7 2.2-3.3 4.4c97.8-18.4 199.1-17.6 287.6 12.9 92.6 31.9 188.2 80.3 281.5 127.3 185 93.5 360.6 182.1 482.6 127.4-121.7 38-289-46.5-464.8-135.3-93.2-47-188.8-95.3-281.1-127.1-93-32.1-200.2-31.2-302.5-9.6zm4.4-10.1q1.5-1.8 3.1-3.6-3.9 1-7.8 2-1.6 1.7-3.2 3.5 3.9-1 7.9-1.9zm-6 7.6q1.5-2 3.1-4-4.2 1-8.3 2-1.7 1.9-3.3 3.8 4.2-0.9 8.5-1.8zm-5.8 7.7q1.5-2.1 3.1-4.2-4.4 0.9-8.8 1.9-1.7 2.1-3.3 4.1 4.5-0.9 9-1.8zm-231 239.2q3 1 5.9 1.7c38.9-47 71.1-107.9 88.5-141 4.5-8.6 8-15.3 10.4-19.4 11.4-19.4 26.8-38.6 45.6-57.3q-1.8 0.5-3.6 1.1l-2.4 0.8c-23.7 21.8-42.8 44.4-56.2 67.3-2.4 4.1-5.9 10.8-10.4 19.3-15.8 30-43.6 82.7-77.8 127.5zm127.6-215.3l0.3-0.2-1.9 0.7-0.1 0.1zm-136.3 211.7q3 1.4 5.9 2.6c34.2-44.7 62.2-97.7 78-127.8 4.5-8.6 8.1-15.3 10.5-19.4 12.6-21.6 30.4-43.1 52.3-63.9q-2.7 0.9-5.3 1.8c-27.2 23.8-48.9 48.8-63.7 74-2.4 4.1-5.9 10.8-10.4 19.3-14.1 26.9-37.9 72-67.3 113.4zm141.5-210.6l-3.8 1.4m0 0l-1.6 1.3 3.8-1.3m11.7-3.8l2-1.8q-2.3 0.8-4.6 1.6l-2 1.7q2.3-0.8 4.6-1.5zm-160.1 208q3 2 6 3.6c29.3-41.2 53.2-86.5 67.3-113.3 4.5-8.6 8.1-15.3 10.5-19.4 13.9-23.9 34.1-47.6 59.2-70.3q-2.3 0.8-4.6 1.6c-30.7 25.8-55.2 53.1-71.3 80.6-2.4 4.1-5.9 10.8-10.4 19.3-12.4 23.5-32.2 61.1-56.7 97.9zm137-200.3l0.9-0.8-2.9 1.1-0.9 0.7zm-11.3 4.1l0.2-0.2-1.8 0.7-0.1 0.1zm-134 190q3 2.5 6 4.6c24.4-36.6 44.1-74.1 56.5-97.6 4.5-8.6 8-15.3 10.5-19.4 15.2-26.1 37.9-51.9 66.2-76.4l-3.8 1.4c-34.4 27.6-61.6 57.1-79.1 86.9-2.4 4.1-5.9 10.8-10.4 19.3-10.5 20-26.4 50.1-45.9 81.2zm-8.1-7.5q2.9 3 5.9 5.6c19.4-30.9 35.1-60.8 45.6-80.6 4.5-8.6 8-15.3 10.4-19.4 16.6-28.2 41.7-56.2 73.3-82.5l-2.9 1.1c-38.1 29.4-68.2 61.2-87 93.3-2.4 4.1-5.9 10.7-10.4 19.2-8.5 16.1-20.4 38.8-34.9 63.3zm-8-8.8q2.9 3.5 5.9 6.6c14.3-24.1 26.1-46.5 34.5-62.4 4.5-8.6 8-15.3 10.4-19.4 17.8-30.2 45.5-60.2 80.4-88.2l-1.8 0.7c-42 31.1-75.1 65.1-95.2 99.4-2.4 4.1-5.9 10.8-10.4 19.3-6.2 11.8-14.2 27.1-23.8 44zm-7.8-10.1q2.9 4.1 5.9 7.7c9.3-16.5 17.1-31.4 23.2-42.9 4.5-8.6 8-15.3 10.4-19.4 18.9-32.3 49.2-64.2 87.4-93.8l-0.5 0.3c-45.9 32.6-82.1 68.8-103.5 105.4-2.4 4.1-5.9 10.8-10.4 19.3-3.6 6.7-7.8 14.7-12.5 23.4zm-7.6-11.2q2.9 4.5 5.8 8.6c4.4-8.2 8.4-15.7 11.8-22.1 4.5-8.6 8-15.3 10.4-19.4 19.3-33 50.5-65.6 89.9-95.7-47.4 33.2-84.6 70.2-106.5 107.5-2.4 4.2-5.9 10.8-10.4 19.3zm-7.1-11.8q2.7 4.7 5.3 9l0.2-0.3c4.5-8.5 8-15.3 10.4-19.4 19.4-32.9 50.5-65.6 90-95.6-46.9 32.8-83.9 69.3-105.9 106.3zm-5.3-10q1.8 3.6 3.7 7.1c19.5-32.1 50-63.8 88.4-93-38.2 26.8-69.8 56-92.1 85.9zm-4.1-8.1q1.3 2.7 2.6 5.2c18.9-25 44.3-49.5 74.5-72.5-30.3 21.2-56.4 43.9-77.1 67.3zm-3-6.5q0.8 1.9 1.7 3.7c16.5-18.6 36.5-36.7 59.2-54.1-22.8 16.1-43.4 33-60.9 50.4zm-2.4-5.2q0.6 1.3 1.1 2.5c12.9-12.7 27.4-25.2 43.2-37.2-16 11.2-30.8 22.8-44.3 34.7zm-1.8-4.1l0.6 1.4q12.4-10.9 26.3-21.5-14.1 9.9-26.9 20.1zm13.4 33.8q-2-3.6-4-7.4-6.5 8.9-11.9 17.9 2.7 4.7 5.3 9.1l0.2-0.3c4.5-8.5 8-15.2 10.4-19.3zm7 12q-2.7-4.4-5.4-9.1c-2.3 4.1-5.5 10.2-9.5 17.7l-0.9 1.8q2.8 4.5 5.7 8.6c3.7-6.9 7.1-13.3 10.1-19zm7.5 11.3q-2.8-4.1-5.7-8.6c-3 5.7-6.4 12.1-10.1 18.9q2.9 4.1 5.9 7.7c3.5-6.3 6.8-12.3 9.9-18zm7.7 10.1q-2.9-3.6-5.8-7.5c-3.1 5.6-6.4 11.6-9.9 17.8q3 3.5 5.9 6.6 5.2-8.6 9.8-16.9zm7.9 8.9q-3-3-5.9-6.5-4.6 8.1-9.7 16.7 3 3 6 5.6 4.9-8 9.6-15.8zm8 7.7q-3-2.6-6-5.5-4.6 7.6-9.5 15.5 3 2.5 6 4.6 4.9-7.3 9.5-14.6zm8.1 6.5q-3-2.1-6-4.6-4.5 7.2-9.2 14.3 2.9 2 5.9 3.7 4.7-6.7 9.3-13.4zm8.2 5.2q-3-1.6-5.9-3.6-4.4 6.6-9 13.1 2.9 1.5 5.9 2.7 4.6-6 9-12.2zm8.3 4q-2.9-1.2-5.8-2.7-4.3 6-8.8 11.9 3 1 5.9 1.7 4.4-5.3 8.7-10.9zm8.4 2.9q-2.8-0.8-5.7-1.8-4.1 5.3-8.3 10.5 2.8 0.5 5.6 0.8 4.2-4.6 8.4-9.5zm8.4 1.7q-2.7-0.4-5.4-1-3.9 4.7-7.8 9.1 2.6 0.1 5.3 0 4-3.9 7.9-8.1zm8.3 0.5q-2.5 0-4.9-0.2-3.5 3.9-7.1 7.5 2.5-0.2 4.9-0.6 3.5-3.2 7.1-6.7zm8-0.4q-2 0.2-3.9 0.3-2.9 2.9-5.8 5.6 1.9-0.5 3.8-1 2.9-2.4 5.9-4.9zm7.1-1.1q-0.9 0.2-1.9 0.4-1.7 1.4-3.3 2.8 0.8-0.3 1.5-0.6 1.9-1.3 3.7-2.6zm213.4-266.8q1.5-1.6 3-3.3-3.6 1-7.2 2-1.6 1.6-3.1 3.2 3.7-1 7.3-1.9zm-1.6-15.1l-3.8 1.4m17.7-13l0.2-0.1-1.8 0.7-0.1 0.1zm19.1-10.5l0.2-0.2-1.8 0.8h-0.1zm1058.5 296.9q-1.4 0.3-2.8 0.7-1 1-2.1 1.9 1.4-0.6 2.8-1.1 1.1-0.8 2.1-1.5zm-1066.4-290.5l1-0.7-2.9 1.1-0.9 0.7zm1076.6 282.2q-2.4 0.5-4.9 1-1.7 1.7-3.4 3.4 2.3-0.7 4.7-1.4 1.8-1.5 3.6-3zm-1056.1-290.2l-2 1.7q3.8-1.2 7.7-2.4c123-38.6 260.8-49.4 376.7-9.5 92.6 31.9 188.2 80.2 281.5 127.3 150.3 76 294.4 148.7 408.6 144q2.5-3.6 4.9-7.3c-112.4-1.5-251.2-71.6-395.7-144.6-93.2-47.1-188.8-95.4-281.1-127.2-115.3-39.7-252.4-28.9-375 9.5q-12.9 4.1-25.6 8.5zm6.4-8.9l0.2-0.2-1.8 0.7-0.1 0.1zm1.4 2.6l-1.6 1.2q9.2-3.1 18.5-6.1c123.1-38.5 260.9-49.3 376.8-9.4 92.6 31.9 188.2 80.2 281.4 127.3 145.1 73.3 284.2 143.5 396.4 144.2q2.5-3.9 4.9-7.9c-110.2-6.2-244.1-73.9-383.5-144.2-93.1-47.1-188.7-95.4-281.1-127.2-115.2-39.7-252.4-28.9-374.9 9.5q-18.7 5.9-36.9 12.6zm7.9-6.3l-0.9 0.7q14.4-5.1 29.1-9.7c123-38.6 260.8-49.4 376.7-9.5 92.6 31.9 188.2 80.2 281.4 127.3 139.7 70.6 274 138.4 383.9 143.9q2.5-4.4 5.2-8.5c-107.8-10.3-237-75.5-371.2-143.3-93.2-47.1-188.8-95.3-281.2-127.2-115.2-39.7-252.4-28.9-374.9 9.5-16.3 5.1-32.4 10.7-48.1 16.8zm8.2-6.2l-0.1 0.1q19.3-7.2 39.2-13.4c123-38.6 260.8-49.4 376.7-9.4 92.6 31.9 188.2 80.2 281.5 127.3 134.5 67.9 264.1 133.4 371.7 143q2.9-4.6 6-9c-105.4-13.4-230.4-76.5-359.9-142-93.2-47-188.8-95.3-281.1-127.1-115.3-39.7-252.4-28.9-375 9.5-20.1 6.3-39.8 13.3-59 21zm1182.3 146.4c-95.1-22.7-203-77.2-314.3-133.5-93.2-47-188.8-95.3-281.2-127.1-115.2-39.7-252.4-29-374.9 9.4-20.5 6.5-40.7 13.7-60.2 21.6q19.8-7.4 40.3-13.8c123-38.6 260.8-49.4 376.7-9.5 92.6 32 188.2 80.3 281.4 127.4 112.6 56.8 221.7 111.9 317.3 134q7.4-4.4 14.9-8.5zm6.8 1.6h-0.1q-6.3 4.3-12.4 8.9l1.4 0.3q5.4-4.7 11.1-9.2zm5.2 1.2q-0.8-0.2-1.7-0.4-5.6 4.4-11.1 9.1 1.4 0.3 2.8 0.6 4.9-4.8 10-9.3zm6.6 1.3l-3.1-0.6q-5.2 4.5-10.1 9.2 2.1 0.4 4.2 0.8 4.4-4.8 9-9.4zm7.8 1.5q-2.2-0.4-4.5-0.8-4.6 4.5-8.9 9.2 2.7 0.5 5.5 0.9 3.9-4.8 7.9-9.3zm9 1.5q-2.8-0.5-5.7-0.9-4.1 4.5-8 9.2 3.4 0.5 6.8 0.9 3.4-4.7 6.9-9.2zm10.2 1.4q-3.4-0.4-6.9-0.9-3.6 4.4-7 9.1 4 0.4 7.8 0.8 3-4.6 6.1-9zm11.3 1.3q-4-0.4-8.1-0.9-3.1 4.3-6 8.8 4.5 0.4 8.9 0.6 2.5-4.3 5.2-8.5zm12.2 0.9q-4.5-0.2-9-0.6-2.7 4.1-5.2 8.3 4.7 0.2 9.3 0.2 2.5-3.8 4.9-7.9zm12.3 0.4q-4.5 0-9.1-0.2-2.3 3.9-4.7 7.7 4.5 0 8.9-0.2 2.5-3.5 4.9-7.3zm11.9 0q-4.2 0.1-8.5 0.1-2.3 3.6-4.7 7 4.1-0.2 8.3-0.6 2.5-3.2 4.9-6.5zm11.6-0.7q-3.9 0.3-7.9 0.5-2.3 3.3-4.7 6.4 3.8-0.5 7.7-1 2.5-2.9 4.9-5.9zm11.1-1.1q-3.5 0.4-7.1 0.8-2.3 2.8-4.5 5.5 3.4-0.6 6.9-1.3 2.4-2.5 4.7-5zm10.6-1.6q-3.1 0.5-6.2 1-2 2.3-4.1 4.6 3-0.7 5.9-1.5 2.2-2 4.4-4.1zm9.9-2q-2.4 0.5-4.8 1-1.7 1.7-3.4 3.4 2.3-0.7 4.6-1.4 1.8-1.5 3.6-3zm8.9-2.3q-1.4 0.3-2.8 0.7-1 0.9-2 1.8 1.4-0.5 2.7-1 1.1-0.8 2.1-1.5zm-1379.8-116.5q0.8-0.6 1.6-1.3l-3.9 1.4-1.5 1.2z"/>
			<path id="&lt;Compound Path&gt;" fill-rule="evenodd" class="s0" d="m1920.4 11.2q-8.2 5.1-16.8 9.1-9.2 5.8-18.8 10.3-9.2 5.8-18.8 10.3-9.2 5.8-18.9 10.3-9.1 5.8-18.8 10.3-9.1 5.8-18.8 10.3-9.2 5.8-18.8 10.3-9.2 5.8-18.8 10.3-9.2 5.8-18.8 10.3-9.2 5.8-18.8 10.3-9.2 5.8-18.8 10.3-9.2 5.8-18.9 10.3-9.1 5.8-18.8 10.3-9.1 5.8-18.8 10.3-9.2 5.8-18.8 10.4-9.3 5.8-19 10.3c-121.6 76.4-305-16.1-499-114.1-40.6-20.5-81.6-41.3-122.6-60.7h6.5c39.3 18.7 78.6 38.5 117.4 58.2 182.2 92 355 179.2 475.1 125.4-119.8 37.3-284.5-45.8-457.6-133.2-33.5-17-67.3-34-101.1-50.4h6.4c32.1 15.6 64.2 31.8 96 47.9 182.2 92 355 179.2 475.1 125.4-119.8 37.3-284.5-45.8-457.5-133.2-26.6-13.4-53.3-26.9-80.1-40.1h6.3c25.1 12.4 50.2 25 75 37.6 178.6 90.2 348.2 175.8 468 128.4q1-0.8 2.1-1.5c-119.4 33.5-281.9-48.5-452.5-134.7-19.7-10-39.5-20-59.3-29.8h6.3c18.1 9 36.2 18.2 54.3 27.3 173.5 87.6 338.6 171 457.7 132.1q1.8-1.5 3.5-3c-118.5 27.3-277.2-52.8-443.7-136.9q-19.3-9.8-38.7-19.5h6.3q16.9 8.5 33.7 17c168.5 85.1 329 166.1 447.2 135.2q2.2-2 4.3-4.1c-117.4 21-272-57.1-434-138.9l-18.2-9.2h6.2l13.3 6.7c163.4 82.5 319.4 161.3 436.5 137.6q2.3-2.4 4.6-4.9c-115.5 14.7-264.9-60.4-421.4-139.4h6.2c155.8 78.6 304.2 152.5 418.2 136q2.5-2.8 4.9-5.8c-108.8 8.5-245.9-57.6-390.1-130.2h6.3c143.1 72 279 136.8 386.3 127q2.5-3.2 4.9-6.5c-101.6 3.2-226.5-54.6-358.2-120.5h6.3c130.4 65.2 254 121.6 354.1 117.5q2.5-3.5 4.9-7.2c-94-1.3-206.7-51.3-325.8-110.3h6.3c117.7 58.2 228.9 106.9 321.4 107.4q2.4-3.8 4.8-7.8c-85.9-4.8-186.5-47.6-292.8-99.6h6.4c104.7 51 203.7 92.5 288.1 96.7q2.5-4.2 5.1-8.3c-77.4-7.4-166-43.5-259.5-88.4h6.5c91.9 43.9 178.9 78.8 254.7 85.6q3-4.5 6-8.8c-68.6-8.7-145.6-38.8-226.7-76.8h6.6c79.6 36.9 154.9 65.9 222 74.2q3.4-4.7 6.9-9.1c-59.6-9.3-125.3-33.8-194.3-65.1h6.8c67.4 30.2 131.4 53.8 189.6 62.5q3.9-4.7 7.8-9.2c-50.4-9-105.1-28.5-162.3-53.3h7.1c55.6 23.8 108.5 42.3 157.5 50.8q4.3-4.7 8.8-9.2c-41-8.2-84.7-22.9-130.2-41.6h7.4c43.8 17.7 85.8 31.5 125.3 39.1q4.8-4.7 9.9-9.1c-31.3-6.7-64-17.1-97.9-30h8c32 11.9 63 21.4 92.6 27.6q5.4-4.7 10.9-9.1c-20.8-4.7-42.3-11-64.3-18.5h8.9c20 6.6 39.4 12.1 58.4 16.2q5.9-4.6 12.1-8.8-13.9-3.3-28.2-7.4h10.7q10.5 2.8 20.7 5.1 3.9-2.6 7.8-5.1h8.5q-4.7 3.2-9.2 6.7l1.3 0.3q4.1-3.6 8.4-7h4.4q-4.7 3.7-9.3 7.7 1.4 0.3 2.8 0.5 4.3-4.2 8.8-8.2h4.2q-4.9 4.3-9.7 8.8 2.1 0.4 4.2 0.8 4.3-4.7 8.8-9.2l-2-0.4h16q2.4 0.3 4.7 0.7l0.6-0.7h3.6l-1 1.2q3.3 0.4 6.6 0.8 0.8-1 1.5-2h3.6q-1 1.2-1.9 2.4 3.9 0.5 7.7 0.8 1.1-1.6 2.2-3.2h3.4q-1.2 1.7-2.4 3.5 4.4 0.3 8.8 0.5 1.2-2 2.4-4h3.3q-1.3 2.1-2.5 4.2 4.6 0.2 9.1 0.2 1.4-2.2 2.8-4.4h3.3q-1.4 2.2-2.7 4.4 4.3-0.1 8.7-0.2 1.4-2.1 2.9-4.2h3.4q-1.4 2-2.8 4 4.1-0.2 8.2-0.6 1.3-1.7 2.6-3.4h3.5q-1.1 1.5-2.2 3 3.8-0.4 7.5-0.9 0.9-1.1 1.8-2.1h3.7l-1.2 1.4q3.5-0.6 6.9-1.3l0.1-0.1h2.8v2.5l-1.7 0.4q-1.6 1.7-3.3 3.4 2.3-0.7 4.5-1.5l0.5-0.4zm-260.3 135q-2.4 0.5-4.8 1-1.6 1.7-3.3 3.4 2.3-0.7 4.6-1.4 1.7-1.5 3.5-3zm8.7-2.2q-1.3 0.3-2.7 0.7-1 0.9-2 1.8 1.4-0.5 2.7-1 1-0.8 2-1.5zm0.3-6.1q-3 0.5-6.1 1-2 2.3-4 4.5 2.9-0.7 5.9-1.4 2.1-2 4.2-4.1zm9.8-2q-2.3 0.5-4.7 1-1.7 1.7-3.4 3.4 2.3-0.7 4.6-1.4 1.8-1.5 3.5-3zm8.8-2.2q-1.4 0.3-2.8 0.7-0.9 0.9-1.9 1.8 1.3-0.5 2.6-1 1-0.8 2.1-1.5zm-10.1-4.5q-3.6 0.4-7.1 0.8-2.2 2.7-4.4 5.4 3.4-0.6 6.8-1.3 2.3-2.4 4.7-4.9zm10.4-1.6q-3.1 0.5-6.1 1-2 2.3-4.1 4.5 3-0.7 5.9-1.4 2.1-2 4.3-4.1zm9.7-2q-2.3 0.5-4.7 1-1.7 1.7-3.4 3.4 2.3-0.7 4.6-1.4 1.8-1.5 3.5-3zm8.8-2.2q-1.4 0.3-2.7 0.7-1 0.9-2 1.8 1.3-0.5 2.6-1 1.1-0.8 2.1-1.5zm-21.1-3.4q-3.9 0.3-7.8 0.5-2.3 3.2-4.6 6.2 3.8-0.4 7.6-0.9 2.4-2.8 4.8-5.8zm11-1.1q-3.5 0.4-7.1 0.8-2.2 2.7-4.4 5.4 3.4-0.6 6.8-1.3 2.4-2.4 4.7-4.9zm10.4-1.6q-3 0.5-6.1 1-2 2.3-4.1 4.5 3-0.7 5.9-1.4 2.2-2 4.3-4.1zm9.7-2q-2.3 0.5-4.7 1-1.7 1.7-3.4 3.4 2.3-0.7 4.6-1.4 1.8-1.5 3.5-3zm8.8-2.2q-1.4 0.3-2.7 0.7-1 0.9-2 1.8 1.3-0.5 2.6-1.1 1.1-0.7 2.1-1.4zm-32.4-2.8q-4.2 0.2-8.5 0.2-2.3 3.5-4.6 6.9 4.1-0.2 8.2-0.6 2.4-3.2 4.9-6.5zm11.3-0.6q-3.8 0.3-7.8 0.5-2.2 3.2-4.6 6.2 3.8-0.4 7.6-0.9 2.4-2.8 4.8-5.8zm11-1.1q-3.5 0.4-7.1 0.8-2.2 2.7-4.4 5.4 3.4-0.6 6.8-1.3 2.4-2.4 4.7-4.9zm10.4-1.6q-3 0.5-6.1 1-2 2.3-4.1 4.5 3-0.7 5.9-1.4 2.2-2 4.3-4.1zm9.7-2q-2.3 0.5-4.7 1-1.7 1.7-3.3 3.4 2.2-0.7 4.5-1.4 1.8-1.5 3.5-3zm8.8-2.2q-1.4 0.3-2.7 0.7-1 0.9-2 1.8 1.3-0.5 2.7-1.1 1-0.7 2-1.4zm-44.2-2.7q-4.4-0.1-8.9-0.3-2.3 4-4.7 7.7 4.4 0 8.7-0.2 2.5-3.5 4.9-7.2zm11.8-0.1q-4.2 0.2-8.4 0.2-2.3 3.5-4.7 6.9 4.1-0.2 8.2-0.6 2.5-3.2 4.9-6.5zm11.4-0.6q-3.9 0.3-7.8 0.5-2.3 3.2-4.7 6.2 3.8-0.4 7.6-0.9 2.4-2.8 4.9-5.8zm10.9-1.1q-3.5 0.4-7.1 0.8-2.1 2.7-4.4 5.4 3.4-0.6 6.8-1.3 2.4-2.4 4.7-4.9zm10.4-1.6q-3 0.5-6.1 1-2 2.3-4.1 4.5 3-0.7 5.9-1.4 2.2-2 4.3-4.1zm9.7-2q-2.3 0.5-4.7 1-1.6 1.7-3.3 3.4 2.3-0.7 4.5-1.4 1.8-1.5 3.5-3zm8.8-2.2q-1.3 0.3-2.7 0.7-1 0.9-2 1.8 1.3-0.5 2.7-1.1 1-0.7 2-1.4zm-56.3-3.1q-4.4-0.2-8.9-0.6-2.6 4-5 8.2 4.6 0.2 9.1 0.2 2.4-3.8 4.8-7.8zm12.1 0.4q-4.4-0.1-8.9-0.3-2.3 4-4.7 7.7 4.4 0 8.8-0.2 2.4-3.5 4.8-7.2zm11.8-0.1q-4.2 0.2-8.4 0.2-2.3 3.5-4.7 6.9 4.1-0.2 8.2-0.6 2.5-3.2 4.9-6.5zm11.4-0.6q-3.9 0.3-7.8 0.5-2.3 3.2-4.7 6.2 3.8-0.4 7.6-0.9 2.5-2.8 4.9-5.8zm10.9-1.1q-3.5 0.4-7 0.8-2.2 2.7-4.5 5.4 3.5-0.6 6.8-1.3 2.4-2.4 4.7-4.9zm10.4-1.6q-3 0.5-6.1 1-2 2.3-4 4.5 2.9-0.7 5.8-1.4 2.2-2 4.3-4.1zm9.8-2q-2.4 0.5-4.8 1-1.6 1.7-3.3 3.4 2.3-0.7 4.5-1.4 1.8-1.5 3.6-3zm8.7-2.3q-1.3 0.4-2.7 0.8-1 0.9-2 1.8 1.4-0.5 2.7-1.1 1-0.7 2-1.5zm-68.3-3.9q-3.9-0.4-7.9-0.9-3.1 4.3-6 8.7 4.4 0.3 8.8 0.5 2.5-4.2 5.1-8.3zm12 0.9q-4.4-0.2-8.9-0.6-2.6 4-5 8.2 4.6 0.2 9.1 0.2 2.5-3.8 4.8-7.8zm12.2 0.4q-4.5-0.1-9-0.3-2.3 3.9-4.6 7.7 4.3 0 8.7-0.2 2.4-3.5 4.9-7.2zm11.7-0.1q-4.2 0.2-8.4 0.2-2.3 3.5-4.7 6.9 4.1-0.2 8.2-0.6 2.5-3.2 4.9-6.5zm11.4-0.6q-3.9 0.3-7.8 0.5-2.3 3.2-4.6 6.2 3.8-0.4 7.5-0.9 2.5-2.8 4.9-5.8zm10.9-1.1q-3.5 0.4-7 0.8-2.2 2.7-4.5 5.4 3.5-0.6 6.9-1.3 2.3-2.4 4.6-4.9zm10.4-1.6q-3 0.5-6.1 1-2 2.3-4 4.5 2.9-0.7 5.8-1.4 2.2-2 4.3-4.1zm9.8-2q-2.4 0.5-4.7 1-1.7 1.7-3.4 3.4 2.3-0.7 4.6-1.4 1.7-1.5 3.5-3zm8.7-2.3q-1.3 0.4-2.7 0.8-1 0.9-2 1.8 1.4-0.5 2.7-1.1 1-0.7 2-1.5zm-79.4-5.2q-3.4-0.4-6.8-0.9-3.5 4.4-6.9 8.9 3.9 0.5 7.8 0.8 2.9-4.5 5.9-8.8zm11.1 1.3q-3.9-0.4-7.9-0.9-3.1 4.3-5.9 8.7 4.4 0.3 8.7 0.5 2.5-4.2 5.1-8.3zm12 0.9q-4.4-0.2-8.9-0.6-2.5 4-5 8.2 4.6 0.2 9.1 0.2 2.5-3.8 4.8-7.8zm12.2 0.4q-4.5-0.1-9-0.3-2.3 3.9-4.6 7.7 4.4 0 8.7-0.2 2.5-3.5 4.9-7.2zm11.7-0.1q-4.2 0.2-8.4 0.1-2.3 3.6-4.7 7 4.2-0.2 8.2-0.6 2.5-3.2 4.9-6.5zm11.4-0.6q-3.9 0.3-7.8 0.5-2.3 3.2-4.6 6.2 3.8-0.4 7.5-0.9 2.5-2.8 4.9-5.8zm10.9-1.1q-3.5 0.4-7 0.8-2.2 2.7-4.4 5.4 3.4-0.6 6.8-1.3 2.3-2.4 4.6-4.9zm10.4-1.6q-3 0.5-6 1-2.1 2.3-4.1 4.5 2.9-0.7 5.9-1.4 2.1-2 4.2-4.1zm9.8-2q-2.4 0.5-4.7 1-1.7 1.7-3.4 3.4 2.3-0.7 4.6-1.4 1.7-1.5 3.5-3zm8.7-2.3q-1.3 0.4-2.7 0.8-1 0.9-2 1.8 1.4-0.5 2.7-1.1 1-0.7 2-1.5zm-89.4-6.6q-2.8-0.4-5.6-0.9-4 4.4-7.9 9.1 3.4 0.5 6.7 0.9 3.3-4.7 6.8-9.1zm10 1.4q-3.3-0.4-6.8-0.9-3.5 4.4-6.8 8.9 3.8 0.5 7.7 0.8 2.9-4.5 5.9-8.8zm11.1 1.3q-3.9-0.4-7.9-0.9-3 4.3-5.9 8.7 4.4 0.3 8.7 0.5 2.5-4.2 5.1-8.3zm12.1 0.9q-4.5-0.3-8.9-0.6-2.6 4-5.1 8.2 4.6 0.2 9.2 0.2 2.4-3.8 4.8-7.8zm12.1 0.4q-4.5-0.1-9-0.3-2.3 3.9-4.6 7.7 4.4 0 8.7-0.2 2.5-3.5 4.9-7.2zm11.7-0.1q-4.2 0.2-8.4 0.1-2.3 3.6-4.7 7 4.2-0.2 8.2-0.6 2.5-3.2 4.9-6.5zm11.4-0.6q-3.9 0.3-7.8 0.5-2.3 3.2-4.6 6.2 3.8-0.4 7.5-0.9 2.5-2.8 4.9-5.8zm10.9-1.1q-3.5 0.4-7 0.8-2.2 2.7-4.4 5.4 3.4-0.6 6.8-1.3 2.3-2.4 4.6-4.9zm10.5-1.6q-3.1 0.5-6.1 1-2.1 2.3-4.1 4.5 2.9-0.7 5.9-1.4 2.1-2 4.3-4.1zm9.7-2q-2.3 0.5-4.7 1-1.7 1.7-3.4 3.4 2.3-0.7 4.6-1.4 1.7-1.5 3.5-3zm8.8-2.3q-1.4 0.4-2.8 0.8-0.9 0.9-1.9 1.8 1.3-0.5 2.6-1.1 1-0.7 2.1-1.5zm-98.3-8.1q-2.3-0.4-4.5-0.8-4.5 4.5-8.8 9.2 2.7 0.4 5.4 0.8 3.9-4.7 7.9-9.2zm8.9 1.5q-2.9-0.4-5.7-0.9-4 4.4-7.8 9.1 3.3 0.5 6.6 0.9 3.3-4.7 6.9-9.1zm10 1.4q-3.4-0.4-6.9-0.9-3.5 4.4-6.8 8.9 3.8 0.5 7.7 0.8 2.9-4.5 6-8.8zm11 1.3q-3.9-0.4-7.9-0.9-3 4.3-5.9 8.7 4.4 0.3 8.7 0.5 2.5-4.2 5.1-8.3zm12.1 0.9q-4.5-0.3-8.9-0.6-2.6 4-5.1 8.2 4.6 0.2 9.2 0.2 2.4-3.8 4.8-7.8zm12.1 0.4q-4.5-0.1-9-0.3-2.3 3.9-4.6 7.7 4.4 0 8.7-0.2 2.5-3.5 4.9-7.2zm11.7-0.1q-4.1 0.2-8.4 0.1-2.3 3.6-4.6 7 4.1-0.2 8.1-0.6 2.5-3.2 4.9-6.5zm11.4-0.6q-3.9 0.3-7.8 0.5-2.3 3.2-4.6 6.2 3.8-0.4 7.5-0.9 2.5-2.8 4.9-5.8zm11-1.1q-3.5 0.4-7.1 0.7-2.2 2.8-4.4 5.5 3.4-0.6 6.8-1.3 2.3-2.4 4.7-4.9zm10.4-1.6q-3.1 0.5-6.1 1-2 2.3-4.1 4.5 3-0.7 5.9-1.4 2.1-2 4.3-4.1zm9.7-2q-2.3 0.5-4.7 1-1.7 1.7-3.4 3.4 2.3-0.7 4.6-1.5 1.8-1.4 3.5-2.9zm8.8-2.3q-1.4 0.4-2.7 0.8-1 0.9-2 1.8 1.3-0.5 2.6-1.1 1.1-0.7 2.1-1.5zm-106-9.5l-3.1-0.6q-5.1 4.4-9.9 9 2.1 0.4 4.1 0.8 4.4-4.7 8.9-9.2zm7.7 1.4q-2.2-0.4-4.4-0.8-4.5 4.5-8.9 9.2 2.7 0.4 5.5 0.8 3.8-4.7 7.8-9.2zm8.9 1.5q-2.9-0.4-5.7-0.9-4 4.4-7.8 9.1 3.3 0.5 6.6 0.8 3.3-4.6 6.9-9zm10 1.4q-3.4-0.4-6.8-0.9-3.6 4.4-6.9 8.9 3.9 0.5 7.7 0.8 2.9-4.5 6-8.8zm11 1.3q-3.9-0.4-7.9-0.9-3 4.3-5.9 8.7 4.4 0.3 8.7 0.5 2.5-4.2 5.1-8.3zm12.1 0.9q-4.4-0.3-8.9-0.6-2.6 4-5.1 8.2 4.6 0.2 9.2 0.2 2.4-3.8 4.8-7.8zm12.1 0.4q-4.4-0.1-8.9-0.3-2.3 3.9-4.7 7.7 4.4 0 8.7-0.2 2.5-3.5 4.9-7.2zm11.7-0.1q-4.1 0.2-8.4 0.1-2.3 3.6-4.6 7 4.1-0.2 8.2-0.6 2.4-3.2 4.8-6.5zm11.4-0.6q-3.8 0.3-7.8 0.5-2.3 3.2-4.6 6.2 3.8-0.4 7.6-0.9 2.4-2.8 4.8-5.8zm11-1.1q-3.5 0.4-7.1 0.7-2.2 2.8-4.4 5.5 3.4-0.6 6.8-1.3 2.4-2.4 4.7-4.9zm10.4-1.6q-3 0.5-6.1 1-2 2.3-4.1 4.5 3-0.7 5.9-1.5 2.2-1.9 4.3-4zm9.7-2q-2.3 0.5-4.7 1-1.7 1.7-3.4 3.4 2.3-0.7 4.6-1.5 1.8-1.4 3.5-2.9zm8.8-2.3q-1.4 0.4-2.7 0.8-1 0.9-2 1.8 1.3-0.5 2.6-1.1 1.1-0.7 2.1-1.5zm-112.5-10.8q-0.8-0.2-1.7-0.4-5.6 4.3-11 9 1.4 0.3 2.8 0.5 4.9-4.7 9.9-9.1zm6.5 1.3l-3.1-0.6q-5 4.4-9.9 9 2.1 0.4 4.2 0.8 4.3-4.7 8.8-9.2zm7.7 1.4q-2.2-0.4-4.4-0.8-4.5 4.5-8.9 9.2 2.8 0.4 5.5 0.8 3.8-4.7 7.8-9.2zm8.9 1.5q-2.8-0.4-5.7-0.9-4 4.4-7.8 9.1 3.3 0.4 6.6 0.8 3.4-4.6 6.9-9zm10 1.4q-3.4-0.4-6.8-0.9-3.5 4.4-6.9 8.9 3.9 0.5 7.7 0.8 2.9-4.5 6-8.8zm11 1.3q-3.9-0.4-7.9-0.9-3 4.3-5.9 8.7 4.4 0.3 8.8 0.5 2.4-4.2 5-8.3zm12.1 0.9q-4.4-0.3-8.9-0.6-2.6 4-5.1 8.2 4.6 0.2 9.2 0.2 2.4-3.8 4.8-7.8zm12.1 0.4q-4.4-0.1-8.9-0.3-2.3 3.9-4.7 7.7 4.4 0 8.7-0.2 2.5-3.5 4.9-7.2zm11.8-0.1q-4.2 0.2-8.5 0.1-2.3 3.6-4.6 7 4.1-0.2 8.2-0.6 2.4-3.2 4.9-6.5zm11.3-0.6q-3.8 0.3-7.8 0.5-2.2 3.2-4.6 6.2 3.8-0.4 7.6-0.9 2.4-2.8 4.8-5.8zm11-1.1q-3.5 0.4-7.1 0.7-2.2 2.8-4.4 5.5 3.4-0.6 6.8-1.3 2.4-2.4 4.7-4.9zm10.4-1.6q-3 0.5-6.1 1-2 2.3-4.1 4.5 3-0.7 5.9-1.5 2.2-1.9 4.3-4zm9.7-2q-2.3 0.5-4.7 1-1.7 1.7-3.3 3.4 2.2-0.7 4.5-1.5 1.8-1.4 3.5-2.9zm8.8-2.3q-1.4 0.4-2.7 0.8-1 0.9-2 1.8 1.3-0.5 2.7-1.1 1-0.7 2-1.5zm-117.6-12h-0.2q-6.2 4.2-12.2 8.8l1.4 0.3q5.4-4.7 11-9.1zm5.1 1.2q-0.8-0.2-1.6-0.4-5.6 4.3-11 9 1.4 0.3 2.7 0.5 4.9-4.7 9.9-9.1zm6.5 1.3l-3.1-0.6q-5 4.4-9.9 9 2.1 0.4 4.2 0.8 4.3-4.7 8.8-9.2zm7.7 1.4q-2.2-0.4-4.4-0.8-4.5 4.5-8.9 9.2 2.8 0.4 5.5 0.8 3.8-4.7 7.8-9.2zm8.9 1.5q-2.8-0.4-5.7-0.9-4 4.4-7.8 9.1 3.3 0.4 6.6 0.8 3.4-4.6 6.9-9zm10 1.4q-3.4-0.4-6.8-0.9-3.5 4.4-6.9 8.9 3.9 0.5 7.7 0.8 2.9-4.5 6-8.8zm11.1 1.3q-4-0.4-8-0.9-3 4.3-5.9 8.7 4.4 0.3 8.8 0.5 2.4-4.2 5.1-8.3zm12 0.9q-4.4-0.3-8.9-0.6-2.6 4-5.1 8.2 4.7 0.2 9.2 0.2 2.4-3.8 4.8-7.8zm12.1 0.4q-4.4-0.1-8.9-0.3-2.3 3.9-4.7 7.7 4.4 0 8.7-0.2 2.5-3.5 4.9-7.2zm11.8-0.1q-4.2 0.2-8.4 0.1-2.3 3.6-4.7 7 4.1-0.2 8.2-0.6 2.5-3.2 4.9-6.5zm11.3-0.6q-3.8 0.3-7.7 0.5-2.3 3.2-4.7 6.2 3.8-0.4 7.6-0.9 2.4-2.8 4.8-5.8zm11-1.1q-3.5 0.4-7.1 0.7-2.2 2.8-4.4 5.5 3.4-0.6 6.8-1.3 2.4-2.4 4.7-4.9zm10.4-1.6q-3 0.5-6.1 1-2 2.3-4.1 4.5 3-0.7 5.9-1.5 2.2-1.9 4.3-4zm9.8-2q-2.4 0.5-4.8 1-1.6 1.7-3.3 3.4 2.3-0.7 4.5-1.5 1.8-1.4 3.6-2.9zm8.7-2.3q-1.3 0.4-2.7 0.8-1 0.9-2 1.8 1.3-0.5 2.7-1.1 1-0.7 2-1.5zm-98.3-8.1q-2.2-0.4-4.4-0.8-4.5 4.5-8.8 9.2 2.7 0.4 5.4 0.8 3.8-4.7 7.8-9.2zm8.9 1.5q-2.8-0.4-5.7-0.9-4 4.4-7.8 9.1 3.3 0.4 6.6 0.8 3.4-4.6 6.9-9zm10 1.4q-3.4-0.4-6.8-0.9-3.5 4.4-6.9 8.9 3.9 0.5 7.7 0.8 2.9-4.5 6-8.8zm11.1 1.3q-4-0.4-7.9-0.9-3.1 4.3-6 8.7 4.4 0.3 8.8 0.5 2.5-4.2 5.1-8.3zm12 0.9q-4.4-0.3-8.9-0.6-2.6 4-5 8.2 4.6 0.2 9.1 0.2 2.4-3.8 4.8-7.8zm12.1 0.4q-4.4-0.1-8.9-0.3-2.3 3.9-4.7 7.7 4.4-0.1 8.8-0.2 2.4-3.5 4.8-7.2zm11.8-0.1q-4.2 0.2-8.4 0.1-2.3 3.6-4.7 7 4.1-0.2 8.2-0.6 2.5-3.2 4.9-6.5zm11.4-0.6q-3.9 0.3-7.8 0.5-2.3 3.2-4.7 6.2 3.8-0.4 7.6-0.9 2.5-2.8 4.9-5.8zm10.9-1.2q-3.5 0.5-7 0.8-2.2 2.8-4.5 5.5 3.5-0.6 6.8-1.3 2.4-2.4 4.7-5zm10.4-1.5q-3 0.5-6.1 1-2 2.3-4 4.5 2.9-0.7 5.8-1.5 2.2-1.9 4.3-4zm-263.7 150.3q-1.4 0.3-2.7 0.7-1 0.9-2 1.8 1.3-0.5 2.7-1 1-0.8 2-1.5z"/>
			<path id="&lt;Compound Path&gt;" fill-rule="evenodd" class="s0" d="m1271.6 0.1c-42.1 19.3-84.1 36.8-125.5 51.1-87.1 30-186.9 30.9-283.1 12.7q1.6 2.2 3.3 4.3c100.7 21.3 206.2 22.2 297.7-9.3 46.7-16.1 94.3-36.5 142-58.8h6.6c-49.6 23.3-99 44.6-147.7 61.4-91 31.4-195.8 30.9-296 10.1q1.6 2.1 3.3 4.1c104.5 24 215.2 26.3 310.6-6.5 53.9-18.6 108.8-42.8 163.7-69.1h6.5c-56.7 27.3-113.5 52.5-169.3 71.7-94.8 32.7-204.6 30.8-308.6 7.4q1.6 1.9 3.2 3.8c108.3 26.8 224.1 30.7 323.3-3.5 60.8-21 123-49.2 185-79.4h6.4c-63.7 31.2-127.8 60.4-190.4 82-98.7 34-213.4 30.6-321 4.5q1.6 1.8 3.2 3.5c111.7 29.6 232.6 35.2 335.7-0.3 67.6-23.3 137-55.6 205.9-89.7h6.3c-70.6 35-141.8 68.3-211.3 92.3-102.3 35.2-222 30.3-333 1.5q1.5 1.6 3 3.2c115.1 32.5 241 39.8 347.9 3 74.4-25.7 151-62.2 226.6-100h6.3c-77.3 38.7-155.7 76.3-232 102.6-105.9 36.5-230.5 29.9-344.7-1.6q1.4 1.4 2.8 2.8c118.2 35.4 249.3 44.5 359.8 6.5 81.1-28 164.9-68.9 247.2-110.3h6.2c-83.9 42.3-169.5 84.3-252.5 112.9-109.5 37.7-238.9 29.4-356.2-4.9q1.3 1.3 2.6 2.5l2.4 0.7c120.6 37.8 255.7 48.4 369.1 9.4 87.9-30.3 178.8-75.8 267.6-120.6h6.2c-90.4 45.7-183.1 92.3-272.9 123.2-113 38.9-247.2 28.9-367.4-8.2l2.3 2q6.9 2.3 13.9 4.5c120.6 37.8 255.7 48.4 369.1 9.4 90.9-31.4 185-78.9 276.7-125.2l11.3-5.7h6.3l-16.3 8.2c-91.8 46.3-185.9 93.9-277.1 125.3-114 39.3-249.7 28.7-370.8-9.3q-3.8-1.2-7.6-2.4l2 1.7q12.5 4.3 25.3 8.3c120.6 37.8 255.6 48.4 369 9.4 90.9-31.4 185-78.9 276.7-125.2q16-8.1 31.8-16h6.2q-18.3 9.2-36.7 18.5c-91.8 46.3-185.9 93.9-277.1 125.3-114 39.3-249.7 28.7-370.8-9.3q-9.2-2.9-18.2-5.9l1.5 1.2q17.9 6.6 36.4 12.3c120.6 37.8 255.6 48.5 369 9.4 90.9-31.4 185-78.9 276.7-125.2 17.6-8.9 35-17.7 52.3-26.3h6.3c-18.9 9.4-38.1 19.1-57.3 28.8-91.8 46.3-185.9 93.9-277.1 125.3-114 39.3-249.7 28.7-370.8-9.3q-14.4-4.5-28.6-9.5l0.9 0.6c15.5 6 31.3 11.5 47.4 16.5 120.6 37.8 255.6 48.5 369 9.4 90.9-31.3 185-78.9 276.8-125.2 24.5-12.4 48.9-24.7 73-36.6h6.4c-25.8 12.6-51.9 25.8-78.2 39.1-91.7 46.3-185.9 93.9-277 125.3-114.1 39.3-249.8 28.7-370.9-9.3q-19.5-6.1-38.5-13.2l0.1 0.1c18.8 7.6 38.3 14.5 58.1 20.7 120.6 37.8 255.6 48.5 369.1 9.4 90.8-31.3 184.9-78.9 276.7-125.2 31.7-16 63.1-31.9 94.1-46.9h6.4c-32.6 15.7-65.8 32.5-99.2 49.4-91.8 46.3-186 93.9-277.1 125.3-114.1 39.3-249.7 28.7-370.9-9.3q-20.1-6.3-39.6-13.6c19.2 7.8 39.1 14.9 59.3 21.2 120.6 37.8 255.6 48.5 369.1 9.4 90.8-31.3 185-78.9 276.7-125.2 39.1-19.7 77.7-39.3 115.5-57.2h6.6c-39.5 18.6-79.9 39-120.8 59.7-91.8 46.3-186 93.9-277.1 125.3-114.1 39.3-249.7 28.7-370.8-9.3q-20.1-6.3-39.7-13.6c19.3 7.8 39.1 14.9 59.3 21.2 120.6 37.8 255.6 48.5 369.1 9.4 90.9-31.3 185-78.9 276.7-125.2 46.7-23.6 92.7-46.9 137.5-67.5h6.7c-46.4 21.2-94.3 45.5-142.9 70-91.8 46.3-186 93.9-277.1 125.3-114.1 39.3-249.7 28.7-370.8-9.3q-20.2-6.3-39.7-13.6c19.3 7.8 39.1 14.9 59.3 21.2 120.6 37.8 255.7 48.5 369.1 9.4 90.9-31.3 185-78.9 276.7-125.2 54.6-27.6 108.4-54.7 160.2-77.8h6.9c-53.5 23.6-109.2 51.7-165.8 80.3-91.8 46.3-185.9 93.9-277.1 125.3-114.1 39.3-249.7 28.7-370.8-9.3q-20.2-6.3-39.7-13.6c19.3 7.8 39.1 14.9 59.3 21.2 120.6 37.8 255.7 48.5 369.1 9.4 90.9-31.3 185-78.9 276.7-125.2 63-31.8 124.8-63 183.8-88.1h7.3c-60.8 25.4-124.7 57.7-189.8 90.6-91.8 46.3-185.9 93.9-277.1 125.3-114 39.3-249.7 28.7-370.8-9.3q-20.1-6.3-39.7-13.6c19.3 7.8 39.1 14.9 59.3 21.3 120.7 37.7 255.7 48.4 369.1 9.3 90.9-31.3 185-78.9 276.7-125.2 61.2-30.9 121.3-61.2 178.7-85.9v3c-57 24.6-116.7 54.7-177.4 85.4-91.8 46.4-185.9 93.9-277.1 125.3-114 39.3-249.7 28.7-370.8-9.3q-20.1-6.3-39.6-13.6c19.2 7.8 39 14.9 59.3 21.3 120.6 37.7 255.6 48.4 369 9.3 90.9-31.3 185-78.9 276.7-125.2 54.6-27.5 108.2-54.6 159.9-77.7v3.1c-51.3 22.9-104.5 49.8-158.6 77.1-91.8 46.4-185.9 93.9-277.1 125.3-114 39.3-249.7 28.7-370.8-9.3q-20.1-6.3-39.6-13.6c19.2 7.8 39 14.9 59.3 21.3 120.6 37.7 255.6 48.4 369 9.3 90.9-31.3 185-78.9 276.8-125.2 47.9-24.2 95.2-48.1 141-69.2v3.1c-45.4 20.9-92.3 44.6-139.8 68.6-91.7 46.4-185.9 93.9-277 125.3-114.1 39.3-249.8 28.7-370.9-9.3q-20.1-6.3-39.6-13.6c19.2 7.8 39.1 14.9 59.3 21.3 120.6 37.7 255.6 48.4 369.1 9.3 90.8-31.3 184.9-78.9 276.7-125.2 41.4-20.9 82.3-41.6 122.2-60.4v3.1c-39.5 18.7-80 39.1-121 59.8-91.7 46.4-185.9 93.9-277 125.3-114.1 39.3-249.7 28.7-370.9-9.3-53.2-16.6-103.6-38.6-148.1-63.9q-9.6-5.1-18.9-10.3-9.5-5.1-18.7-10.3-9.6-5.1-18.9-10.3-9.5-5.1-18.8-10.3-9.5-5.1-18.8-10.3-9.6-5.1-18.8-10.3-9.6-5.1-18.8-10.3-9.6-5.1-18.8-10.3-9.6-5.1-18.9-10.3-9.5-5.1-18.7-10.3-9.6-5.1-18.9-10.3-9.5-5.1-18.8-10.3-9.5-5.1-18.8-10.3-9.5-5.1-18.8-10.3-9.6-5.1-18.8-10.3-9.6-5.1-18.8-10.3-9.6-5.1-18.8-10.3-8.2-4.4-16.2-8.8h16q4 2.9 8.2 5.8-3.8-2.9-7.6-5.8h4.5q9.2 7.1 18.9 14.1l0.6 0.2q-9.2-7.1-17.7-14.3h4.3q11.2 9.3 23.4 18.4l1.8 0.7q-11.7-9.4-22.4-19.1h4.2q12.8 11.5 27.2 22.6l2.9 1.1c-9.4-7.8-18.2-15.7-26.3-23.7h4c9.3 9.1 19.5 18 30.4 26.8l3.7 1.3c-10.6-9.2-20.4-18.6-29.3-28.1h3.8c9.9 10.4 20.9 20.7 32.9 30.7q2.3 0.8 4.6 1.6c-11.7-10.6-22.4-21.4-31.8-32.3h3.7c10.3 11.7 21.9 23.3 34.8 34.6q2.6 0.9 5.3 1.8c-12.6-11.9-23.8-24.1-33.4-36.4h3.6c10.3 13 22.4 25.8 36 38.4l2.4 0.7q1.8 0.6 3.6 1.1c-13.3-13.2-24.9-26.6-34.5-40.2h3.5c10.2 14.2 22.5 28.2 36.7 42q3.3 1 6.6 1.9c-13.8-14.4-25.5-29.1-34.8-43.9h3.3c9.8 15.3 22.2 30.6 36.9 45.4q3.5 1.1 7.1 2c-12.8-14.1-23.6-28.5-32.1-43q-1.1-1.9-2.5-4.4h3.2q1 1.7 1.7 3c9.1 15.4 20.8 30.7 34.7 45.8q3.8 1 7.7 2c-10.2-11.9-18.9-24-26-36.1-1.9-3.3-4.6-8.4-8-14.7h3.2c3 5.7 5.4 10.2 7.2 13.3 7.7 13 17.2 25.9 28.3 38.7q4.1 1 8.2 1.9c-7.7-9.5-14.4-19.2-20.1-28.9-2.3-4-5.8-10.7-10.3-19.1l-3.1-5.9h3.2l2.4 4.6c4.4 8.4 7.9 14.9 10.3 19 6.1 10.5 13.5 21 22 31.4q4.4 1 8.7 1.9c-5.3-7.2-10.1-14.4-14.4-21.6-2.3-4-5.8-10.7-10.3-19.1-2.5-4.8-5.4-10.3-8.5-16.2h3.1c2.9 5.4 5.6 10.4 7.9 14.9 4.4 8.4 7.9 14.9 10.3 19 4.7 8 10.1 16 16.1 23.9q4.6 1 9.3 1.9-4.9-7-9.1-14.1c-2.3-4-5.8-10.7-10.2-19.1-4-7.5-8.8-16.6-14.2-26.5h3.2c5.1 9.4 9.6 18 13.4 25.2 4.5 8.4 7.9 14.9 10.3 19q4.8 8.2 10.5 16.3c96.7 18.7 197.1 18.1 284.6-12 39.4-13.6 79.4-30.3 119.6-48.5zm-516 38.9l0.1 0.1 1.8 0.7-0.2-0.2zm-8.8-6.6l0.9 0.7 2.8 1-0.9-0.7zm14.1 4.8l-3.8-1.2 1.5 1.2zm13.6 12.1l0.1 0.1 1.8 0.7-0.2-0.2zm-8.8-6.7l0.9 0.7 2.8 1.1-0.9-0.8zm27.6 17l0.1 0.1 1.8 0.7-0.2-0.2zm-8.8-6.6l0.9 0.7 2.8 1-0.9-0.7zm-8.5-6.7l1.5 1.2 3.8 1.3-1.5-1.3zm-8.2-6.7l2 1.6q2.3 0.8 4.6 1.6l-2-1.8q-2.3-0.7-4.6-1.4zm44.3 30.4l0.1 0.1 1.8 0.7-0.2-0.2zm-8.8-6.6l0.8 0.6 2.9 1.1-0.9-0.8zm-8.5-6.7l1.5 1.3 3.8 1.3q-0.8-0.6-1.5-1.3zm-8.2-6.7l2 1.6q2.2 0.8 4.5 1.6l-1.9-1.8q-2.3-0.7-4.6-1.4zm-7.9-6.9l2.4 2.1q2.6 0.9 5.3 1.7-1.2-1.1-2.3-2.2-2.7-0.8-5.4-1.6zm52.1 37.3l0.1 0.1 1.8 0.7-0.2-0.2zm-8.8-6.7l0.9 0.7 2.9 1.1-1-0.8zm-8.4-6.7l1.5 1.2 3.7 1.4q-0.7-0.6-1.5-1.3zm-8.1-6.8l1.9 1.7q2.3 0.8 4.6 1.6l-1.9-1.8q-2.3-0.7-4.6-1.5zm-7.9-6.8l2.3 2.1q2.7 0.8 5.3 1.7-1.1-1.1-2.3-2.2-2.6-0.8-5.3-1.6zm-7.6-6.9q1.3 1.2 2.6 2.4l2.5 0.8q1.7 0.5 3.5 1.1-1.3-1.3-2.6-2.6-3-0.9-6-1.7zm59.7 44.2h0.1l1.8 0.8-0.2-0.2zm-8.8-6.7l0.9 0.7 2.8 1.1-0.9-0.8zm-8.5-6.7l1.5 1.2 3.8 1.4-1.5-1.3zm-8.2-6.8l2 1.7q2.3 0.8 4.6 1.6l-2-1.8q-2.3-0.7-4.6-1.5zm-7.8-6.8l2.3 2.1q2.6 0.8 5.3 1.7-1.2-1.1-2.3-2.2-2.7-0.8-5.3-1.6zm-7.6-7q1.3 1.3 2.6 2.5l2.4 0.8q1.8 0.5 3.5 1-1.2-1.2-2.5-2.5-3-0.9-6-1.8zm-7.3-7q1.4 1.4 2.8 2.8 3.3 1 6.6 1.9-1.4-1.4-2.8-2.9-3.3-0.9-6.6-1.8zm67 51.2l0.1 0.1 1.8 0.7-0.2-0.1zm-8.8-6.7l0.9 0.7 2.8 1.1-0.9-0.8zm-8.5-6.7l1.5 1.2 3.8 1.4-1.5-1.3zm-8.2-6.8l2 1.7q2.3 0.8 4.5 1.5l-1.9-1.7q-2.3-0.8-4.6-1.5zm-7.9-6.8q1.2 1 2.4 2 2.6 0.9 5.3 1.8-1.2-1.1-2.3-2.2-2.7-0.8-5.4-1.6zm-7.6-7q1.4 1.3 2.7 2.5l2.4 0.7q1.8 0.6 3.5 1.1-1.3-1.3-2.5-2.5-3-0.9-6.1-1.8zm-7.3-7q1.4 1.4 2.9 2.8 3.3 1 6.5 1.9-1.4-1.4-2.7-2.9-3.4-0.9-6.7-1.8zm-7-7.2q1.5 1.6 3 3.2 3.6 1 7.1 1.9-1.5-1.6-2.9-3.2-3.6-0.9-7.2-1.9zm60.5 46.3l-3.7-1.2 1.5 1.2zm13.5 12.1h0.1l1.8 0.8-0.2-0.2zm-8.8-6.7l0.9 0.7 2.8 1.1-0.9-0.8zm-16.6-13.4l2 1.6q2.2 0.8 4.5 1.6l-1.9-1.8q-2.3-0.7-4.6-1.4zm-7.9-6.9q1.2 1.1 2.4 2.1 2.6 0.9 5.2 1.7-1.1-1.1-2.2-2.2-2.7-0.8-5.4-1.6zm-7.6-6.9q1.3 1.2 2.7 2.4l2.4 0.8q1.7 0.6 3.5 1.1-1.3-1.3-2.6-2.6-3-0.8-6-1.7zm-7.3-7q1.4 1.4 2.9 2.8 3.2 0.9 6.5 1.9-1.4-1.5-2.7-2.9-3.4-0.9-6.7-1.8zm-7-7.2q1.5 1.6 3 3.1 3.5 1 7.1 2-1.5-1.6-2.9-3.3-3.6-0.9-7.2-1.8zm-6.8-7.3q1.5 1.7 3.1 3.5 3.8 1 7.7 1.9-1.5-1.7-3-3.5-3.9-0.9-7.8-1.9zm80.8 65.7l0.1 0.1 1.8 0.7-0.2-0.2zm-8.8-6.6l0.9 0.6 2.8 1.1-0.9-0.7zm-8.4-6.7l1.5 1.2 3.7 1.3q-0.7-0.6-1.5-1.3zm-8.1-6.7l1.9 1.6q2.3 0.8 4.6 1.6l-2-1.8q-2.2-0.7-4.5-1.4zm-7.9-6.9q1.2 1.1 2.3 2.1 2.7 0.9 5.3 1.7-1.1-1.1-2.3-2.2-2.7-0.8-5.3-1.6zm-7.6-6.9q1.3 1.2 2.6 2.4l2.4 0.8q1.8 0.5 3.6 1.1-1.3-1.3-2.6-2.6-3-0.8-6-1.7zm-7.3-7.1q1.4 1.4 2.8 2.8 3.3 1 6.6 2-1.4-1.5-2.8-3-3.3-0.8-6.6-1.8zm-7.1-7.1q1.5 1.6 3.1 3.1 3.5 1 7.1 2-1.5-1.6-2.9-3.3-3.7-0.9-7.3-1.8zm-6.8-7.3q1.6 1.7 3.2 3.4 3.8 1.1 7.7 2-1.6-1.8-3.1-3.6-3.9-0.9-7.8-1.8zm-6.5-7.4q1.6 1.8 3.3 3.7 4.1 1 8.2 2-1.6-2-3.1-3.9-4.2-0.9-8.4-1.8zm87.4 73.1l0.1 0.1 1.8 0.7-0.2-0.2zm-8.8-6.7l0.9 0.7 2.8 1.1-0.9-0.8zm-8.5-6.7l1.5 1.2 3.8 1.4-1.5-1.3zm-8.2-6.8l2 1.7q2.3 0.8 4.6 1.6l-2-1.8q-2.3-0.7-4.6-1.5zm-7.8-6.8q1.1 1 2.3 2.1 2.6 0.9 5.3 1.7-1.2-1.1-2.3-2.2-2.7-0.8-5.3-1.6zm-7.6-6.9q1.3 1.2 2.6 2.4l2.4 0.8q1.8 0.5 3.5 1.1-1.2-1.3-2.5-2.6-3-0.9-6-1.7zm-7.3-7.1q1.4 1.4 2.8 2.8 3.3 1 6.6 2-1.4-1.5-2.8-3-3.3-0.9-6.6-1.8zm-7.1-7.1q1.5 1.5 3 3.1 3.6 1 7.1 2-1.4-1.7-2.9-3.3-3.6-0.9-7.2-1.8zm-6.8-7.3q1.6 1.7 3.2 3.4 3.8 1 7.6 2-1.5-1.8-3-3.6-3.9-0.9-7.8-1.8zm-6.5-7.4q1.6 1.8 3.2 3.7 4.1 1 8.2 2-1.5-2-3-3.9-4.2-0.9-8.4-1.8zm-6.2-7.6q1.6 2 3.3 4 4.3 1 8.7 2-1.6-2.1-3.1-4.2-4.5-0.9-8.9-1.8zm-113.4-32.7l0.1 0.1 1.8 0.8-0.2-0.2zm25.7 9.8l-3.8-1.4m116.6 63.2l-3.7-1.4"/>
		</g>
	</g>
</svg>
