<?xml version="1.0" standalone="no"?>
<!DOCTYPE svg PUBLIC "-//W3C//DTD SVG 20010904//EN"
 "http://www.w3.org/TR/2001/REC-SVG-20010904/DTD/svg10.dtd">
<svg version="1.0" xmlns="http://www.w3.org/2000/svg"
 width="1000.000000pt" height="1000.000000pt" viewBox="0 0 1000.000000 1000.000000"
 preserveAspectRatio="xMidYMid meet">
<metadata>
Created by potrace 1.14, written by Peter Selinger 2001-2017
</metadata>
<g transform="translate(0.000000,1000.000000) scale(0.100000,-0.100000)"
fill="#000000" stroke="none">
<path d="M2235 7530 l235 -470 1738 0 1737 0 49 98 c27 53 131 265 232 470
l183 372 -2205 0 -2204 0 235 -470z"/>
<path d="M6868 7778 c-63 -123 -507 -998 -988 -1945 -481 -948 -877 -1723
-880 -1723 -8 0 -760 1483 -760 1498 0 9 123 12 505 12 l504 0 182 368 c99
202 187 382 195 400 l14 32 -1425 0 -1425 0 1102 -2205 c607 -1213 1105 -2205
1108 -2205 3 0 679 1348 1503 2995 l1497 2995 -509 0 -509 0 -114 -222z"/>
</g>
</svg>
